<svg width="20" height="20" viewBox="0 0 20 20" fill="none" xmlns="http://www.w3.org/2000/svg">
<path d="M15.625 14.375C14.5913 14.375 13.75 13.5337 13.75 12.5C13.75 11.9956 13.9525 11.5394 14.2775 11.2019L15.0656 12.7794C15.1397 12.9277 15.2697 13.0406 15.427 13.0931C15.5843 13.1456 15.756 13.1335 15.9044 13.0594C16.0527 12.9853 16.1656 12.8553 16.2181 12.698C16.2706 12.5407 16.2585 12.369 16.1844 12.2206L15.3981 10.6481C15.4731 10.6388 15.5469 10.625 15.625 10.625C16.6587 10.625 17.5 11.4662 17.5 12.5C17.5 13.5337 16.6587 14.375 15.625 14.375ZM9.99 11.2312L8.56625 8.75H11.3713L9.99 11.2312ZM6.39937 10.1394L7.14562 8.795L8.91563 11.875H7.43688C7.29563 11.1825 6.91625 10.5831 6.39937 10.1394ZM4.375 14.375C3.34125 14.375 2.5 13.5337 2.5 12.5C2.5 11.4662 3.34125 10.625 4.375 10.625C4.47902 10.6268 4.58271 10.6373 4.685 10.6562L3.83125 12.1938C3.6625 12.5 3.76875 12.8813 4.06875 13.0438C4.16875 13.1 4.26875 13.125 4.375 13.125C4.59375 13.125 4.80625 13.0062 4.91875 12.8062L5.77437 11.2644C6.06687 11.5956 6.25 12.025 6.25 12.5C6.25 13.5337 5.40875 14.375 4.375 14.375ZM15.625 9.375C15.3528 9.37867 15.0824 9.41839 14.8206 9.49312L12.4344 4.72062C12.3818 4.61727 12.3018 4.53037 12.2031 4.46941C12.1045 4.40845 11.991 4.37579 11.875 4.375H10C9.65625 4.375 9.375 4.65625 9.375 5C9.375 5.34375 9.65625 5.625 10 5.625H11.4888L12.2563 7.16062L12.0675 7.5H7.84875L7.49 6.875H7.5C7.66576 6.875 7.82473 6.80915 7.94194 6.69194C8.05915 6.57473 8.125 6.41576 8.125 6.25C8.125 6.08424 8.05915 5.92527 7.94194 5.80806C7.82473 5.69085 7.66576 5.625 7.5 5.625H5.625C5.45924 5.625 5.30027 5.69085 5.18306 5.80806C5.06585 5.92527 5 6.08424 5 6.25C5 6.41576 5.06585 6.57473 5.18306 6.69194C5.30027 6.80915 5.45924 6.875 5.625 6.875H6.04187L6.42 7.5325L5.30875 9.53312C5.00744 9.43288 4.69251 9.37955 4.375 9.375C2.65188 9.375 1.25 10.7769 1.25 12.5C1.25 14.2231 2.65188 15.625 4.375 15.625C5.09502 15.6239 5.79267 15.3747 6.3504 14.9194C6.90813 14.464 7.29184 13.8303 7.43688 13.125H10C10.1107 13.1248 10.2195 13.0952 10.315 13.0392C10.4105 12.9832 10.4895 12.9028 10.5438 12.8062L12.9331 8.51438L13.7031 10.0544C12.9762 10.6269 12.5 11.505 12.5 12.5C12.5 14.2231 13.9019 15.625 15.625 15.625C17.3481 15.625 18.75 14.2231 18.75 12.5C18.75 10.7769 17.3481 9.375 15.625 9.375Z" fill="#747576"/>
</svg>
