<svg width="20" height="20" viewBox="0 0 20 20" fill="none" xmlns="http://www.w3.org/2000/svg">
<path d="M9.9975 9.43625C9.60688 9.43625 9.335 9.21125 9.335 8.8875C9.335 8.56125 9.60688 8.33625 9.9975 8.33625C10.3906 8.33625 10.6625 8.56125 10.6625 8.8875C10.6625 9.21125 10.3906 9.43625 9.9975 9.43625ZM9.9975 6.80375C10.3288 6.80375 10.5587 7.00625 10.5587 7.29563C10.5587 7.5825 10.3288 7.785 9.9975 7.785C9.66875 7.785 9.43875 7.5825 9.43875 7.29563C9.43875 7.00625 9.66625 6.80375 9.9975 6.80375ZM10.6525 8.04438V8C11.0431 7.90875 11.295 7.60437 11.295 7.22375C11.295 6.655 10.7563 6.25 10 6.25C9.24125 6.25 8.70188 6.655 8.70188 7.22375C8.70188 7.60187 8.95687 7.91125 9.345 8V8.04438C8.8675 8.15063 8.55875 8.50938 8.55875 8.95688C8.55875 9.5775 9.13938 10 9.9975 10C10.8556 10 11.4412 9.575 11.4412 8.94938C11.4412 8.49438 11.1275 8.13375 10.6525 8.04438ZM10 11.25C8.27688 11.25 6.875 9.84812 6.875 8.125C6.875 6.40188 8.27688 5 10 5C11.7231 5 13.125 6.40188 13.125 8.125C13.125 9.84812 11.7231 11.25 10 11.25ZM10 2.5C5.86437 2.5 2.5 5.86437 2.5 10C2.5 14.1356 5.86437 17.5 10 17.5C14.1356 17.5 17.5 14.1356 17.5 10C17.5 5.86437 14.1356 2.5 10 2.5Z" fill="#747576"/>
</svg>
