<svg width="20" height="20" viewBox="0 0 20 20" fill="none" xmlns="http://www.w3.org/2000/svg">
<g clip-path="url(#clip0)">
<path d="M7.90628 20C7.81253 20 7.65628 20 7.56253 19.9063C7.21878 19.7188 7.03128 19.375 7.03128 18.9375L8.25003 12.5313H2.28128C1.93753 12.5313 1.65628 12.3438 1.50003 12C1.31253 11.75 1.40628 11.375 1.59378 11.125L9.65628 0.375028C9.90628 0.125028 10.2813 -0.0624724 10.625 0.0312776C10.9688 0.218778 11.25 0.562528 11.25 0.906278V6.43753H17.7188C18.0625 6.43753 18.3438 6.62503 18.5 6.96878C18.6875 7.31253 18.5938 7.65628 18.4063 7.93753L8.59378 19.75C8.43753 19.9063 8.15628 20 7.90628 20ZM4.03128 10.8125H9.28128C9.53128 10.8125 9.81253 10.9063 9.96878 11.1563C10.1563 11.3438 10.2188 11.5938 10.1563 11.8438L9.37503 15.9688L15.8438 8.15628H10.3438C9.81253 8.15628 9.46878 7.81253 9.46878 7.28128V3.53128L4.03128 10.8125Z" fill="#747576"/>
</g>
<defs>
<clipPath id="clip0">
<rect width="20" height="20" fill="white"/>
</clipPath>
</defs>
</svg>
