<svg width="20" height="20" viewBox="0 0 20 20" fill="none" xmlns="http://www.w3.org/2000/svg">
<path d="M15.5182 3.73688C14.75 2.90438 13.3544 2.5 11.2488 2.5C9.14378 2.5 7.74753 2.90438 6.98003 3.73688C6.1844 4.59938 6.20503 5.74812 6.28628 6.75688L6.35628 7.62813C6.41503 8.37125 6.46815 9.0475 6.52878 9.66187C6.53332 9.70425 6.52881 9.74712 6.51556 9.78763C6.50231 9.82814 6.48061 9.86537 6.4519 9.89687C6.2844 10.0806 5.9344 9.97 5.90815 9.72687C5.86128 9.26937 5.76253 8.03625 5.71628 7.45188C5.70815 7.35541 5.67801 7.26208 5.62816 7.17909C5.57832 7.09609 5.51011 7.02563 5.42878 6.97312C5.35026 6.92152 5.26077 6.88899 5.16744 6.87814C5.07411 6.86729 4.97954 6.87841 4.89128 6.91062C4.42628 7.0775 3.3969 7.70375 3.87253 9.89625C4.60878 13.2825 7.09065 15 11.2494 15C15.5619 15 15.7432 12.7038 16.1388 7.6725L16.2119 6.75688C16.2932 5.74812 16.3144 4.59938 15.5182 3.73688ZM14.6525 14.9688C14.7007 14.9994 14.7395 15.0426 14.7649 15.0937C14.7902 15.1448 14.8011 15.2019 14.7963 15.2587L14.715 16.2369C14.7023 16.4071 14.6427 16.5706 14.5429 16.7091C14.443 16.8476 14.3069 16.9559 14.1494 17.0219C13.6219 17.24 12.6907 17.5 11.2494 17.5C9.80878 17.5 8.87753 17.24 8.3494 17.0219C8.19196 16.9559 8.05585 16.8477 7.95613 16.7091C7.85641 16.5706 7.79698 16.4071 7.7844 16.2369L7.72753 15.555C7.72328 15.5047 7.73124 15.4541 7.75071 15.4076C7.77019 15.361 7.80061 15.3198 7.8394 15.2875C7.87857 15.2557 7.92474 15.2338 7.97409 15.2235C8.02344 15.2131 8.07454 15.2147 8.12315 15.2281C9.06065 15.4913 10.1132 15.625 11.2494 15.625C12.5519 15.625 13.5594 15.4081 14.3288 14.9619C14.3783 14.9336 14.4346 14.9193 14.4916 14.9205C14.5486 14.9217 14.6042 14.9384 14.6525 14.9688Z" fill="#747576"/>
</svg>
