<svg width="20" height="20" viewBox="0 0 20 20" fill="none" xmlns="http://www.w3.org/2000/svg">
<g clip-path="url(#clip0)">
<path d="M18.3125 7.03125C17.9687 4.03125 15.375 1.6875 12.2812 1.6875H7.875C6.28125 1.6875 4.6875 2.34375 3.59375 3.4375C2.5 4.4375 1.9375 5.6875 1.75 7.125C0.75 7.625 0 8.71875 0 9.875V10.125C0 11.375 0.75 12.4688 1.75 12.9688C2.09375 15.9688 4.6875 18.3125 7.78125 18.3125H12.2187C13.8125 18.3125 15.4062 17.6563 16.5 16.5625C17.5 15.5625 18.0938 14.3125 18.25 12.9688C19.3438 12.4688 20 11.375 20 10.125V9.875C20.0625 8.71875 19.3125 7.625 18.3125 7.03125ZM7.78125 3.34375H12.2187C14.2187 3.34375 15.9687 4.78125 16.5 6.6875H3.59375C3.75 5.9375 4.1875 5.1875 4.75 4.59375C5.53125 3.78125 6.59375 3.34375 7.78125 3.34375ZM12.3125 16.7188H7.875C5.78125 16.7188 4.125 15.2813 3.59375 13.375H16.5625C16.4062 14.125 15.9687 14.875 15.4062 15.4688C14.5625 16.3125 13.4688 16.7188 12.3125 16.7188ZM18.5 10.2188C18.5 11.0625 17.6562 11.7188 16.7188 11.7188H3.34375C2.4375 11.7188 1.65625 11.0625 1.65625 10.2188V9.96875C1.65625 9.125 2.40625 8.46875 3.34375 8.46875H16.9062C17.75 8.46875 18.5 9.125 18.5 10.0625V10.2188V10.2188Z" fill="#747576"/>
</g>
<defs>
<clipPath id="clip0">
<rect width="20" height="20" fill="white"/>
</clipPath>
</defs>
</svg>
