<svg width="20" height="20" viewBox="0 0 20 20" fill="none" xmlns="http://www.w3.org/2000/svg">
<path d="M10 0C4.5 0 0 4.5 0 10C0 15.5 4.5 20 10 20C15.5 20 20 15.5 20 10C20 4.5 15.5 0 10 0ZM10 18.3438C5.40625 18.3438 1.65625 14.5937 1.65625 10C1.65625 5.40625 5.40625 1.65625 10 1.65625C14.5937 1.65625 18.3438 5.40625 18.3438 10C18.3438 14.5937 14.5937 18.3438 10 18.3438Z" fill="#747576"/>
<path d="M13.0938 6.90625C12.75 6.5625 12.25 6.5625 11.9375 6.90625L10 8.84375L8.09375 6.9375C7.75 6.59375 7.25 6.59375 6.9375 6.9375C6.59375 7.28125 6.59375 7.78125 6.9375 8.09375L8.84375 10L6.9375 11.9063C6.59375 12.25 6.59375 12.75 6.9375 13.0625C7.09375 13.2188 7.34375 13.3125 7.53125 13.3125C7.71875 13.3125 7.9375 13.2188 8.125 13.0625L10.0312 11.1563L11.9375 13.0625C12.0938 13.2188 12.3438 13.3125 12.5313 13.3125C12.7188 13.3125 12.9375 13.2188 13.125 13.0625C13.4688 12.7188 13.4688 12.2188 13.125 11.9063L11.1563 10L13.0625 8.09375C13.4063 7.75 13.4063 7.25 13.0938 6.90625Z" fill="#747576"/>
</svg>
