<svg width="20" height="20" viewBox="0 0 20 20" fill="none" xmlns="http://www.w3.org/2000/svg">
<path d="M11.2575 5.625C11.2503 5.46391 11.1812 5.31181 11.0647 5.20036C10.9482 5.08892 10.7931 5.02672 10.6319 5.02672C10.4706 5.02672 10.3156 5.08892 10.199 5.20036C10.0825 5.31181 10.0134 5.46391 10.0062 5.625C10.0134 5.78609 10.0825 5.93819 10.199 6.04964C10.3156 6.16108 10.4706 6.22328 10.6319 6.22328C10.7931 6.22328 10.9482 6.16108 11.0647 6.04964C11.1812 5.93819 11.2503 5.78609 11.2575 5.625ZM14.4369 8.1075C13.9862 8.69 13.0456 9.48688 11.5581 8.78562C11.6781 9.63188 12.0737 10.1431 12.52 10.7206C13.1056 11.4788 13.77 12.3375 13.77 14.0625C13.77 14.1036 13.7619 14.1443 13.7461 14.1822C13.7304 14.2202 13.7073 14.2547 13.6782 14.2837C13.6492 14.3127 13.6146 14.3357 13.5767 14.3514C13.5387 14.3671 13.498 14.3751 13.4569 14.375H5.925C5.86966 14.375 5.81533 14.3602 5.76756 14.3323C5.71978 14.3044 5.68027 14.2643 5.65306 14.2162C5.62586 14.168 5.61193 14.1134 5.61271 14.0581C5.61349 14.0028 5.62895 13.9486 5.6575 13.9013C6.79625 12.0106 6.48812 10.8831 6.09812 9.455C5.87625 8.64375 5.625 7.72437 5.625 6.5625C5.625 3.12375 8.43125 1.875 10.3187 1.875C10.4016 1.875 10.4811 1.90792 10.5397 1.96653C10.5983 2.02513 10.6312 2.10462 10.6312 2.1875V3.24813C11.2437 3.56813 13.3231 4.66375 14.1625 5.20625C14.615 5.49875 14.8962 5.89875 14.975 6.36375C15.0706 6.91625 14.8787 7.53562 14.4362 8.1075H14.4369ZM14.3775 16.4869C14.389 16.533 14.3898 16.5811 14.3799 16.6276C14.37 16.6741 14.3497 16.7177 14.3204 16.7551C14.2911 16.7925 14.2537 16.8228 14.2109 16.8435C14.1682 16.8643 14.1213 16.8751 14.0737 16.875H5.3125C5.26511 16.8747 5.21839 16.8638 5.17586 16.8429C5.13332 16.822 5.09607 16.7917 5.0669 16.7544C5.03774 16.717 5.01741 16.6736 5.00744 16.6272C4.99748 16.5809 4.99814 16.5329 5.00937 16.4869L5.32187 15.2369C5.33877 15.1691 5.37786 15.109 5.43291 15.0661C5.48796 15.0231 5.55581 14.9999 5.62562 15H13.7606C13.8304 14.9999 13.8983 15.0231 13.9533 15.0661C14.0084 15.109 14.0475 15.1691 14.0644 15.2369L14.3769 16.4869H14.3775Z" fill="#747576"/>
</svg>
