<svg width="20" height="20" viewBox="0 0 20 20" fill="none" xmlns="http://www.w3.org/2000/svg">
<path d="M11.385 3.76496C11.2232 3.72922 11.0539 3.75918 10.9142 3.84825C10.7745 3.93732 10.6759 4.07821 10.64 4.23996L8.13999 15.49C8.12004 15.5708 8.11647 15.6549 8.12948 15.7372C8.14248 15.8195 8.17181 15.8983 8.21574 15.9691C8.25967 16.0399 8.3173 16.1012 8.38526 16.1494C8.45322 16.1976 8.53013 16.2317 8.61146 16.2498C8.69279 16.2678 8.77692 16.2694 8.85888 16.2545C8.94084 16.2395 9.01899 16.2084 9.08873 16.1628C9.15846 16.1172 9.21839 16.0581 9.26497 15.9891C9.31156 15.92 9.34386 15.8423 9.35999 15.7606L11.86 4.51059C11.8778 4.43044 11.8796 4.34757 11.8654 4.26672C11.8511 4.18586 11.8211 4.10861 11.777 4.03937C11.7328 3.97013 11.6755 3.91025 11.6083 3.86317C11.541 3.81609 11.4651 3.78271 11.385 3.76496ZM17.9412 9.55871L14.1912 5.80871C14.1333 5.75072 14.0644 5.70473 13.9886 5.67334C13.9129 5.64196 13.8317 5.62581 13.7497 5.62581C13.6677 5.62581 13.5865 5.64196 13.5107 5.67334C13.4349 5.70473 13.3661 5.75072 13.3081 5.80871C13.2501 5.8667 13.2041 5.93554 13.1727 6.0113C13.1414 6.08706 13.1252 6.16827 13.1252 6.25027C13.1252 6.33228 13.1414 6.41348 13.1727 6.48924C13.2041 6.56501 13.2501 6.63385 13.3081 6.69183L16.6162 9.99996L13.3081 13.3081C13.1943 13.426 13.1313 13.5838 13.1327 13.7477C13.1341 13.9116 13.1998 14.0683 13.3157 14.1842C13.4316 14.3001 13.5884 14.3658 13.7522 14.3673C13.9161 14.3687 14.074 14.3057 14.1919 14.1918L17.9419 10.4418C18 10.3838 18.046 10.315 18.0775 10.2391C18.1089 10.1633 18.1251 10.082 18.1251 9.99996C18.1251 9.91788 18.1089 9.8366 18.0775 9.76078C18.046 9.68495 18 9.61608 17.9419 9.55808L17.9412 9.55871ZM6.69186 6.69183L3.38311 9.99996L6.69186 13.3081C6.80906 13.4253 6.87489 13.5842 6.87489 13.75C6.87489 13.9157 6.80906 14.0746 6.69186 14.1918C6.57467 14.309 6.41572 14.3749 6.24999 14.3749C6.08425 14.3749 5.92531 14.309 5.80811 14.1918L2.05811 10.4418C1.94094 10.3246 1.87512 10.1657 1.87512 9.99996C1.87512 9.83423 1.94094 9.67529 2.05811 9.55808L5.80811 5.80808C5.92531 5.69089 6.08425 5.62505 6.24999 5.62505C6.41572 5.62505 6.57467 5.69089 6.69186 5.80808C6.80906 5.92528 6.87489 6.08422 6.87489 6.24996C6.87489 6.4157 6.80906 6.57464 6.69186 6.69183Z" fill="#747576"/>
</svg>
