<svg width="70" height="70" viewBox="0 0 70 70" fill="none" xmlns="http://www.w3.org/2000/svg">
<path d="M68.9062 1.42187C68.25 0.65625 67.1562 0.21875 66.1719 0.21875C57.8594 0.21875 4.375 0.21875 3.82812 0.21875C2.73438 0.21875 1.75 0.65625 1.09375 1.42187C0.328125 2.1875 0 3.17188 0.109375 4.26562L5.6875 60.4844C5.79687 61.9062 6.89062 63.2188 8.42188 63.6562L33.1406 69.6719C33.6875 69.7812 34.2344 69.8906 34.7812 69.8906C35.3281 69.8906 35.9844 69.7812 36.5313 69.6719L61.25 63.6562C62.6719 63.3281 63.7656 62.0156 63.875 60.5938L69.7812 4.26562C70 3.17188 69.6719 2.1875 68.9062 1.42187ZM58.7344 58.625L35.3281 64.3125C35 64.4219 34.5625 64.4219 34.3438 64.3125L10.9375 58.625L5.79688 5.6875C14.875 5.6875 53.2656 5.6875 64.3125 5.6875L58.7344 58.625Z" fill="#747576"/>
<path d="M12.0312 14.7656C12.0312 16.2969 13.2344 17.5 14.7656 17.5H52.6094L51.0781 26.25H20.2344C18.7031 26.25 17.5 27.4531 17.5 28.9844C17.5 30.5156 18.7031 31.7188 20.2344 31.7188H50.0938L47.5781 45.6094L36.0938 49.6563L24.6094 45.5L23.0781 38.2813C22.75 36.75 21.3281 35.875 19.9063 36.2031C18.375 36.5313 17.5 37.9531 17.8281 39.4844L19.5781 48.2344C19.7969 49.2188 20.4531 49.9844 21.3281 50.3125L35.2188 55.2344C35.5469 55.3438 35.875 55.3438 36.0938 55.3438C36.3125 55.3438 36.75 55.3438 36.9688 55.2344L50.8594 50.3125C51.7344 49.9844 52.5 49.2188 52.6094 48.2344L57.9688 18.1563C58.2969 16.625 57.8594 15.2031 56.875 14L56.7656 13.8906C55.7812 12.7969 54.3594 12.25 52.8281 12.25H14.5469C13.2344 12.0313 12.0312 13.2344 12.0312 14.7656Z" fill="#747576"/>
</svg>
