<svg width="20" height="20" viewBox="0 0 20 20" fill="none" xmlns="http://www.w3.org/2000/svg">
<g clip-path="url(#clip0)">
<path d="M18.9062 0H1.125C0.5 0 0 0.5 0 1.125V18.9062C0 19.5312 0.5 20.0312 1.125 20.0312H10.6875V12.2812H8.09375V9.25H10.6875V7.03125C10.6875 4.4375 12.25 3.03125 14.5625 3.03125C15.3438 3.03125 16.125 3.0625 16.875 3.15625V5.84375H15.3125C14.0625 5.84375 13.8125 6.4375 13.8125 7.3125V9.25H16.8125L16.4375 12.2812H13.8438V20H18.9375C19.5625 20 20.0625 19.5 20.0625 18.875V1.125C20 0.5 19.5 0 18.9062 0Z" fill="#747576"/>
</g>
<defs>
<clipPath id="clip0">
<rect width="20" height="20" fill="white"/>
</clipPath>
</defs>
</svg>
