<svg width="20" height="20" viewBox="0 0 20 20" fill="none" xmlns="http://www.w3.org/2000/svg">
<path d="M15.625 10.625C15.4592 10.625 15.3003 10.5592 15.1831 10.4419C15.0658 10.3247 15 10.1658 15 10C15 9.83424 15.0658 9.67527 15.1831 9.55806C15.3003 9.44085 15.4592 9.375 15.625 9.375C15.7908 9.375 15.9497 9.44085 16.0669 9.55806C16.1842 9.67527 16.25 9.83424 16.25 10C16.25 10.1658 16.1842 10.3247 16.0669 10.4419C15.9497 10.5592 15.7908 10.625 15.625 10.625ZM13.75 8.75C13.5842 8.75 13.4253 8.68415 13.3081 8.56694C13.1908 8.44973 13.125 8.29076 13.125 8.125C13.125 7.95924 13.1908 7.80027 13.3081 7.68306C13.4253 7.56585 13.5842 7.5 13.75 7.5C13.9158 7.5 14.0747 7.56585 14.1919 7.68306C14.3092 7.80027 14.375 7.95924 14.375 8.125C14.375 8.29076 14.3092 8.44973 14.1919 8.56694C14.0747 8.68415 13.9158 8.75 13.75 8.75ZM13.7744 12.4994C13.6087 12.5058 13.4473 12.4461 13.3256 12.3334C13.2039 12.2208 13.132 12.0644 13.1256 11.8988C13.1192 11.7331 13.1789 11.5716 13.2916 11.45C13.4042 11.3283 13.5606 11.2564 13.7262 11.25C13.8919 11.2436 14.0534 11.3033 14.175 11.416C14.2967 11.5286 14.3686 11.6849 14.375 11.8506C14.3814 12.0163 14.3217 12.1777 14.209 12.2994C14.0964 12.4211 13.9401 12.493 13.7744 12.4994ZM11.875 10.625C11.7092 10.625 11.5503 10.5592 11.4331 10.4419C11.3158 10.3247 11.25 10.1658 11.25 10C11.25 9.83424 11.3158 9.67527 11.4331 9.55806C11.5503 9.44085 11.7092 9.375 11.875 9.375C12.0408 9.375 12.1997 9.44085 12.3169 9.55806C12.4342 9.67527 12.5 9.83424 12.5 10C12.5 10.1658 12.4342 10.3247 12.3169 10.4419C12.1997 10.5592 12.0408 10.625 11.875 10.625ZM7.5 10.625H6.875V11.25C6.875 11.4158 6.80915 11.5747 6.69194 11.6919C6.57473 11.8092 6.41576 11.875 6.25 11.875C6.08424 11.875 5.92527 11.8092 5.80806 11.6919C5.69085 11.5747 5.625 11.4158 5.625 11.25V10.625H5C4.83424 10.625 4.67527 10.5592 4.55806 10.4419C4.44085 10.3247 4.375 10.1658 4.375 10C4.375 9.83424 4.44085 9.67527 4.55806 9.55806C4.67527 9.44085 4.83424 9.375 5 9.375H5.625V8.75C5.625 8.58424 5.69085 8.42527 5.80806 8.30806C5.92527 8.19085 6.08424 8.125 6.25 8.125C6.41576 8.125 6.57473 8.19085 6.69194 8.30806C6.80915 8.42527 6.875 8.58424 6.875 8.75V9.375H7.5C7.66576 9.375 7.82473 9.44085 7.94194 9.55806C8.05915 9.67527 8.125 9.83424 8.125 10C8.125 10.1658 8.05915 10.3247 7.94194 10.4419C7.82473 10.5592 7.66576 10.625 7.5 10.625ZM13.75 5.625H6.25C3.8375 5.625 1.875 7.5875 1.875 10C1.875 12.4125 3.8375 14.375 6.25 14.375C7.49 14.375 7.955 13.8169 8.365 13.325C8.73438 12.8825 9.0525 12.5 10 12.5C10.9475 12.5 11.2656 12.8825 11.635 13.325C12.045 13.8169 12.51 14.375 13.75 14.375C16.1625 14.375 18.125 12.4125 18.125 10C18.125 7.5875 16.1625 5.625 13.75 5.625Z" fill="#747576"/>
</svg>
