<svg width="500" height="266" viewBox="0 0 500 266" fill="none" xmlns="http://www.w3.org/2000/svg">
<g clip-path="url(#clip0)">
<path d="M411.875 264.158H320.682C320.682 264.158 318.834 237.046 329.771 236.738C340.708 236.43 339.476 248.754 353.185 231.809C366.895 214.864 383.532 215.789 385.688 225.801C387.845 235.814 381.529 243.824 393.082 241.36C404.635 238.895 421.272 245.365 411.875 264.158Z" fill="#F2F2F2"/>
<path d="M409.932 243.705C403.217 243.098 396.481 244.619 390.679 248.052C384.876 251.485 380.301 256.657 377.6 262.835C377.084 264.018 378.828 265.05 379.349 263.857C381.866 257.983 386.185 253.061 391.682 249.803C397.18 246.545 403.571 245.118 409.932 245.73C411.229 245.847 411.222 243.822 409.932 243.705Z" fill="white"/>
<path d="M329.079 237.83C331.996 241.215 334.195 245.157 335.546 249.416C336.897 253.676 337.37 258.165 336.937 262.612C336.81 263.908 338.836 263.9 338.962 262.612C339.397 257.898 338.872 253.146 337.419 248.64C335.967 244.135 333.617 239.97 330.512 236.398C329.654 235.413 328.226 236.851 329.079 237.83Z" fill="white"/>
<path d="M378.93 220.066C372.939 230.15 368.286 240.971 365.089 252.256C364.181 255.467 363.395 258.708 362.732 261.98C362.472 263.252 364.424 263.796 364.684 262.518C366.995 251.146 370.784 240.125 375.955 229.736C377.423 226.796 378.997 223.913 380.679 221.088C380.804 220.857 380.834 220.586 380.763 220.333C380.692 220.08 380.526 219.864 380.299 219.732C380.072 219.599 379.802 219.56 379.547 219.622C379.292 219.685 379.071 219.844 378.93 220.066V220.066Z" fill="white"/>
<path d="M451.698 96.448V167.624H258.613C257.818 167.625 257.03 167.468 256.295 167.164C255.56 166.859 254.892 166.413 254.33 165.851C253.767 165.288 253.321 164.62 253.016 163.885C252.712 163.15 252.556 162.362 252.556 161.567V90.3904H445.641C446.436 90.3902 447.224 90.5467 447.959 90.851C448.694 91.1554 449.362 91.6016 449.925 92.1641C450.487 92.7267 450.933 93.3945 451.238 94.1296C451.542 94.8646 451.699 95.6524 451.698 96.448Z" fill="#F6C90E"/>
<path d="M499.196 265.464H0.803793C0.59102 265.463 0.387177 265.378 0.236941 265.227C0.0867051 265.077 0.00233459 264.873 0.00233459 264.66C0.00233459 264.447 0.0867051 264.243 0.236941 264.092C0.387177 263.942 0.59102 263.857 0.803793 263.856H499.196C499.409 263.856 499.614 263.941 499.765 264.092C499.915 264.242 500 264.447 500 264.66C500 264.873 499.915 265.078 499.765 265.228C499.614 265.379 499.409 265.464 499.196 265.464Z" fill="#3F3D56"/>
<path d="M362.253 167.624H360.903V264.833H362.253V167.624Z" fill="#3F3D56"/>
<path d="M465.2 168.299H257.956C256.345 168.298 254.801 167.657 253.662 166.518C252.523 165.379 251.883 163.835 251.881 162.224V75.1412C251.883 73.5304 252.523 71.9862 253.662 70.8472C254.801 69.7082 256.345 69.0675 257.956 69.0657H465.2C466.81 69.0675 468.355 69.7082 469.494 70.8472C470.633 71.9862 471.273 73.5304 471.275 75.1412V162.224C471.273 163.835 470.633 165.379 469.494 166.518C468.355 167.657 466.81 168.298 465.2 168.299ZM257.956 70.4158C256.703 70.4172 255.502 70.9155 254.616 71.8014C253.731 72.6873 253.232 73.8884 253.231 75.1412V162.224C253.232 163.477 253.731 164.678 254.616 165.564C255.502 166.45 256.703 166.948 257.956 166.949H465.2C466.452 166.948 467.653 166.45 468.539 165.564C469.425 164.678 469.924 163.477 469.925 162.224V75.1412C469.924 73.8884 469.425 72.6873 468.539 71.8014C467.653 70.9155 466.452 70.4172 465.2 70.4158H257.956Z" fill="#3F3D56"/>
<path d="M407.82 114.97H285.634C285.097 114.97 284.581 114.756 284.202 114.377C283.822 113.997 283.609 113.482 283.609 112.944C283.609 112.407 283.822 111.892 284.202 111.512C284.581 111.133 285.097 110.919 285.634 110.919H407.82C408.357 110.919 408.872 111.133 409.252 111.512C409.631 111.892 409.845 112.407 409.845 112.944C409.845 113.482 409.631 113.997 409.252 114.377C408.872 114.756 408.357 114.97 407.82 114.97Z" fill="white"/>
<path d="M407.82 131.846H285.634C285.097 131.846 284.581 131.633 284.202 131.253C283.822 130.873 283.609 130.358 283.609 129.821C283.609 129.284 283.822 128.769 284.202 128.389C284.581 128.009 285.097 127.796 285.634 127.796H407.82C408.357 127.796 408.872 128.009 409.252 128.389C409.631 128.769 409.845 129.284 409.845 129.821C409.845 130.358 409.631 130.873 409.252 131.253C408.872 131.633 408.357 131.846 407.82 131.846Z" fill="white"/>
<path d="M407.82 148.723H285.634C285.097 148.723 284.581 148.509 284.202 148.13C283.822 147.75 283.609 147.235 283.609 146.697C283.609 146.16 283.822 145.645 284.202 145.265C284.581 144.886 285.097 144.672 285.634 144.672H407.82C408.357 144.672 408.872 144.886 409.252 145.265C409.631 145.645 409.845 146.16 409.845 146.697C409.845 147.235 409.631 147.75 409.252 148.13C408.872 148.509 408.357 148.723 407.82 148.723Z" fill="white"/>
<path d="M470.405 91.6451C482.659 91.6451 492.592 81.7117 492.592 69.4582C492.592 57.2047 482.659 47.2712 470.405 47.2712C458.152 47.2712 448.218 57.2047 448.218 69.4582C448.218 81.7117 458.152 91.6451 470.405 91.6451Z" fill="#CCCCCC"/>
<path d="M470.497 76.1377L459.394 65.0346C459.035 64.6723 458.833 64.1822 458.834 63.6716C458.835 63.1611 459.038 62.6717 459.399 62.3106C459.76 61.9496 460.249 61.7464 460.76 61.7455C461.271 61.7446 461.761 61.9462 462.123 62.306L470.313 70.4959L496.447 40.6937C496.785 40.3097 497.261 40.0754 497.771 40.0423C498.281 40.0091 498.784 40.1798 499.168 40.5169C499.552 40.854 499.787 41.3299 499.821 41.8401C499.855 42.3502 499.685 42.8529 499.348 43.2377L470.497 76.1377Z" fill="#F6C90E"/>
<path d="M99.0096 52.1838C99.0096 52.1838 112.682 43.5486 125.635 53.623L134.27 143.573C134.27 143.573 101.888 168.759 93.9725 145.012L99.0096 52.1838Z" fill="#E6E6E6"/>
<path d="M95.6715 256.632L87.3952 256.631L84.639 224.826L95.6728 224.71L95.6715 256.632Z" fill="#FFB8B8"/>
<path d="M81.4839 254.267H97.4449V264.316H71.4344C71.4344 262.997 71.6943 261.69 72.1994 260.47C72.7044 259.251 73.4447 258.143 74.3778 257.21C75.311 256.277 76.4189 255.537 77.6381 255.032C78.8574 254.527 80.1642 254.267 81.4839 254.267Z" fill="#2F2E41"/>
<path d="M125.586 256.632L133.862 256.631L137.799 224.709L125.585 224.71L125.586 256.632Z" fill="#FFB8B8"/>
<path d="M149.823 264.316L123.813 264.317L123.812 254.267L139.773 254.267C142.439 254.267 144.995 255.325 146.88 257.21C148.764 259.094 149.823 261.65 149.823 264.316L149.823 264.316Z" fill="#2F2E41"/>
<path d="M77.7815 143.933L84.9775 251.153L96.1313 250.793L110.883 164.801L124.555 249.714L137.508 250.433L141.106 139.615C141.106 139.615 86.4167 127.382 77.7815 143.933Z" fill="#2F2E41"/>
<path d="M111.737 43.0818C120.894 43.0818 128.317 35.6586 128.317 26.5017C128.317 17.3447 120.894 9.92151 111.737 9.92151C102.58 9.92151 95.1569 17.3447 95.1569 26.5017C95.1569 35.6586 102.58 43.0818 111.737 43.0818Z" fill="#FFB8B8"/>
<path d="M101.528 48.9457L97.2107 51.8241C97.2107 51.8241 79.2207 51.8241 77.7815 62.6181C76.3423 73.4121 72.3845 147.171 76.7021 147.171C81.0196 147.171 81.7393 141.414 81.7393 141.414C81.7393 141.414 84.6177 142.134 90.3745 147.891C96.1312 153.647 99.7292 153.647 101.888 145.012C104.047 136.377 118.439 70.1739 104.766 57.9407L101.528 48.9457Z" fill="#2F2E41"/>
<path d="M122.397 48.9457L126.714 51.8241C126.714 51.8241 144.704 51.8241 146.143 62.6181C147.583 73.4121 151.54 147.171 147.223 147.171C142.905 147.171 142.186 141.414 142.186 141.414C142.186 141.414 139.307 142.134 133.55 147.891C127.794 153.647 124.196 153.647 122.037 145.012C119.878 136.377 105.486 70.1739 119.158 57.9407L122.397 48.9457Z" fill="#2F2E41"/>
<path d="M98.2843 36.6113C97.0519 35.3124 96.2338 33.6763 95.9339 31.9111C95.634 30.1459 95.8659 28.3313 96.6001 26.6983C97.3344 25.0653 98.5378 23.6876 100.057 22.7404C101.577 21.7932 103.344 21.3194 105.133 21.3792C107.426 21.4558 109.586 22.3941 111.774 23.0826C115.09 24.2107 118.628 24.5293 122.092 24.0118C125.577 23.4707 128.722 21.6138 130.879 18.8235C132.931 16.0041 133.57 12.0936 132.121 8.92228C130.448 5.26114 126.54 3.2438 122.864 1.60469C121.381 0.862428 119.797 0.342121 118.164 0.0604526C117.345 -0.0754894 116.507 -0.0409731 115.703 0.161841C114.898 0.364656 114.144 0.731401 113.488 1.23911C112.455 2.12768 111.849 3.4633 110.725 4.23337C109.459 5.1002 107.816 5.07745 106.289 5.23024C102.851 5.57438 99.5996 6.95704 96.9667 9.19432C94.3337 11.4316 92.4443 14.4174 91.5497 17.7547C90.6551 21.092 90.7977 24.6226 91.9586 27.8769C93.1194 31.1311 95.2436 33.9549 98.0484 35.9725" fill="#2F2E41"/>
<path d="M154.762 155.045C155.537 154.322 156.145 153.438 156.541 152.455C156.938 151.472 157.115 150.414 157.058 149.355C157.002 148.296 156.714 147.263 156.215 146.328C155.716 145.392 155.018 144.577 154.17 143.941L153.975 124.913L144.018 126.802L143.647 145.762C142.673 147.258 142.28 149.059 142.544 150.824C142.809 152.589 143.711 154.196 145.081 155.34C146.451 156.485 148.193 157.087 149.977 157.032C151.762 156.978 153.464 156.271 154.762 155.045Z" fill="#FFB8B8"/>
<path d="M85.2304 151.67C86.0059 150.947 86.6134 150.063 87.0103 149.08C87.4071 148.097 87.5835 147.038 87.5271 145.98C87.4707 144.921 87.1829 143.888 86.6839 142.952C86.1849 142.017 85.4869 141.202 84.639 140.566L84.444 121.538L74.4864 123.427L74.1163 142.387C73.1415 143.882 72.749 145.683 73.0133 147.449C73.2775 149.214 74.1802 150.821 75.5501 151.965C76.9201 153.109 78.6622 153.711 80.4463 153.657C82.2305 153.603 83.9327 152.896 85.2304 151.67Z" fill="#FFB8B8"/>
<path d="M143.625 61.5386L146.214 63.1791C146.214 63.1791 156.87 103.99 156.937 131.7C156.937 131.7 142.905 138.536 140.746 133.498C138.588 128.461 143.625 61.5386 143.625 61.5386Z" fill="#2F2E41"/>
<path d="M80.3001 61.5386L77.7111 63.1791C77.7111 63.1791 68.4376 103.99 70.9453 131.34C70.9453 131.34 85.6971 138.176 87.8559 133.139C90.0147 128.102 80.3001 61.5386 80.3001 61.5386Z" fill="#2F2E41"/>
</g>
<defs>
<clipPath id="clip0">
<rect width="500" height="265.464" fill="white"/>
</clipPath>
</defs>
</svg>
