<svg width="20" height="20" viewBox="0 0 20 20" fill="none" xmlns="http://www.w3.org/2000/svg">
<g clip-path="url(#clip0)">
<path d="M17.6562 6.09387L11.25 0.500122C10.5 -0.156128 9.40625 -0.156128 8.75 0.500122L2.34375 6.09387C1.9375 6.50012 1.6875 7.00012 1.6875 7.59387V18.0939C1.6875 19.1876 2.53125 20.0001 3.59375 20.0001H6.4375C7.53125 20.0001 8.34375 19.1564 8.34375 18.0939V14.4064C8.34375 14.2501 8.4375 14.1564 8.59375 14.1564H11.4375C11.5938 14.1564 11.6875 14.2501 11.6875 14.4064V18.0626C11.6875 19.1564 12.5312 19.9689 13.5938 19.9689H16.4375C17.5312 19.9689 18.3438 19.1251 18.3438 18.0626V7.59387C18.3438 7.00012 18.0938 6.50012 17.6562 6.09387ZM16.6562 18.0939C16.6562 18.2501 16.5625 18.3439 16.4062 18.3439H13.5625C13.4062 18.3439 13.3125 18.2501 13.3125 18.0939V14.4064C13.3125 13.3126 12.4688 12.5001 11.4062 12.5001H8.5625C7.46875 12.5001 6.65625 13.3439 6.65625 14.4064V18.0626C6.65625 18.2189 6.5625 18.3126 6.40625 18.3126H3.5625C3.40625 18.3126 3.3125 18.2189 3.3125 18.0626V7.59387C3.3125 7.50012 3.3125 7.43762 3.40625 7.43762L9.84375 1.84387C9.9375 1.75012 10.0938 1.75012 10.1875 1.84387L16.5625 7.43762C16.6562 7.43762 16.6562 7.53137 16.6562 7.59387V18.0939Z" fill="#F0F5F9"/>
</g>
<defs>
<clipPath id="clip0">
<rect width="20" height="20" fill="white"/>
</clipPath>
</defs>
</svg>
