<svg width="70" height="70" viewBox="0 0 70 70" fill="none" xmlns="http://www.w3.org/2000/svg">
<g clip-path="url(#clip0)">
<path d="M69.1252 5.57812C68.4689 4.8125 67.3752 4.375 66.2814 4.26562C58.8439 4.26562 16.5158 4.26562 3.71891 4.26562C2.62516 4.26562 1.64078 4.70312 0.875158 5.46875C0.218908 6.34375 -0.109217 7.32812 0.000157759 8.3125L5.57828 57.3125C5.68766 58.7344 6.78141 60.0469 8.31266 60.375L33.1408 65.625C33.6877 65.7344 34.2345 65.7344 34.7814 65.7344C35.3283 65.7344 35.8752 65.7344 36.422 65.625L61.2502 60.375C62.5627 60.0469 63.8752 58.9531 63.9845 57.4219L70.0002 8.3125C70.1095 7.32812 69.7814 6.34375 69.1252 5.57812ZM58.8439 55.2344L35.4377 60.1562C35.1095 60.2656 34.5627 60.2656 34.3439 60.1562L10.9377 55.2344L5.68766 9.73437C17.172 9.73437 53.4845 9.73437 64.3127 9.73437L58.8439 55.2344Z" fill="#747576"/>
<path d="M14.4376 15.8594L14.3282 15.9688C13.2344 17.1719 12.9063 18.5937 13.1251 20.0156L14.8751 28.3281C15.4219 30.8438 17.7188 32.5937 20.4532 32.5937H47.4688H47.5782L45.2813 42.3281C45.2813 42.3281 45.2813 42.3281 45.1719 42.3281L34.4532 45.7187C34.3438 45.7187 34.2344 45.7187 34.1251 45.7187L23.4063 42.3281C23.4063 42.3281 23.4063 42.3281 23.2969 42.3281L22.3126 37.2969C21.9844 35.7656 20.5626 34.8906 19.0313 35.2188C17.5001 35.5469 16.6251 36.9688 16.9532 38.5L18.0469 43.6406C18.4844 45.5 19.9063 47.0312 21.7657 47.6875L32.4844 51.0781C33.0313 51.2969 33.6876 51.4062 34.3438 51.4062C35.0001 51.4062 35.5469 51.2969 36.2032 51.0781L46.9219 47.6875C48.7813 47.1406 50.2032 45.6094 50.6407 43.8594L53.0469 33.5781C53.3751 32.0469 53.0469 30.5156 52.0626 29.3125C50.9688 28 49.3282 27.125 47.4688 27.125H20.4532C20.3438 27.125 20.2344 27.125 20.2344 27.125L18.8126 19.9063H52.7188C54.2501 19.9063 55.4532 18.7031 55.4532 17.1719C55.4532 15.6406 54.2501 14.4375 52.7188 14.4375H18.1563C16.7344 14.4375 15.4219 14.9844 14.4376 15.8594Z" fill="#747576"/>
</g>
<defs>
<clipPath id="clip0">
<rect width="70" height="70" fill="white"/>
</clipPath>
</defs>
</svg>
