<svg width="20" height="20" viewBox="0 0 20 20" fill="none" xmlns="http://www.w3.org/2000/svg">
<path d="M12.4999 18.3125H10.8437V4.15625C10.8437 3.25 10.0937 2.5 9.18744 2.5H7.49994C6.99994 2.5 6.65619 2.84375 6.65619 3.34375C6.65619 3.84375 6.99994 4.1875 7.49994 4.1875H9.15619V18.3125H7.49994C6.99994 18.3125 6.65619 18.6562 6.65619 19.1562C6.65619 19.6562 6.99994 20 7.49994 20H12.4999C12.9999 20 13.3437 19.6562 13.3437 19.1562C13.3437 18.625 12.9999 18.3125 12.4999 18.3125Z" fill="#F0F5F9"/>
<path d="M9.99994 1.6875C10.4659 1.6875 10.8437 1.30974 10.8437 0.84375C10.8437 0.37776 10.4659 0 9.99994 0C9.53395 0 9.15619 0.37776 9.15619 0.84375C9.15619 1.30974 9.53395 1.6875 9.99994 1.6875Z" fill="#F0F5F9"/>
</svg>
