<svg width="20" height="20" viewBox="0 0 20 20" fill="none" xmlns="http://www.w3.org/2000/svg">
<path d="M19.9375 5.875C19.875 4.8125 19.7188 4.09375 19.4688 3.4375C19.2188 2.78125 18.875 2.21875 18.3125 1.65625C17.75 1.09375 17.2188 0.78125 16.5625 0.53125C15.9375 0.28125 15.1875 0.125 14.125 0.0625C13.0625 0 12.7188 0 10 0C7.28125 0 6.9375 0 5.875 0.0625C4.8125 0.125 4.09375 0.28125 3.4375 0.53125C2.78125 0.78125 2.21875 1.125 1.6875 1.6875C1.15625 2.25 0.78125 2.78125 0.53125 3.4375C0.28125 4.0625 0.125 4.8125 0.0625 5.875C0 6.9375 0 7.28125 0 10C0 12.7188 0 13.0625 0.0625 14.125C0.125 15.1875 0.28125 15.9062 0.53125 16.5625C0.78125 17.2188 1.125 17.7812 1.6875 18.3438C2.25 18.9062 2.8125 19.25 3.46875 19.5C4.09375 19.75 4.84375 19.9062 5.90625 19.9688C6.9375 20 7.28125 20 10 20C12.7188 20 13.0625 20 14.125 19.9375C15.1875 19.875 15.9062 19.7188 16.5625 19.4688C17.2188 19.2188 17.7812 18.875 18.3438 18.3125C18.9062 17.75 19.25 17.1875 19.5 16.5312C19.75 15.9062 19.9062 15.1562 19.9688 14.0938C20 13.0625 20 12.7188 20 10C20 7.28125 20 6.9375 19.9375 5.875ZM18.125 14.0312C18.0938 15 17.9062 15.5312 17.7812 15.875C17.5938 16.3438 17.375 16.6875 17.0312 17.0312C16.6875 17.375 16.3438 17.5938 15.875 17.7812C15.5312 17.9062 15 18.0938 14.0312 18.125C12.9688 18.1875 12.6562 18.1875 10 18.1875C7.34375 18.1875 7 18.1875 5.96875 18.125C5 18.0938 4.46875 17.9062 4.125 17.7812C3.65625 17.5938 3.3125 17.375 2.96875 17.0312C2.625 16.6875 2.40625 16.3438 2.21875 15.875C2.09375 15.5312 1.90625 15 1.875 14.0312C1.8125 13 1.8125 12.6875 1.8125 10C1.8125 7.3125 1.8125 7 1.875 5.96875C1.90625 5 2.09375 4.46875 2.21875 4.125C2.40625 3.65625 2.625 3.3125 2.96875 2.96875C3.3125 2.625 3.65625 2.40625 4.125 2.21875C4.46875 2.09375 5 1.90625 5.96875 1.875C7.03125 1.8125 7.34375 1.8125 10 1.8125C12.6562 1.8125 13 1.8125 14.0312 1.875C15 1.90625 15.5312 2.09375 15.875 2.21875C16.3438 2.40625 16.6875 2.625 17.0312 2.96875C17.375 3.3125 17.5938 3.65625 17.7812 4.125C17.9062 4.46875 18.0938 5 18.125 5.96875C18.1875 7.03125 18.1875 7.34375 18.1875 10C18.1875 12.6562 18.1875 13 18.125 14.0312Z" fill="#747576"/>
<path d="M10 4.875C7.15627 4.875 4.87502 7.1875 4.87502 10C4.87502 12.8438 7.18752 15.125 10 15.125C12.8125 15.125 15.125 12.8438 15.125 10C15.125 7.15625 12.8438 4.875 10 4.875ZM10 13.3438C8.15627 13.3438 6.65627 11.8438 6.65627 10C6.65627 8.15625 8.15627 6.65625 10 6.65625C11.8438 6.65625 13.3438 8.15625 13.3438 10C13.3438 11.8438 11.8438 13.3438 10 13.3438Z" fill="#747576"/>
<path d="M15.3437 5.84375C15.9996 5.84375 16.5312 5.31209 16.5312 4.65625C16.5312 4.00041 15.9996 3.46875 15.3437 3.46875C14.6879 3.46875 14.1562 4.00041 14.1562 4.65625C14.1562 5.31209 14.6879 5.84375 15.3437 5.84375Z" fill="#747576"/>
</svg>
