<svg width="70" height="70" viewBox="0 0 70 70" fill="none" xmlns="http://www.w3.org/2000/svg">
<path d="M0 0V70H70V0H0ZM38.0625 54.5781C38.0625 61.3594 34.0156 64.5312 28.2188 64.5312C22.9687 64.5312 19.9062 61.7969 18.375 58.5156L23.7344 55.2344C24.7188 57.0938 25.7031 58.625 28 58.625C30.1875 58.625 31.5 57.75 31.5 54.4688V32.1562H38.0625V54.5781ZM53.7031 64.5312C47.5781 64.5312 43.6406 61.5781 41.6719 57.8594L47.0312 54.6875C48.4531 56.9844 50.3125 58.7344 53.4844 58.7344C56.2188 58.7344 57.9688 57.4219 57.9688 55.4531C57.9688 53.1562 56.2188 52.3906 53.1562 51.0781L51.5156 50.4219C46.8125 48.4531 43.6406 45.8281 43.6406 40.4688C43.6406 35.5469 47.3594 31.8281 53.2656 31.8281C57.4219 31.8281 60.4844 33.25 62.5625 37.0781L57.4219 40.3594C56.3281 38.3906 55.125 37.5156 53.1562 37.5156C51.1875 37.5156 49.9844 38.7188 49.9844 40.3594C49.9844 42.3281 51.1875 43.0938 54.0312 44.4062L55.6719 45.0625C61.25 47.4688 64.4219 49.875 64.4219 55.4531C64.5312 61.25 59.9375 64.5312 53.7031 64.5312Z" fill="#747576"/>
</svg>
