<svg width="20" height="20" viewBox="0 0 20 20" fill="none" xmlns="http://www.w3.org/2000/svg">
<g clip-path="url(#clip0)">
<path d="M3.56247 1.90613L1.99997 0.249878C1.65622 -0.0938721 1.15622 -0.0938721 0.843719 0.249878C0.531219 0.593628 0.499969 1.09363 0.843719 1.40613L1.84372 2.49988L0.343719 4.06238C-3.05101e-05 4.40613 -3.05101e-05 4.90613 0.343719 5.21863C0.499969 5.37488 0.687469 5.46863 0.937469 5.46863C1.18747 5.46863 1.34372 5.37488 1.53122 5.21863L2.90622 3.74988L4.56247 5.49988L2.31247 7.81238C1.96872 8.15613 1.96872 8.65613 2.31247 8.96863C2.46872 9.12488 2.65622 9.21863 2.90622 9.21863C3.15622 9.21863 3.31247 9.12488 3.49997 8.96863L5.65622 6.71863L10.2187 11.5311L9.81247 11.9374C8.81247 12.9374 8.81247 14.4999 9.81247 15.4999L13.5625 19.2499C14.0312 19.7499 14.6875 19.9999 15.2812 19.9999C15.9375 19.9999 16.5312 19.7499 17.0312 19.2499L19.0312 17.2499C19.5312 16.7499 19.9062 16.0936 19.9062 15.4374C19.9062 14.4374 19.75 14.0311 19.25 13.6249L15.5 9.87488C14.5 8.87488 12.9375 8.87488 11.9375 9.87488L11.5312 10.2811L3.56247 1.90613ZM18.0937 16.0311L16.0937 18.0311C15.75 18.3749 15.25 18.3749 14.9375 18.0311L11.1875 14.2811C10.8437 13.9374 10.8437 13.4374 11.1875 13.1249L12.1875 12.1249L13.1875 11.1249C13.3437 10.9686 13.5937 10.8749 13.7812 10.8749C14.0312 10.8749 14.1875 10.9686 14.375 11.1249L18.125 14.8749C18.1562 14.9061 18.1875 14.9374 18.1875 14.9686C18.375 15.2186 18.375 15.5936 18.1875 15.8749C18.1875 15.9374 18.125 15.9686 18.0937 16.0311Z" fill="#747576"/>
</g>
<defs>
<clipPath id="clip0">
<rect width="20" height="20" fill="white"/>
</clipPath>
</defs>
</svg>
