<svg width="20" height="20" viewBox="0 0 20 20" fill="none" xmlns="http://www.w3.org/2000/svg">
<path d="M18.5312 0H1.46875C0.65625 0 0 0.65625 0 1.4375V18.5625C0 19.3438 0.65625 20 1.46875 20H18.5C19.3125 20 19.9688 19.3438 19.9688 18.5625V1.4375C20 0.65625 19.3438 0 18.5312 0ZM5.9375 17.0312H2.96875V7.5H5.9375V17.0312ZM4.4375 6.1875C3.5 6.1875 2.71875 5.40625 2.71875 4.46875C2.71875 3.53125 3.5 2.75 4.4375 2.75C5.375 2.75 6.15625 3.53125 6.15625 4.46875C6.15625 5.4375 5.40625 6.1875 4.4375 6.1875ZM17.0312 17.0312H14.0625V12.4062C14.0625 11.3125 14.0312 9.875 12.5312 9.875C11 9.875 10.75 11.0938 10.75 12.3125V17.0312H7.78125V7.5H10.625V8.8125H10.6562C11.0625 8.0625 12.0312 7.28125 13.4688 7.28125C16.4688 7.28125 17.0312 9.25 17.0312 11.8438V17.0312Z" fill="#747576"/>
</svg>
