<svg width="500" height="317" viewBox="0 0 500 317" fill="none" xmlns="http://www.w3.org/2000/svg">
<g clip-path="url(#clip0)">
<path d="M496.246 207.43H303.218C302.223 207.429 301.268 207.033 300.565 206.329C299.861 205.625 299.465 204.671 299.464 203.676V3.75358C299.465 2.75841 299.861 1.80432 300.565 1.10063C301.268 0.396933 302.223 0.00111191 303.218 0H496.246C497.242 0.00111018 498.196 0.396933 498.899 1.10063C499.603 1.80432 499.999 2.75841 500 3.75358V203.676C499.999 204.671 499.603 205.625 498.899 206.329C498.196 207.033 497.242 207.429 496.246 207.43ZM303.218 1.3087C302.569 1.30945 301.948 1.56727 301.49 2.02561C301.031 2.48395 300.774 3.10539 300.773 3.75358V203.676C300.774 204.324 301.031 204.946 301.49 205.404C301.948 205.862 302.569 206.12 303.218 206.121H496.246C496.895 206.12 497.516 205.862 497.974 205.404C498.433 204.946 498.691 204.324 498.691 203.676V3.75358C498.691 3.10539 498.433 2.48395 497.974 2.02561C497.516 1.56727 496.895 1.30945 496.246 1.3087H303.218Z" fill="#3F3D56"/>
<path d="M436.116 84.0231C440.429 91.9884 442.008 101.149 440.612 110.099C439.215 119.049 434.92 127.293 428.385 133.565C421.85 139.838 413.437 143.792 404.438 144.821C395.438 145.85 386.35 143.897 378.568 139.262C370.786 134.627 364.74 127.565 361.359 119.162C357.978 110.759 357.448 101.478 359.852 92.7443C362.255 84.0109 367.458 76.3077 374.662 70.8173C381.867 65.3269 390.674 62.3528 399.732 62.3516C400.06 62.3516 400.387 62.3564 400.714 62.364L400.276 44.6929C400.095 44.6913 399.914 44.686 399.732 44.686C386.699 44.6898 374.035 49.0077 363.714 56.9661C353.393 64.9244 345.997 76.0754 342.681 88.6789C339.364 101.282 340.312 114.629 345.378 126.637C350.444 138.645 359.343 148.638 370.686 155.056C382.028 161.475 395.176 163.958 408.079 162.119C420.981 160.279 432.911 154.221 442.008 144.888C451.105 135.555 456.856 123.473 458.364 110.528C459.873 97.5832 457.054 84.5029 450.347 73.3285L436.116 84.0231Z" fill="#F6C90E"/>
<path d="M436.116 84.023L450.346 73.3285C445.15 64.6687 437.817 57.488 429.05 52.4741C420.283 47.4601 410.375 44.7809 400.276 44.6929L400.714 62.364C408 62.5347 415.111 64.6278 421.328 68.4313C427.545 72.2348 432.647 77.6136 436.116 84.023Z" fill="#E6E6E6"/>
<path d="M429.78 154.384L429.05 155.107L449.778 176.031L450.509 175.308L429.78 154.384Z" fill="#3F3D56"/>
<path d="M443.088 26.2983L428.68 51.9872L429.576 52.4902L443.985 26.8013L443.088 26.2983Z" fill="#3F3D56"/>
<path d="M465.655 183.752H435.064C434.52 183.752 433.999 183.535 433.614 183.151C433.229 182.767 433.013 182.245 433.012 181.702V177.393C433.013 176.85 433.229 176.328 433.614 175.944C433.999 175.56 434.52 175.343 435.064 175.343H465.655C466.198 175.343 466.72 175.56 467.104 175.944C467.489 176.328 467.705 176.85 467.706 177.393V181.702C467.705 182.245 467.489 182.767 467.104 183.151C466.72 183.535 466.198 183.752 465.655 183.752Z" fill="#F6C90E"/>
<path d="M457.899 26.9167H427.308C426.764 26.916 426.243 26.6998 425.859 26.3154C425.474 25.9309 425.258 25.4098 425.257 24.8661V20.5575C425.258 20.0139 425.474 19.4927 425.859 19.1083C426.243 18.7238 426.764 18.5076 427.308 18.5069H457.899C458.443 18.5076 458.964 18.7238 459.349 19.1083C459.733 19.4927 459.949 20.0139 459.95 20.5575V24.8661C459.949 25.4098 459.733 25.931 459.349 26.3154C458.964 26.6998 458.443 26.916 457.899 26.9167Z" fill="#E6E6E6"/>
<path d="M268.608 95.4521H50.4669C49.5189 95.451 48.6099 95.0739 47.9396 94.4035C47.2692 93.7331 46.8921 92.8242 46.891 91.8761V4.23029C46.8921 3.28223 47.2692 2.3733 47.9396 1.70291C48.6099 1.03253 49.5189 0.655433 50.4669 0.654358H268.608C269.556 0.655466 270.465 1.03257 271.135 1.70295C271.805 2.37333 272.183 3.28225 272.184 4.23029V91.8761C272.183 92.8242 271.805 93.7331 271.135 94.4035C270.465 95.0738 269.556 95.451 268.608 95.4521ZM50.4669 1.96306C49.8658 1.96371 49.2895 2.20279 48.8645 2.62784C48.4394 3.05289 48.2003 3.62919 48.1997 4.23029V91.8761C48.2003 92.4772 48.4394 93.0535 48.8645 93.4786C49.2895 93.9036 49.8658 94.1427 50.4669 94.1434H268.608C269.209 94.1427 269.785 93.9036 270.21 93.4785C270.635 93.0535 270.874 92.4772 270.875 91.8761V4.23029C270.874 3.62921 270.635 3.05293 270.21 2.62789C269.785 2.20285 269.209 1.96375 268.608 1.96306H50.4669Z" fill="#3F3D56"/>
<path d="M135.501 73.7003H114.366C113.826 73.6993 113.304 73.5066 112.892 73.1566C112.481 72.8066 112.207 72.3219 112.12 71.789C110.741 62.8348 110.741 53.7224 112.12 44.7682C112.207 44.2352 112.481 43.7506 112.892 43.4006C113.304 43.0506 113.826 42.8579 114.366 42.8569H135.501C135.844 42.8558 136.182 42.9329 136.49 43.0822C136.798 43.2315 137.068 43.4492 137.28 43.7186C137.496 43.9919 137.647 44.3108 137.721 44.6511C137.795 44.9915 137.791 45.3442 137.708 45.6826C135.731 53.9635 135.731 62.5936 137.708 70.8745C137.791 71.2129 137.795 71.5657 137.721 71.906C137.647 72.2464 137.496 72.5653 137.28 72.8385C137.068 73.108 136.798 73.3256 136.49 73.475C136.182 73.6243 135.844 73.7014 135.501 73.7003Z" fill="#E6E6E6"/>
<path d="M206.266 73.7003H185.131C184.591 73.6992 184.069 73.5065 183.657 73.1565C183.246 72.8065 182.972 72.3219 182.885 71.789C181.506 62.8348 181.506 53.7224 182.885 44.7682C182.972 44.2353 183.246 43.7507 183.657 43.4007C184.069 43.0507 184.591 42.858 185.131 42.8569H206.266C206.609 42.8558 206.947 42.9329 207.255 43.0823C207.563 43.2317 207.834 43.4494 208.045 43.7189C208.261 43.9921 208.412 44.311 208.486 44.6513C208.56 44.9916 208.555 45.3443 208.473 45.6826C206.496 53.9636 206.496 62.5936 208.473 70.8746C208.555 71.2129 208.56 71.5656 208.486 71.9059C208.412 72.2462 208.261 72.5651 208.045 72.8383C207.833 73.1078 207.563 73.3255 207.255 73.4749C206.947 73.6243 206.609 73.7014 206.266 73.7003Z" fill="#E6E6E6"/>
<path d="M99.5516 53.2496H78.4163C77.8763 53.2485 77.3541 53.0559 76.9428 52.7059C76.5315 52.3558 76.2578 51.8712 76.1704 51.3383C74.7917 42.3841 74.7917 33.2716 76.1704 24.3175C76.2578 23.7845 76.5315 23.2999 76.9428 22.9499C77.3541 22.5998 77.8763 22.4072 78.4163 22.4062H99.5516C99.8941 22.4051 100.232 22.4821 100.541 22.6315C100.849 22.7808 101.119 22.9985 101.33 23.2679C101.546 23.5411 101.697 23.8601 101.771 24.2004C101.845 24.5408 101.841 24.8935 101.758 25.2319C99.7811 33.5128 99.781 42.1429 101.758 50.4238C101.841 50.7622 101.845 51.115 101.771 51.4553C101.697 51.7956 101.546 52.1146 101.33 52.3878C101.119 52.6573 100.849 52.8749 100.541 53.0243C100.232 53.1736 99.8941 53.2506 99.5516 53.2496Z" fill="#F6C90E"/>
<path d="M171.029 53.2495H149.893C149.551 53.2506 149.212 53.1736 148.904 53.0242C148.596 52.8748 148.326 52.657 148.115 52.3875C147.899 52.1143 147.748 51.7954 147.674 51.4551C147.599 51.1148 147.604 50.7621 147.687 50.4238C149.664 42.1429 149.664 33.5128 147.687 25.2319C147.604 24.8936 147.599 24.5409 147.674 24.2006C147.748 23.8603 147.899 23.5414 148.115 23.2682C148.326 22.9987 148.596 22.7809 148.904 22.6315C149.212 22.4822 149.551 22.4051 149.893 22.4062H171.029C171.569 22.4072 172.091 22.5998 172.502 22.9499C172.913 23.2999 173.187 23.7845 173.274 24.3175C174.653 33.2716 174.653 42.3841 173.274 51.3382C173.187 51.8712 172.913 52.3558 172.502 52.7058C172.091 53.0558 171.569 53.2485 171.029 53.2495Z" fill="#F6C90E"/>
<path d="M240.658 53.2495H219.523C219.18 53.2506 218.842 53.1736 218.534 53.0242C218.226 52.8748 217.956 52.657 217.744 52.3875C217.528 52.1143 217.378 51.7954 217.303 51.4551C217.229 51.1148 217.234 50.7621 217.317 50.4238C219.294 42.1429 219.293 33.5128 217.316 25.2319C217.234 24.8936 217.229 24.5409 217.303 24.2006C217.378 23.8603 217.528 23.5414 217.744 23.2682C217.956 22.9987 218.226 22.7809 218.534 22.6315C218.842 22.4822 219.18 22.4051 219.523 22.4062H240.658C241.198 22.4072 241.721 22.5999 242.132 22.9499C242.543 23.2999 242.817 23.7845 242.904 24.3175C244.283 33.2716 244.283 42.3841 242.904 51.3382C242.817 51.8712 242.543 52.3558 242.132 52.7058C241.721 53.0558 241.198 53.2485 240.658 53.2495Z" fill="#FF6584"/>
<path d="M122.977 209.043C121.97 208.838 121.02 208.415 120.195 207.803C119.369 207.191 118.688 206.405 118.198 205.502C117.709 204.598 117.424 203.598 117.363 202.572C117.302 201.546 117.467 200.519 117.846 199.564L88.8352 137.275L103.552 133.139L127.466 195.744C129.029 196.487 130.265 197.777 130.94 199.37C131.615 200.963 131.682 202.748 131.129 204.388C130.576 206.027 129.44 207.406 127.938 208.264C126.435 209.122 124.67 209.4 122.977 209.043Z" fill="#A0616A"/>
<path d="M66.7956 308.438H74.818L78.6342 277.495H66.7943L66.7956 308.438Z" fill="#A0616A"/>
<path d="M90.2894 315.886L65.0768 315.888L65.0763 306.146L80.5477 306.146C83.1313 306.146 85.609 307.172 87.436 308.998C89.2629 310.825 90.2893 313.303 90.2894 315.886Z" fill="#2F2E41"/>
<path d="M25.097 299.79L32.4709 302.949L48.1636 276.009L37.2798 271.347L25.097 299.79Z" fill="#A0616A"/>
<path d="M43.76 315.888L20.5838 305.961L24.4191 297.006L38.6409 303.098C41.0158 304.115 42.8893 306.034 43.8493 308.432C44.8093 310.831 44.7772 313.513 43.76 315.888Z" fill="#2F2E41"/>
<path d="M86.63 108.054C95.5061 108.054 102.702 100.858 102.702 91.982C102.702 83.1059 95.5061 75.9104 86.63 75.9104C77.754 75.9104 70.5585 83.1059 70.5585 91.982C70.5585 100.858 77.754 108.054 86.63 108.054Z" fill="#A0616A"/>
<path d="M75.0191 300.873L66.1879 299.191C65.462 299.056 64.8136 298.653 64.3726 298.061C63.9315 297.469 63.7305 296.732 63.8097 295.998L69.6658 238.9C69.7217 238.355 69.5805 237.809 69.2679 237.359C68.9553 236.909 68.4919 236.587 67.9618 236.449C67.4317 236.312 66.8699 236.369 66.3783 236.61C65.8867 236.852 65.4979 237.261 65.2823 237.765L39.7159 297.42C39.5622 297.778 39.3388 298.103 39.0588 298.374C38.7788 298.645 38.4476 298.858 38.0845 299.001C37.7215 299.143 37.3338 299.212 36.9439 299.203C36.554 299.195 36.1698 299.109 35.8134 298.95L28.6307 295.758C27.9601 295.463 27.4243 294.927 27.1286 294.257C26.833 293.587 26.7988 292.83 27.033 292.136L44.5187 239.678C44.5679 239.531 44.602 239.379 44.6203 239.224L50.2962 191.295C50.3581 190.771 50.5592 190.274 50.8786 189.855C51.198 189.436 51.624 189.111 52.1121 188.912L70.0338 181.632C70.564 181.417 71.1455 181.36 71.7072 181.47C72.2688 181.58 72.7864 181.851 73.1965 182.25L95.8176 204.276C96.1702 204.618 96.4312 205.043 96.577 205.511C96.7227 205.98 96.7484 206.478 96.6517 206.959L78.4583 298.554C78.3236 299.222 77.9623 299.822 77.4356 300.255C76.9089 300.687 76.2492 300.923 75.568 300.925C75.3839 300.925 75.2001 300.908 75.0191 300.873Z" fill="#2F2E41"/>
<path d="M64.9511 193.938C61.8202 190.312 59.5353 188.667 57.9726 188.926C56.422 189.177 55.5275 191.343 54.5803 193.637C53.2876 196.767 51.8223 200.316 48.2106 200.593C47.6483 200.689 47.0702 200.626 46.5423 200.41C46.0144 200.193 45.558 199.833 45.2253 199.369C42.3844 195.144 49.1985 181.162 49.8211 179.906L49.5016 113.777C49.4972 113.243 49.6382 112.719 49.9094 112.259C50.1807 111.8 50.572 111.423 51.0413 111.169C69.7667 101.071 95.0511 118.633 99.9293 122.257C100.32 122.546 100.632 122.927 100.839 123.366C101.046 123.806 101.14 124.29 101.114 124.775C100.525 135.85 97.5891 191.728 97.5891 204.193C97.5891 207.644 96.3989 209.836 94.0515 210.709C93.259 210.99 92.4225 211.128 91.5817 211.114C84.4193 211.114 72.6886 202.897 64.9511 193.938Z" fill="#CCCCCC"/>
<path d="M91.0833 161.827C90.6918 161.573 90.3671 161.228 90.1368 160.822C89.9064 160.416 89.7771 159.96 89.7598 159.493L88.4913 129.874C88.4132 128.05 88.9865 126.258 90.1087 124.819C91.2308 123.379 92.8286 122.386 94.6162 122.017C96.4037 121.647 98.2643 121.926 99.865 122.803C101.466 123.68 102.702 125.099 103.353 126.804L112.846 151.68C113.123 152.41 113.1 153.22 112.781 153.932C112.462 154.645 111.874 155.202 111.145 155.481L93.7514 162.118C93.3158 162.287 92.8461 162.349 92.3818 162.298C91.9175 162.247 91.4722 162.086 91.0833 161.827V161.827Z" fill="#CCCCCC"/>
<path d="M46.8836 208.108C46.0308 207.535 45.3143 206.781 44.7843 205.901C44.2543 205.02 43.9238 204.034 43.8162 203.012C43.7085 201.99 43.8262 200.957 44.161 199.985C44.4958 199.014 45.0395 198.127 45.754 197.389L42.6849 128.744L57.8671 130.532L56.1047 197.525C57.2661 198.808 57.9168 200.472 57.9334 202.202C57.95 203.932 57.3314 205.608 56.1948 206.912C55.0581 208.217 53.4825 209.059 51.7664 209.28C50.0502 209.5 48.3129 209.083 46.8835 208.108H46.8836Z" fill="#A0616A"/>
<path d="M36.3412 147.023C36.066 146.646 35.8855 146.208 35.8151 145.746C35.7446 145.284 35.7862 144.813 35.9363 144.37L45.3117 116.245C45.8888 114.513 47.0633 113.043 48.625 112.098C50.1867 111.154 52.0337 110.795 53.8355 111.088C55.6372 111.38 57.2761 112.304 58.4589 113.694C59.6416 115.084 60.2911 116.85 60.291 118.676V145.301C60.2901 146.082 59.9796 146.831 59.4276 147.383C58.8755 147.935 58.1271 148.245 57.3464 148.246H38.73C38.2629 148.249 37.8021 148.139 37.3864 147.926C36.9706 147.713 36.6122 147.403 36.3412 147.023Z" fill="#CCCCCC"/>
<path d="M76.2513 102.792C75.6497 103.263 74.8982 103.502 74.1348 103.464C73.3713 103.426 72.6473 103.114 72.0955 102.585C68.651 99.3649 65.7441 95.515 64.2729 91.0562C62.5871 85.9471 63.0178 79.9631 66.246 75.6593C68.9751 72.021 73.2947 69.9655 77.5495 68.3587C79.2105 67.6563 80.9653 67.2006 82.7582 67.006C84.5692 66.8182 86.3838 67.3277 87.8323 68.4308C88.5382 68.9945 89.0579 69.7578 89.3235 70.6212C89.5891 71.4847 89.5883 72.4081 89.3212 73.2711C91.5032 71.2893 94.1653 69.9121 97.0435 69.2762C98.8653 68.7932 100.791 68.873 102.566 69.5051C105.034 70.5198 106.637 72.9984 107.375 75.5621C107.986 77.5178 108.035 79.6056 107.518 81.5881C107.252 82.5737 106.783 83.4925 106.14 84.2852C105.496 85.0778 104.694 85.7267 103.784 86.1897C101.527 87.2533 98.8478 86.8518 96.4873 86.0422C94.1268 85.2325 91.8888 84.0377 89.4474 83.5212C87.0059 83.0047 84.187 83.3061 82.4595 85.1069C81.2429 86.3751 80.7639 88.1591 80.3287 89.8617L78.0655 98.7177C77.8157 100.008 77.3378 101.243 76.6542 102.365C76.5398 102.525 76.4042 102.668 76.2513 102.792Z" fill="#2F2E41"/>
<path d="M141.43 230.579H120.295C119.755 230.578 119.233 230.385 118.821 230.035C118.41 229.685 118.136 229.201 118.049 228.668C116.67 219.714 116.67 210.601 118.049 201.647C118.136 201.114 118.41 200.629 118.821 200.279C119.233 199.929 119.755 199.737 120.295 199.736H141.43C141.773 199.735 142.111 199.812 142.419 199.961C142.727 200.11 142.998 200.328 143.209 200.598C143.425 200.871 143.576 201.19 143.65 201.53C143.724 201.87 143.719 202.223 143.637 202.561C141.66 210.842 141.66 219.472 143.637 227.753C143.719 228.092 143.724 228.444 143.65 228.785C143.576 229.125 143.425 229.444 143.209 229.717C142.998 229.987 142.727 230.204 142.419 230.354C142.111 230.503 141.773 230.58 141.43 230.579Z" fill="#F6C90E"/>
<path d="M106.005 316.707H0.654352C0.480807 316.707 0.31437 316.638 0.191655 316.515C0.06894 316.392 0 316.226 0 316.052C0 315.879 0.06894 315.712 0.191655 315.59C0.31437 315.467 0.480807 315.398 0.654352 315.398H106.005C106.179 315.398 106.345 315.467 106.468 315.59C106.59 315.712 106.659 315.879 106.659 316.052C106.659 316.226 106.59 316.392 106.468 316.515C106.345 316.638 106.179 316.707 106.005 316.707Z" fill="#3F3D56"/>
</g>
<defs>
<clipPath id="clip0">
<rect width="500" height="316.707" fill="white"/>
</clipPath>
</defs>
</svg>
