<svg width="20" height="20" viewBox="0 0 20 20" fill="none" xmlns="http://www.w3.org/2000/svg">
<path d="M8.73688 2.49992C8.65629 2.5033 8.58014 2.53772 8.52434 2.59596C8.46855 2.6542 8.43743 2.73176 8.4375 2.81242V7.03117C8.4375 7.15549 8.38811 7.27472 8.30021 7.36262C8.2123 7.45053 8.09307 7.49992 7.96875 7.49992C7.84443 7.49992 7.7252 7.45053 7.63729 7.36262C7.54939 7.27472 7.5 7.15549 7.5 7.03117V2.81242C7.5 2.72954 7.46708 2.65005 7.40847 2.59145C7.34987 2.53284 7.27038 2.49992 7.1875 2.49992C7.10462 2.49992 7.02513 2.53284 6.96653 2.59145C6.90792 2.65005 6.875 2.72954 6.875 2.81242V7.03117C6.875 7.15549 6.82561 7.27472 6.73771 7.36262C6.6498 7.45053 6.53057 7.49992 6.40625 7.49992C6.28193 7.49992 6.1627 7.45053 6.07479 7.36262C5.98689 7.27472 5.9375 7.15549 5.9375 7.03117V2.81242C5.93757 2.73176 5.90645 2.6542 5.85066 2.59596C5.79486 2.53772 5.71871 2.5033 5.63812 2.49992C5.46937 2.50242 5.3275 2.61867 5.31375 2.78617C5.31062 2.82429 5 6.57117 5 8.43742C5 9.11054 5.30562 9.48492 5.60125 9.84679C5.935 10.2555 6.61437 10.638 6.5625 11.5624C6.51 12.4868 6.25 16.5624 6.25 16.5624C6.25 17.0793 6.67062 17.4999 7.1875 17.4999C7.70438 17.4999 8.125 17.0793 8.125 16.5624C8.125 16.5624 7.8775 12.4999 7.8125 11.5624C7.7475 10.6249 8.44 10.2555 8.77375 9.84679C9.06938 9.48492 9.375 9.11054 9.375 8.43742C9.375 6.57117 9.06437 2.82429 9.06125 2.78617C9.05254 2.70663 9.01446 2.6332 8.95447 2.58026C8.89447 2.52731 8.81688 2.49866 8.73688 2.49992ZM15 2.81242V16.5624C15 17.0793 14.5794 17.4999 14.0625 17.4999C13.5369 17.4999 13.125 17.088 13.125 16.5624C13.125 15.7462 13.2875 15.0974 13.445 14.4699C13.6019 13.8449 13.75 13.2549 13.75 12.4999C13.75 11.8855 13.3687 11.5618 12.9275 11.1868C12.4344 10.768 11.875 10.2937 11.875 9.37492C11.875 8.24367 12.3637 2.49992 14.6875 2.49992C14.7704 2.49992 14.8499 2.53284 14.9085 2.59145C14.9671 2.65005 15 2.72954 15 2.81242Z" fill="#747576"/>
</svg>
