<svg width="564" height="300" viewBox="0 0 564 300" fill="none" xmlns="http://www.w3.org/2000/svg">
<g clip-path="url(#clip0)">
<path opacity="0.1" d="M520.497 237.225C519.869 238.578 519.243 239.914 518.619 241.231C517.644 243.277 516.683 245.284 515.733 247.251C515.311 248.122 514.889 248.978 514.477 249.833C509.822 259.345 505.475 267.757 501.783 274.676C498.433 280.944 493.458 286.197 487.381 289.883C481.304 293.569 474.347 295.552 467.239 295.626L385.144 296.519H384.277L377.24 296.595L371.22 296.66L352.76 296.86H352.013L342.615 296.963H342.328L284.404 297.591L232.699 298.132L226.685 298.197L189.332 298.603H189.288L165.063 298.863H164.803L88.2022 299.691L65.2868 299.94C60.3966 299.996 55.5271 299.298 50.849 297.873C42.7082 295.413 35.3921 290.781 29.6876 284.474C19.8459 273.631 12.673 260.98 7.85498 247.251C7.15844 245.27 6.50882 243.263 5.90612 241.231C-10.7729 184.849 9.56024 112.108 46.1555 63.43C47.6893 61.3945 49.2484 59.4096 50.8328 57.4752L50.8707 57.4319C62.1253 43.6166 74.7442 32.075 88.1859 23.8682C112.005 9.30042 138.396 5.19699 164.354 17.4261C186.316 27.7767 206.823 32.6434 226.701 33.9643C228.71 34.0943 230.718 34.1917 232.716 34.2512C278.313 35.6858 321.048 19.2558 371.231 8.6508C373.228 8.22854 375.231 7.8117 377.251 7.41652C413.05 0.292351 452.764 -3.46462 499.991 4.43368C504.898 5.23524 509.739 6.39318 514.477 7.89832C516.56 8.56959 518.566 9.2914 520.497 10.0637C543.039 19.2342 555.333 36.1784 560.557 57.4102C561.052 59.3807 561.479 61.3855 561.84 63.4246C571.103 114.496 543.976 186.939 520.497 237.225Z" fill="#F6C90E"/>
<g opacity="0.1">
<path opacity="0.1" d="M88.1859 23.8682V299.751L65.2706 300C60.3804 300.055 55.5108 299.358 50.8328 297.932V57.4319H50.8707C62.1253 43.6004 74.7442 32.0588 88.1859 23.8682Z" fill="#F6C90E"/>
<path opacity="0.1" d="M561.867 63.43H46.1555C47.6893 61.3946 49.2484 59.4096 50.8328 57.4752V57.4319H560.584C561.079 59.3916 561.506 61.3909 561.867 63.43Z" fill="#F6C90E"/>
<path opacity="0.1" d="M520.497 10.0691V241.226H518.619C517.644 243.272 516.683 245.279 515.733 247.245C515.311 248.117 514.889 248.972 514.477 249.828V7.88208C516.56 8.55335 518.566 9.28237 520.497 10.0691Z" fill="#F6C90E"/>
<path opacity="0.1" d="M377.251 7.40027V296.617L371.231 296.682V8.63455C373.228 8.21229 375.231 7.79545 377.251 7.40027Z" fill="#F6C90E"/>
<path opacity="0.1" d="M232.716 34.235V298.186L226.701 298.251V33.9481C228.71 34.078 230.718 34.1538 232.716 34.235Z" fill="#F6C90E"/>
<path opacity="0.1" d="M518.619 241.231C517.644 243.277 516.683 245.284 515.733 247.251H7.85497C7.15844 245.27 6.50882 243.263 5.90611 241.231H518.619Z" fill="#F6C90E"/>
</g>
<path d="M124.835 143.907H114.55V175.121H124.835V143.907Z" fill="#3F3D56"/>
<path d="M401.644 142.283H391.358V175.305H401.644V142.283Z" fill="#3F3D56"/>
<path d="M467.239 288.892V295.929L384.997 296.687L384.12 296.703L352.863 296.99L352.116 297.001L342.615 297.082H342.334L284.42 297.618L189.353 298.5H189.272L165.101 298.728L164.841 298.733L57.4373 299.719V291.598L82.6912 276.44L133.362 276.018L134.444 276.013L134.802 276.007L135.884 275.991L160.213 275.791L161.301 275.785L161.647 275.78L162.73 275.775L170.531 275.71L170.736 275.704L189.981 275.542H190.138L340.309 274.275L343.985 274.248H344.353L347.157 274.221L367.539 274.053L368.622 274.037L369.623 274.026H370.143L376.482 273.977L377.738 273.961L379.421 273.95L384.7 273.902L393.074 273.831L394.157 273.82L396.041 273.809H396.393L436.837 273.463L467.239 288.892Z" fill="#65617D"/>
<path opacity="0.2" d="M467.239 288.892V295.929L384.997 296.687L384.12 296.703L352.863 296.99L352.116 297.001L342.615 297.082H342.334L284.42 297.618L189.353 298.5H189.272L165.101 298.728L164.841 298.733L57.4373 299.719V291.598L82.6912 276.44L133.362 276.018L134.444 276.013L134.802 276.007L135.884 275.991L160.213 275.791L161.301 275.785L161.647 275.78L162.73 275.775L170.531 275.71L170.736 275.704L189.981 275.542H190.138L340.309 274.275L343.985 274.248H344.353L347.157 274.221L367.539 274.053L368.622 274.037L369.623 274.026H370.143L376.482 273.977L377.738 273.961L379.421 273.95L384.7 273.902L393.074 273.831L394.157 273.82L396.041 273.809H396.393L436.837 273.463L467.239 288.892Z" fill="black"/>
<path d="M160.294 261.829V275.087C160.294 275.715 160.116 276.33 159.781 276.861C159.445 277.392 158.966 277.817 158.399 278.086C157.977 278.291 157.515 278.402 157.046 278.411L138.153 278.812C137.648 278.824 137.148 278.718 136.691 278.503C136.114 278.238 135.625 277.814 135.282 277.279C134.939 276.744 134.758 276.123 134.758 275.488V261.829H160.294Z" fill="#3F3D56"/>
<path opacity="0.1" d="M160.294 261.829V275.087C160.294 275.715 160.116 276.33 159.781 276.861C159.445 277.392 158.966 277.817 158.399 278.086C157.977 278.291 157.515 278.402 157.046 278.411L138.153 278.812C137.648 278.824 137.148 278.718 136.691 278.503C136.114 278.238 135.625 277.814 135.282 277.279C134.939 276.744 134.758 276.123 134.758 275.488V261.829H160.294Z" fill="black"/>
<path d="M161.376 261.829V275.087C161.377 275.715 161.199 276.33 160.864 276.861C160.528 277.392 160.049 277.817 159.482 278.086C159.059 278.291 158.598 278.402 158.128 278.411L139.235 278.812C138.731 278.824 138.23 278.718 137.774 278.503C137.196 278.238 136.707 277.814 136.365 277.279C136.022 276.744 135.84 276.123 135.841 275.488V261.829H161.376Z" fill="#3F3D56"/>
<path d="M394.157 261.829H368.622V278.882H394.157V261.829Z" fill="#3F3D56"/>
<path opacity="0.1" d="M394.157 261.829H368.622V278.882H394.157V261.829Z" fill="black"/>
<path d="M393.074 261.829H367.539V278.882H393.074V261.829Z" fill="#3F3D56"/>
<path opacity="0.1" d="M124.835 143.902V147.004L114.55 146.738V143.902H124.835Z" fill="black"/>
<path d="M192.537 56.517L180.178 145.298C180.099 145.866 179.815 146.384 179.378 146.754C178.942 147.125 178.384 147.322 177.812 147.307L78.853 144.741L76.9746 144.692C76.6475 144.684 76.3257 144.608 76.0303 144.467C75.7348 144.327 75.4722 144.126 75.2598 143.877C75.0473 143.628 74.8896 143.337 74.797 143.024C74.7045 142.71 74.6791 142.38 74.7225 142.056L88.5973 49.1167C88.6868 48.5411 88.9888 48.0198 89.4439 47.656C89.8989 47.2922 90.4738 47.1122 91.0551 47.1516L190.371 53.8752C190.692 53.8938 191.005 53.9786 191.291 54.1242C191.577 54.2699 191.829 54.4732 192.033 54.7215C192.236 54.9697 192.386 55.2574 192.473 55.5665C192.56 55.8755 192.581 56.1992 192.537 56.517Z" fill="#65617D"/>
<path d="M95.2397 53.6803L84.7754 135.603L175.722 138.488L186.907 59.4511L95.2397 53.6803Z" fill="#F6C90E"/>
<path d="M316.116 52.4135H211.089C209.495 52.4135 208.203 53.7054 208.203 55.2989V143.36C208.203 144.954 209.495 146.246 211.089 146.246H316.116C317.71 146.246 319.001 144.954 319.001 143.36V55.2989C319.001 53.7054 317.71 52.4135 316.116 52.4135Z" fill="#65617D"/>
<path d="M314.124 58.7311H213.433V136.864H314.124V58.7311Z" fill="#F6C90E"/>
<path opacity="0.1" d="M401.644 142.278V144.329L391.358 144.54V142.278H401.644Z" fill="black"/>
<path d="M448.054 140.545C448.069 140.77 448.038 140.995 447.963 141.207C447.889 141.419 447.772 141.614 447.62 141.779C447.469 141.945 447.285 142.079 447.08 142.172C446.876 142.265 446.655 142.316 446.43 142.321L345.089 144.416C344.668 144.425 344.259 144.274 343.945 143.994C343.631 143.713 343.434 143.325 343.395 142.906L334.684 52.3486C334.663 52.1239 334.687 51.8972 334.756 51.6822C334.824 51.4672 334.936 51.2684 335.084 51.0978C335.232 50.9273 335.413 50.7885 335.616 50.6899C335.819 50.5913 336.04 50.5349 336.265 50.5242L436.837 45.5221L437.92 45.468C438.35 45.4453 438.773 45.5907 439.098 45.8735C439.423 46.1563 439.626 46.5544 439.663 46.9838L448.054 140.545Z" fill="#65617D"/>
<path d="M340.471 55.8457L432.322 51.3308L440.08 133.616L348.954 135.781L340.471 55.8457Z" fill="#F6C90E"/>
<path opacity="0.1" d="M448.054 140.545C448.069 140.77 448.038 140.995 447.963 141.207C447.889 141.419 447.772 141.614 447.62 141.779C447.469 141.945 447.285 142.079 447.08 142.172C446.876 142.265 446.655 142.316 446.43 142.321L436.837 45.5221L437.92 45.468C438.35 45.4453 438.773 45.5907 439.098 45.8735C439.423 46.1563 439.626 46.5544 439.663 46.9838L448.054 140.545Z" fill="black"/>
<path opacity="0.1" d="M91.0713 47.1462L78.853 144.741L76.9746 144.692C76.6475 144.684 76.3257 144.608 76.0303 144.467C75.7348 144.327 75.4722 144.126 75.2598 143.877C75.0473 143.628 74.8896 143.337 74.797 143.024C74.7045 142.71 74.6791 142.38 74.7225 142.056L88.5974 49.1167C88.6857 48.537 88.9896 48.0121 89.4483 47.6468C89.9069 47.2815 90.4866 47.1027 91.0713 47.1462Z" fill="black"/>
<path opacity="0.1" d="M124.835 165.875H114.55V175.121H124.835V165.875Z" fill="black"/>
<path opacity="0.1" d="M161.376 261.824V264.514L135.841 265.197V261.824H161.376Z" fill="black"/>
<path d="M206.444 169.096V260.151C206.437 260.707 206.217 261.239 205.829 261.637C205.441 262.035 204.915 262.269 204.36 262.29L100.61 265.05H100.583C100.018 265.043 99.4781 264.816 99.0786 264.416C98.6791 264.017 98.4515 263.477 98.4445 262.912V169.096C98.4515 168.531 98.6791 167.991 99.0786 167.592C99.4781 167.192 100.018 166.965 100.583 166.958H204.306C204.87 166.965 205.41 167.192 205.81 167.592C206.209 167.991 206.437 168.531 206.444 169.096Z" fill="#65617D"/>
<path opacity="0.1" d="M100.61 166.958V265.05H100.583C100.018 265.043 99.4781 264.816 99.0786 264.416C98.6791 264.017 98.4515 263.477 98.4445 262.912V169.096C98.4515 168.531 98.6791 167.991 99.0786 167.592C99.4781 167.192 100.018 166.965 100.583 166.958H100.61Z" fill="black"/>
<path d="M105.347 172.772H201.436V253.027L105.347 255.192V172.772Z" fill="#D4DFEC"/>
<path opacity="0.1" d="M401.644 165.875H391.358V175.305H401.644V165.875Z" fill="black"/>
<path opacity="0.1" d="M393.074 261.824V265.294L367.539 264.612V261.824H393.074Z" fill="black"/>
<path d="M426.773 169.096V262.912C426.766 263.482 426.535 264.026 426.13 264.426C425.724 264.826 425.178 265.051 424.608 265.05L320.837 262.29C320.281 262.269 319.755 262.035 319.367 261.637C318.979 261.239 318.759 260.707 318.752 260.151V169.096C318.759 168.531 318.987 167.991 319.386 167.592C319.786 167.192 320.326 166.965 320.891 166.958H424.613C425.182 166.959 425.727 167.184 426.132 167.584C426.536 167.984 426.766 168.527 426.773 169.096Z" fill="#65617D"/>
<path opacity="0.1" d="M426.773 169.096V262.912C426.766 263.482 426.535 264.026 426.13 264.426C425.724 264.826 425.178 265.051 424.608 265.05V166.958C425.178 166.958 425.724 167.182 426.13 167.582C426.535 167.983 426.766 168.527 426.773 169.096Z" fill="black"/>
<path d="M419.871 172.772H323.781V253.027L419.871 255.192V172.772Z" fill="#D4DFEC"/>
<path d="M316.067 169.096V260.151C316.061 260.707 315.841 261.239 315.453 261.637C315.065 262.035 314.539 262.269 313.983 262.29L210.233 265.05C209.664 265.051 209.117 264.826 208.712 264.426C208.306 264.026 208.075 263.482 208.068 262.912V169.096C208.075 168.531 208.302 167.991 208.702 167.592C209.102 167.192 209.641 166.965 210.206 166.958H313.929C314.494 166.965 315.034 167.192 315.433 167.592C315.833 167.991 316.06 168.531 316.067 169.096Z" fill="#65617D"/>
<path d="M214.97 172.772H311.06V253.027L214.97 255.192V172.772Z" fill="#D4DFEC"/>
<path opacity="0.1" d="M467.239 288.892V295.929L384.997 296.687L384.12 296.703L352.863 296.99L352.116 297.001L342.615 297.082H342.334L284.42 297.618L189.353 298.5H189.272L165.101 298.728L164.841 298.733L57.4373 299.719V291.598L167.066 290.878H167.326L189.516 290.727H189.619L342.864 289.714H343.021L343.113 289.709H343.368L345.961 289.693H346.751L387.076 289.422L389.458 289.411L389.989 289.406L467.239 288.892Z" fill="black"/>
<path d="M263.778 175.121C279.125 175.121 291.566 162.681 291.566 147.334C291.566 131.987 279.125 119.546 263.778 119.546C248.432 119.546 235.991 131.987 235.991 147.334C235.991 162.681 248.432 175.121 263.778 175.121Z" fill="#FBBEBE"/>
<path d="M291.571 204.176C291.571 204.176 237.707 210.672 242.85 204.176C244.712 201.826 245.226 194.864 245.123 186.934C245.091 184.525 245.004 182.029 244.88 179.544C244.284 167.634 242.85 155.995 242.85 155.995C242.85 155.995 289.947 133.8 284.534 151.394C282.368 158.502 283.077 168.484 284.723 177.855C285.205 180.589 285.762 183.269 286.347 185.813C287.774 192.019 289.518 198.148 291.571 204.176Z" fill="#FBBEBE"/>
<path opacity="0.1" d="M291.571 204.176C291.571 204.176 237.707 210.672 242.85 204.176C244.712 201.826 245.226 194.864 245.123 186.934C253.336 183.426 263.784 186.04 263.784 186.04C274.784 183.848 281.838 184.276 286.347 185.813C287.774 192.019 289.518 198.148 291.571 204.176Z" fill="black"/>
<path d="M189.332 299.112V298.657L284.404 297.623L342.328 297.082H342.491L342.431 297.883L342.512 297.082H342.615V296.99L343.357 289.709L343.638 286.953L343.725 286.093L343.801 285.373L347.146 274.215L350.492 263.075L353.307 253.693L357.605 239.358C357.605 239.358 355.169 233.674 353.816 232.05C352.462 230.426 351.109 219.328 351.109 219.328C351.109 219.328 339.556 208.322 334.506 207.056C332.389 206.514 328.21 205.794 323.771 204.89C322.109 204.555 320.403 204.197 318.763 203.808C317.837 203.596 316.928 203.374 316.056 203.152C314.36 202.729 312.688 202.212 311.049 201.604C310.189 201.292 309.371 200.876 308.613 200.365C304.634 197.447 294.662 197.116 294.278 197.116C294.277 197.104 294.277 197.091 294.278 197.079V197.03C294.292 196.803 294.292 196.575 294.278 196.348C294.278 196.131 294.278 195.877 294.229 195.59C294.229 195.503 294.229 195.411 294.191 195.319C294.164 195.124 294.132 194.919 294.083 194.702C294.067 194.605 294.045 194.509 294.018 194.415C293.861 193.763 293.634 193.129 293.341 192.526C293.303 192.439 293.255 192.347 293.211 192.261C292.946 191.76 292.638 191.284 292.291 190.837C292.221 190.745 292.145 190.647 292.064 190.555C291.62 190.032 291.127 189.554 290.591 189.126C290.445 189.012 290.294 188.893 290.137 188.785C290.049 188.714 289.957 188.649 289.861 188.59L289.379 188.276L288.929 188.016C288.534 187.8 288.117 187.589 287.663 187.388C287.522 187.323 287.37 187.264 287.219 187.204C287.067 187.145 286.829 187.053 286.629 186.977H286.596L286.19 186.815C285.882 186.712 285.568 186.62 285.237 186.528L284.734 186.398L284.193 186.273L283.651 186.159C283.11 186.051 282.531 185.954 281.924 185.878L281.307 185.802L280.674 185.737L280.019 185.683L279.088 185.629L278.005 185.591C273.23 185.591 268.468 186.097 263.8 187.101C260.557 186.38 257.235 186.074 253.915 186.192H253.444L252.903 186.224H252.556L251.858 186.289C251.625 186.289 251.387 186.338 251.154 186.371C250.921 186.403 250.678 186.43 250.445 186.468L250.088 186.528C249.736 186.587 249.378 186.652 249.005 186.728C248.886 186.75 248.767 186.777 248.648 186.809C248.177 186.912 247.706 187.036 247.24 187.177C247.007 187.242 246.774 187.318 246.542 187.399C246.423 187.432 246.309 187.475 246.195 187.518L245.849 187.643L245.508 187.778L245.102 187.941C244.896 188.027 244.696 188.119 244.495 188.217C244.382 188.265 244.268 188.319 244.16 188.379C244.051 188.439 243.938 188.487 243.835 188.547C242.611 189.179 241.48 189.977 240.473 190.918L240.197 191.183L239.926 191.459C239.834 191.551 239.748 191.649 239.661 191.746C239.308 192.132 238.979 192.539 238.676 192.964C238.589 193.078 238.508 193.192 238.427 193.311C238.083 193.817 237.772 194.345 237.496 194.891C237.425 195.021 237.36 195.157 237.295 195.287C236.854 196.201 236.491 197.152 236.213 198.129C236.112 198.49 236.02 198.851 235.937 199.211C235.937 199.211 224.476 204.268 214.97 207.927C212.442 208.902 210.06 209.784 208.068 210.45C207.489 210.645 206.947 210.823 206.444 210.991C205.351 211.386 204.215 211.648 203.06 211.771C202.516 211.78 201.973 211.83 201.436 211.922C197.068 212.632 189.581 215.712 188.763 218.803C188.697 219.05 188.679 219.307 188.709 219.561C188.709 219.561 188.709 219.599 188.709 219.62C189.251 223.41 185.461 222.868 185.461 222.868C185.461 222.868 184.108 232.883 182.213 235.59C180.843 237.539 179.907 241.886 179.788 245.167C179.72 246.189 179.8 247.215 180.026 248.214C180.026 248.242 180.026 248.269 180.026 248.29C180.243 249.016 179.723 250.997 178.84 253.536C177.882 256.324 176.486 259.789 175.143 263.058C173.118 267.995 171.213 272.478 171.094 273.463C171.045 273.902 170.904 274.686 170.709 275.699C169.919 279.824 168.165 287.679 167.299 290.857C166.655 293.228 165.718 296.476 165.074 298.706C165.074 298.771 165.036 298.836 165.02 298.896L189.288 298.657V299.112H189.364H189.332Z" fill="#F6C90E"/>
<path opacity="0.1" d="M198.188 235.303C198.188 235.303 229.045 251.273 240.143 249.378L198.188 235.303Z" fill="black"/>
<path opacity="0.1" d="M260.985 228.807C260.985 228.807 291.03 238.551 301.045 239.905C311.06 241.258 260.985 228.807 260.985 228.807Z" fill="black"/>
<path opacity="0.1" d="M294.31 197.452C278.611 200.343 249.054 199.72 236.278 199.282C240.96 182.5 263.795 188.206 263.795 188.206C292.058 182.565 294.224 194.269 294.31 197.452Z" fill="black"/>
<path d="M294.31 196.369C278.611 199.26 249.054 198.638 236.278 198.199C240.96 181.417 263.795 187.123 263.795 187.123C292.058 181.482 294.224 193.186 294.31 196.369Z" fill="#F6C90E"/>
<path d="M377.646 270.356C377.646 270.356 396.138 267.514 396.501 275.634C396.864 283.754 387.071 289.427 387.071 289.427L377.646 270.356Z" fill="#FBBEBE"/>
<path opacity="0.1" d="M284.723 177.855C283.928 178.211 283.115 178.525 282.287 178.797C276.451 180.811 270.567 182.841 264.422 183.577C258.278 184.313 251.831 183.664 246.471 180.6C245.909 180.282 245.366 179.929 244.847 179.544C244.252 167.634 242.817 155.995 242.817 155.995C242.817 155.995 289.915 133.8 284.501 151.394C282.347 158.502 283.077 168.484 284.723 177.855Z" fill="black"/>
<path d="M256.156 103.901C255.383 104.105 254.574 104.126 253.792 103.962C253.01 103.797 252.277 103.452 251.652 102.954L252.778 104.519C252.114 104.595 251.442 104.526 250.808 104.315C250.174 104.105 249.594 103.759 249.108 103.3C249.006 104.701 249.064 106.109 249.281 107.496C247.418 107.586 245.583 107.01 244.106 105.872C244.077 106.36 244.198 106.846 244.454 107.263C244.709 107.68 245.087 108.009 245.535 108.205C243.663 107.982 241.774 108.447 240.22 109.513C238.666 110.58 237.554 112.176 237.09 114.003L239.916 114.263C237.695 114.737 235.701 115.953 234.264 117.711C233.398 118.794 232.737 120.18 233.116 121.501C233.495 122.822 235.325 123.666 236.321 122.724C234.904 124.415 233.874 126.396 233.304 128.527C232.733 130.658 232.636 132.889 233.019 135.061C233.276 135.987 233.36 136.953 233.268 137.909C233.089 138.802 232.526 139.576 232.245 140.448C231.703 142.029 232.218 143.745 232.699 145.32L235.238 153.668C236.159 156.683 237.073 159.704 238.275 162.622C239.126 164.466 239.85 166.367 240.441 168.311C241.123 170.931 241.15 173.8 242.606 176.09C243.604 177.531 244.938 178.708 246.493 179.517C251.847 182.581 258.316 183.231 264.444 182.495C270.572 181.758 276.451 179.728 282.282 177.714C283.577 177.324 284.82 176.779 285.984 176.09C290.017 173.449 290.916 168.046 291.669 163.287C292.508 157.982 293.628 152.688 295.615 147.697C296.795 144.725 298.322 141.709 298.062 138.526C297.732 134.298 294.386 130.871 293.558 126.714C293.281 125.324 293.294 123.892 293.596 122.508C293.853 121.683 293.997 120.827 294.023 119.963C293.931 118.22 292.502 116.878 291.16 115.757C288.247 113.324 285.241 111.026 282.141 108.86C281.984 107.777 283.456 107.312 284.122 106.457C285.064 105.249 284.09 103.333 282.661 102.77C281.231 102.207 279.629 102.575 278.14 102.949C278.237 102.187 278.086 101.414 277.708 100.745C277.331 100.076 276.747 99.5465 276.045 99.2357C275.342 98.9249 274.558 98.8491 273.809 99.0197C273.06 99.1902 272.386 99.598 271.888 100.182C271.492 99.2757 270.861 98.492 270.059 97.913C269.257 97.334 268.314 96.981 267.329 96.8909C263.74 96.6094 263.67 99.354 261.375 100.864C259.079 102.375 257.185 100.383 255.42 98.9318C255.096 99.7519 254.993 100.643 255.122 101.515C255.251 102.388 255.608 103.211 256.156 103.901Z" fill="#3F3D56"/>
<path d="M391.358 286.596C391.358 286.596 390.876 287.744 389.989 289.406C388.646 291.963 387.011 294.355 385.116 296.535L384.97 296.692H384.093L352.836 296.979H352.089L351.997 296.871L345.934 289.676L343.649 286.964L343.557 286.851L343.362 286.623L343.254 286.493L343.113 286.325L338.669 281.053L340.293 274.286L343.059 262.885L343.129 262.609L343.671 260.444L344.055 258.819L345.344 253.525L349.761 235.309L357.61 239.369L365.888 253.985L370.332 261.835H372.768C373.228 261.835 374.284 262.723 375.345 263.746C375.724 264.108 376.103 264.493 376.428 264.828C377.391 265.825 378.155 266.68 378.155 266.68C378.155 266.68 382.101 266.766 383.162 269.874C383.217 270.024 383.262 270.178 383.298 270.334C383.65 271.555 384.108 272.744 384.667 273.885C385.365 275.406 386.242 277.133 387.13 278.86C388.781 282.027 390.46 285.042 391.077 286.136L391.153 286.271L391.358 286.596Z" fill="#F6C90E"/>
<path opacity="0.1" d="M344.856 262.154L344.802 262.928V262.983L344.71 264.228L343.99 274.248L343.119 286.32L342.87 289.72L342.328 296.996V297.088L284.404 297.629L189.348 298.657V299.112H189.272V298.657V298.506L189.516 290.732L189.981 275.542L190.382 262.663L190.42 261.38C190.444 260.606 190.625 259.844 190.953 259.142C191.281 258.44 191.748 257.813 192.327 257.297C192.905 256.782 193.583 256.39 194.318 256.146C195.053 255.901 195.83 255.809 196.602 255.875C199.157 256.091 202.476 256.356 206.444 256.638L208.068 256.757C230.983 258.349 273.333 260.406 316.067 257.84C316.966 257.791 317.87 257.737 318.774 257.672C325.4 257.255 332.021 256.719 338.577 256.048C339.405 255.961 340.243 256.057 341.031 256.329C341.818 256.601 342.537 257.042 343.136 257.622C343.734 258.201 344.199 258.905 344.496 259.683C344.793 260.462 344.916 261.296 344.856 262.127V262.154Z" fill="black"/>
<path d="M189.332 299.112V298.657L284.404 297.623L342.328 297.082H342.491V296.99L343.032 289.714L343.265 286.466L344.153 274.226L344.851 264.536V264.298C344.883 263.851 344.863 263.403 344.791 262.961C344.794 262.943 344.794 262.925 344.791 262.907C344.643 261.993 344.271 261.13 343.709 260.395C343.113 259.63 342.332 259.031 341.439 258.652C340.547 258.273 339.573 258.127 338.609 258.229C332.053 258.901 325.433 259.437 318.807 259.853C317.902 259.918 316.998 259.973 316.1 260.021C273.366 262.56 231.016 260.503 208.1 258.939L206.476 258.82C202.508 258.538 199.19 258.278 196.635 258.056C195.229 257.938 193.829 258.344 192.706 259.197C191.582 260.049 190.814 261.288 190.55 262.674C190.495 262.967 190.463 263.264 190.452 263.562L190.084 275.558L189.581 290.754L189.343 298.527V298.679V299.134L189.332 299.112Z" fill="#3F3D56"/>
<path opacity="0.1" d="M345.019 265.949L344.353 274.248L343.362 286.618L343.113 289.714L342.572 296.649L342.539 296.996V297.088L342.458 297.889L342.518 297.088H342.361L284.436 297.629L189.348 298.657V298.506L189.613 290.732L190.155 275.542L190.501 265.446C190.518 264.871 190.679 264.31 190.968 263.814C191.257 263.318 191.666 262.901 192.158 262.604C192.771 262.228 193.487 262.057 194.204 262.116C195.341 262.208 196.737 262.317 198.367 262.436C201.014 262.631 204.278 262.858 208.079 263.096C215.116 263.54 223.946 264.016 234.064 264.406C262.214 265.489 300.217 265.852 336.314 262.69C337.938 262.549 339.616 262.392 341.256 262.235C341.906 262.171 342.56 262.295 343.14 262.593C343.305 262.675 343.461 262.773 343.606 262.885C344.077 263.227 344.45 263.686 344.688 264.217C344.744 264.322 344.789 264.433 344.824 264.547C344.986 264.996 345.053 265.473 345.019 265.949Z" fill="black"/>
<path opacity="0.1" d="M161.376 273.36V275.087C161.377 275.715 161.199 276.33 160.864 276.861C160.528 277.392 160.049 277.817 159.482 278.086L137.774 278.503C137.196 278.238 136.707 277.814 136.365 277.279C136.022 276.744 135.84 276.123 135.841 275.488V273.864L161.376 273.36Z" fill="black"/>
<path d="M161.647 279.104L133.362 279.645V274.952L161.647 274.41V279.104Z" fill="#3F3D56"/>
<path opacity="0.1" d="M161.647 279.104L133.362 279.645V274.952L161.647 274.41V279.104Z" fill="black"/>
<path d="M162.73 279.104L134.444 279.645V274.952L162.73 274.41V279.104Z" fill="#3F3D56"/>
<g opacity="0.1">
<path opacity="0.1" d="M256.378 102.126C255.849 101.438 255.498 100.632 255.355 99.7762C255.224 100.612 255.303 101.468 255.582 102.266C255.851 102.242 256.117 102.195 256.378 102.126Z" fill="black"/>
<path opacity="0.1" d="M249.503 105.72C249.401 105.057 249.334 104.388 249.303 103.717C249.303 104.383 249.303 105.054 249.303 105.726L249.503 105.72Z" fill="black"/>
<path opacity="0.1" d="M293.623 123.785C293.653 123.303 293.718 122.823 293.818 122.351C294.074 121.527 294.219 120.673 294.251 119.812C294.239 119.618 294.21 119.426 294.164 119.238C294.072 119.736 293.926 120.234 293.818 120.727C293.602 121.731 293.536 122.762 293.623 123.785Z" fill="black"/>
<path opacity="0.1" d="M282.363 107.057L282.953 107.485C283.45 107.125 283.916 106.723 284.344 106.283C284.548 106.002 284.674 105.671 284.71 105.326C284.746 104.98 284.691 104.631 284.55 104.313C284.496 104.436 284.427 104.553 284.344 104.659C283.678 105.515 282.206 105.986 282.363 107.057Z" fill="black"/>
<path opacity="0.1" d="M237.88 112.265C237.683 112.66 237.525 113.073 237.409 113.499C238.256 113.027 239.168 112.682 240.116 112.476L237.88 112.265Z" fill="black"/>
<path opacity="0.1" d="M245.345 106.375C244.99 106.179 244.649 105.957 244.328 105.709C244.314 105.924 244.33 106.139 244.376 106.348C244.7 106.333 245.023 106.342 245.345 106.375Z" fill="black"/>
<path opacity="0.1" d="M298.273 138.272C298.051 140.897 296.828 143.425 295.837 145.916C293.85 150.907 292.73 156.201 291.891 161.512C291.138 166.27 290.267 171.673 286.206 174.309C285.046 175.002 283.804 175.548 282.509 175.933C276.673 177.953 270.789 179.977 264.644 180.714C258.5 181.45 252.053 180.806 246.693 177.742C245.139 176.931 243.806 175.755 242.806 174.315C241.361 172.025 241.334 169.156 240.641 166.536C240.05 164.59 239.327 162.687 238.476 160.841C237.279 157.928 236.359 154.886 235.444 151.892C234.596 149.11 233.75 146.325 232.905 143.539C232.627 142.701 232.42 141.841 232.288 140.968C232.077 142.353 232.488 143.804 232.905 145.163C233.75 147.953 234.596 150.737 235.444 153.516C236.359 156.531 237.279 159.552 238.476 162.465C239.327 164.311 240.05 166.214 240.641 168.16C241.323 170.78 241.35 173.649 242.806 175.939C243.806 177.379 245.139 178.555 246.693 179.366C252.053 182.43 258.516 183.074 264.644 182.338C270.773 181.601 276.652 179.577 282.509 177.557C283.804 177.172 285.046 176.626 286.206 175.933C290.239 173.297 291.138 167.894 291.891 163.136C292.73 157.825 293.85 152.531 295.837 147.54C297.017 144.573 298.544 141.558 298.284 138.369C298.284 138.337 298.273 138.304 298.273 138.272Z" fill="black"/>
<path opacity="0.1" d="M233.479 136.177C233.479 136.177 233.479 136.139 233.479 136.117C233.577 135.163 233.492 134.198 233.23 133.275C233.122 132.681 233.051 132.081 233.019 131.478C232.956 132.622 233.027 133.771 233.23 134.899C233.317 135.321 233.414 135.749 233.479 136.177Z" fill="black"/>
<path opacity="0.1" d="M235.13 122.935C235.546 122.236 236.019 121.571 236.543 120.948C235.552 121.896 233.723 121.051 233.338 119.736C233.196 120.268 233.196 120.828 233.338 121.36C233.471 121.757 233.707 122.112 234.022 122.389C234.337 122.665 234.719 122.854 235.13 122.935Z" fill="black"/>
</g>
<path opacity="0.1" d="M370.338 261.829C370.338 261.829 372.054 268.055 370.338 273.468C368.622 278.882 370.338 261.829 370.338 261.829Z" fill="black"/>
<path opacity="0.1" d="M377.646 268.179C377.646 268.179 378.366 276.083 376.742 277.485C375.118 278.887 377.646 268.179 377.646 268.179Z" fill="black"/>
<path d="M107.723 185.607L162.73 185.066" stroke="#F6C90E" stroke-width="2" stroke-miterlimit="10"/>
<path d="M107.723 192.358L162.73 191.822" stroke="#F6C90E" stroke-width="2" stroke-miterlimit="10"/>
<path d="M107.723 199.114L162.73 198.573" stroke="#F6C90E" stroke-width="2" stroke-miterlimit="10"/>
</g>
<defs>
<clipPath id="clip0">
<rect width="563.719" height="300" fill="white"/>
</clipPath>
</defs>
</svg>
