<svg width="20" height="20" viewBox="0 0 20 20" fill="none" xmlns="http://www.w3.org/2000/svg">
<path d="M7.05623 10.1825L6.1506 8.45313C5.94498 8.06125 5.30435 8.06125 5.09873 8.45313L1.91123 14.5406C1.88633 14.5882 1.87409 14.6413 1.87569 14.695C1.87729 14.7486 1.89268 14.8009 1.92037 14.8469C1.94807 14.8929 1.98713 14.9309 2.03381 14.9574C2.08048 14.9839 2.13319 14.9979 2.18685 14.9981H4.5306C4.58788 14.9981 4.64406 14.9824 4.693 14.9526C4.74194 14.9229 4.78175 14.8802 4.8081 14.8294L7.05685 10.4713C7.08008 10.4267 7.0922 10.3771 7.0922 10.3269C7.0922 10.2766 7.08008 10.2271 7.05685 10.1825H7.05623ZM18.0794 14.8475C18.0514 14.8934 18.0121 14.9313 17.9653 14.9576C17.9184 14.9839 17.8656 14.9976 17.8119 14.9975H5.93685C5.88324 14.9978 5.83048 14.9841 5.78367 14.958C5.73687 14.9319 5.6976 14.8941 5.66969 14.8483C5.64177 14.8026 5.62615 14.7503 5.62434 14.6968C5.62253 14.6432 5.63459 14.5901 5.65935 14.5425L10.4225 5.31375C10.5225 5.12 10.7256 4.98063 10.9375 5.0025C11.0436 5.00297 11.1476 5.03297 11.2376 5.08916C11.3277 5.14534 11.4004 5.22549 11.4475 5.32063L12.8006 8.02688C12.8319 8.08875 12.8862 8.10625 12.9156 8.11125C12.9401 8.11494 12.965 8.1129 12.9886 8.10531C13.0121 8.09772 13.0335 8.08478 13.0512 8.0675L13.3894 7.72875C13.4756 7.64129 13.5816 7.57574 13.6983 7.53758C13.8151 7.49941 13.9393 7.48975 14.0606 7.50938C14.3087 7.54688 14.5181 7.69688 14.6344 7.92L18.0894 14.5413C18.1141 14.5889 18.1262 14.642 18.1245 14.6957C18.1227 14.7493 18.1072 14.8016 18.0794 14.8475Z" fill="#747576"/>
</svg>
