<svg width="20" height="20" viewBox="0 0 20 20" fill="none" xmlns="http://www.w3.org/2000/svg">
<path d="M10 3.125C6.20937 3.125 3.125 6.20937 3.125 10V15C3.125 15.1658 3.19085 15.3247 3.30806 15.4419C3.42527 15.5592 3.58424 15.625 3.75 15.625C3.91576 15.625 4.07473 15.5592 4.19194 15.4419C4.30915 15.3247 4.375 15.1658 4.375 15V10C4.375 6.89875 6.89875 4.375 10 4.375C13.1012 4.375 15.625 6.89875 15.625 10V15C15.625 15.1658 15.6908 15.3247 15.8081 15.4419C15.9253 15.5592 16.0842 15.625 16.25 15.625C16.4158 15.625 16.5747 15.5592 16.6919 15.4419C16.8092 15.3247 16.875 15.1658 16.875 15V10C16.875 6.20937 13.7906 3.125 10 3.125ZM14.0625 10.625H13.4375C12.9206 10.625 12.5 11.0456 12.5 11.5625V15.9375C12.5 16.4544 12.9206 16.875 13.4375 16.875H14.0625C14.5794 16.875 15 16.4544 15 15.9375V11.5625C15 11.0456 14.5794 10.625 14.0625 10.625ZM7.5 11.5625V15.9375C7.5 16.4544 7.07938 16.875 6.5625 16.875H5.9375C5.42062 16.875 5 16.4544 5 15.9375V11.5625C5 11.0456 5.42062 10.625 5.9375 10.625H6.5625C7.07938 10.625 7.5 11.0456 7.5 11.5625Z" fill="#747576"/>
</svg>
