<svg width="500" height="349" viewBox="0 0 500 349" fill="none" xmlns="http://www.w3.org/2000/svg">
<g clip-path="url(#clip0)">
<path d="M125.926 187.394C131.419 187.394 135.871 182.942 135.871 177.449C135.871 171.956 131.419 167.504 125.926 167.504C120.433 167.504 115.981 171.956 115.981 177.449C115.981 182.942 120.433 187.394 125.926 187.394Z" fill="#F2F2F2"/>
<path d="M91.8902 298.146C95.2942 298.146 98.0538 295.386 98.0538 291.982C98.0538 288.578 95.2942 285.818 91.8902 285.818C88.4861 285.818 85.7266 288.578 85.7266 291.982C85.7266 295.386 88.4861 298.146 91.8902 298.146Z" fill="#F2F2F2"/>
<path d="M280.929 11.6154H205.293V12.6959H280.929V11.6154Z" fill="#F2F2F2"/>
<path d="M226.904 1.89087H225.823V11.8855H226.904V1.89087Z" fill="#F2F2F2"/>
<path d="M259.859 1.89087H258.778V11.8855H259.859V1.89087Z" fill="#F2F2F2"/>
<path d="M403.025 273.096H327.39V274.177H403.025V273.096Z" fill="#F2F2F2"/>
<path d="M349 263.372H347.92V273.367H349V263.372Z" fill="#F2F2F2"/>
<path d="M381.955 263.372H380.875V273.367H381.955V263.372Z" fill="#F2F2F2"/>
<path d="M406.807 108.32H331.172V109.401H406.807V108.32Z" fill="#F2F2F2"/>
<path d="M352.782 98.5957H351.701V108.59H352.782V98.5957Z" fill="#F2F2F2"/>
<path d="M385.737 98.5957H384.657V108.59H385.737V98.5957Z" fill="#F2F2F2"/>
<path d="M406.807 69.4221H331.172V70.5026H406.807V69.4221Z" fill="#F2F2F2"/>
<path d="M352.782 59.6976H351.701V69.6923H352.782V59.6976Z" fill="#F2F2F2"/>
<path d="M385.737 59.6976H384.657V69.6923H385.737V59.6976Z" fill="#F2F2F2"/>
<path d="M240.95 74.8247H165.315V75.9052H240.95V74.8247Z" fill="#F2F2F2"/>
<path d="M186.925 65.1001H185.844V75.0947H186.925V65.1001Z" fill="#F2F2F2"/>
<path d="M219.88 65.1001H218.8V75.0947H219.88V65.1001Z" fill="#F2F2F2"/>
<path d="M185.844 49.4329H110.209V50.5134H185.844V49.4329Z" fill="#F2F2F2"/>
<path d="M131.819 39.7084H130.739V49.703H131.819V39.7084Z" fill="#F2F2F2"/>
<path d="M164.775 39.7084H163.694V49.703H164.775V39.7084Z" fill="#F2F2F2"/>
<path d="M151.809 149.379H76.1736V150.46H151.809V149.379Z" fill="#F2F2F2"/>
<path d="M97.7837 139.655H96.7032V149.649H97.7837V139.655Z" fill="#F2F2F2"/>
<path d="M130.739 139.655H129.658V149.649H130.739V139.655Z" fill="#F2F2F2"/>
<path d="M113.991 259.59H38.3561V260.671H113.991V259.59Z" fill="#F2F2F2"/>
<path d="M59.9662 249.866H58.8857V259.86H59.9662V249.866Z" fill="#F2F2F2"/>
<path d="M92.9214 249.866H91.8409V259.86H92.9214V249.866Z" fill="#F2F2F2"/>
<path d="M471.637 214.209H396.002V215.29H471.637V214.209Z" fill="#F2F2F2"/>
<path d="M417.612 204.485H416.531V214.479H417.612V204.485Z" fill="#F2F2F2"/>
<path d="M450.567 204.485H449.487V214.479H450.567V204.485Z" fill="#F2F2F2"/>
<path d="M449.487 145.057H373.852V146.138H449.487V145.057Z" fill="#F2F2F2"/>
<path d="M428.957 145.868H427.877V155.862H428.957V145.868Z" fill="#F2F2F2"/>
<path d="M396.002 145.868H394.921V155.862H396.002V145.868Z" fill="#F2F2F2"/>
<path d="M83.1969 64.0197H7.56189V65.1002H83.1969V64.0197Z" fill="#F2F2F2"/>
<path d="M62.6674 64.8301H61.5869V74.8247H62.6674V64.8301Z" fill="#F2F2F2"/>
<path d="M29.7122 64.8301H28.6317V74.8247H29.7122V64.8301Z" fill="#F2F2F2"/>
<path d="M88.0592 205.565H12.4241V206.646H88.0592V205.565Z" fill="#F2F2F2"/>
<path d="M67.5297 206.376H66.4492V216.37H67.5297V206.376Z" fill="#F2F2F2"/>
<path d="M34.5744 206.376H33.4939V216.37H34.5744V206.376Z" fill="#F2F2F2"/>
<path d="M326.31 28.9034H250.674V29.9839H326.31V28.9034Z" fill="#F2F2F2"/>
<path d="M305.78 29.7137H304.7V39.7084H305.78V29.7137Z" fill="#F2F2F2"/>
<path d="M272.825 29.7137H271.744V39.7084H272.825V29.7137Z" fill="#F2F2F2"/>
<path d="M113.991 103.998H38.3561V105.079H113.991V103.998Z" fill="#F2F2F2"/>
<path d="M59.9662 94.2737H58.8857V104.268H59.9662V94.2737Z" fill="#F2F2F2"/>
<path d="M92.9214 94.2737H91.8409V104.268H92.9214V94.2737Z" fill="#F2F2F2"/>
<path d="M126.147 93.4633V347.921H361.696V93.4633H126.147ZM243.921 111.832C242.319 111.832 240.752 111.356 239.419 110.466C238.087 109.576 237.048 108.31 236.435 106.829C235.821 105.348 235.661 103.719 235.973 102.147C236.286 100.575 237.058 99.1311 238.191 97.9978C239.325 96.8645 240.768 96.0927 242.34 95.78C243.912 95.4673 245.542 95.6278 247.023 96.2411C248.503 96.8545 249.769 97.8932 250.659 99.2258C251.55 100.558 252.025 102.125 252.025 103.728C252.025 105.877 251.171 107.938 249.652 109.458C248.132 110.978 246.071 111.832 243.921 111.832Z" fill="#3F3D56"/>
<path d="M20.127 326.202C23.8623 340.01 36.6564 348.561 36.6564 348.561C36.6564 348.561 43.3945 334.726 39.6592 320.918C35.924 307.11 23.1298 298.558 23.1298 298.558C23.1298 298.558 16.3917 312.394 20.127 326.202Z" fill="#3F3D56"/>
<path d="M25.6157 323.234C35.8654 333.212 37.1173 348.55 37.1173 348.55C37.1173 348.55 21.7513 347.711 11.5016 337.733C1.25192 327.756 0 312.418 0 312.418C0 312.418 15.3661 313.257 25.6157 323.234Z" fill="#FF6584"/>
<path d="M500 347.381H8.91248V348.461H500V347.381Z" fill="#3F3D56"/>
<path d="M103.726 314.068C103.723 311.674 102.998 309.336 101.646 307.36C100.294 305.384 98.377 303.862 96.1461 302.993C98.7301 301.989 100.882 300.113 102.229 297.69C103.576 295.267 104.034 292.449 103.523 289.724C103.012 287 101.565 284.539 99.4315 282.769C97.2983 280.998 94.6132 280.029 91.8409 280.029C89.0686 280.029 86.3836 280.998 84.2503 282.769C82.117 284.539 80.6698 287 80.1589 289.724C79.6481 292.449 80.1058 295.267 81.4529 297.69C82.8 300.113 84.9517 301.989 87.5357 302.993C85.3031 303.86 83.3847 305.381 82.032 307.358C80.6792 309.334 79.9554 311.673 79.9554 314.068C79.9554 316.463 80.6792 318.802 82.032 320.779C83.3847 322.755 85.3031 324.276 87.5357 325.143C84.9517 326.147 82.8 328.023 81.4529 330.446C80.1058 332.869 79.6481 335.687 80.1589 338.412C80.6698 341.137 82.117 343.597 84.2503 345.368C86.3836 347.138 89.0686 348.107 91.8409 348.107C94.6132 348.107 97.2983 347.138 99.4315 345.368C101.565 343.597 103.012 341.137 103.523 338.412C104.034 335.687 103.576 332.869 102.229 330.446C100.882 328.023 98.7301 326.147 96.1461 325.143C98.377 324.274 100.294 322.752 101.646 320.776C102.998 318.8 103.723 316.462 103.726 314.068ZM81.0359 291.918C81.0342 289.885 81.606 287.893 82.6855 286.171C83.7651 284.448 85.3086 283.065 87.1389 282.18C88.9691 281.296 91.0117 280.945 93.0321 281.17C95.0525 281.394 96.9687 282.183 98.5606 283.447C100.152 284.712 101.355 286.399 102.031 288.316C102.707 290.234 102.828 292.302 102.381 294.286C101.934 296.269 100.937 298.085 99.5034 299.527C98.0702 300.968 96.2594 301.976 94.279 302.435C92.6711 302.098 91.0108 302.098 89.4028 302.435C87.0264 301.883 84.9066 300.543 83.3877 298.634C81.8688 296.724 81.04 294.358 81.0359 291.918ZM102.646 336.218C102.648 338.251 102.076 340.243 100.996 341.966C99.9168 343.688 98.3732 345.071 96.543 345.956C94.7128 346.84 92.6701 347.191 90.6497 346.967C88.6293 346.743 86.7131 345.953 85.1212 344.689C83.5294 343.425 82.3264 341.737 81.6506 339.82C80.9747 337.903 80.8534 335.834 81.3006 333.851C81.7477 331.868 82.7452 330.051 84.1784 328.609C85.6116 327.168 87.4224 326.16 89.4028 325.701C91.0108 326.038 92.6711 326.038 94.279 325.701C96.6554 326.254 98.7752 327.593 100.294 329.503C101.813 331.412 102.642 333.779 102.646 336.218ZM94.279 324.585C92.6711 324.249 91.0108 324.249 89.4028 324.585C87.0245 324.037 84.9023 322.698 83.3828 320.788C81.8632 318.878 81.0359 316.509 81.0359 314.068C81.0359 311.627 81.8632 309.259 83.3828 307.348C84.9023 305.438 87.0245 304.1 89.4028 303.551C91.0108 303.887 92.6711 303.887 94.279 303.551C96.6574 304.1 98.7795 305.438 100.299 307.348C101.819 309.259 102.646 311.627 102.646 314.068C102.646 316.509 101.819 318.878 100.299 320.788C98.7795 322.698 96.6574 324.037 94.279 324.585Z" fill="#3F3D56"/>
<path d="M276.066 146.678H152.349C151.346 146.678 150.384 146.28 149.675 145.57C148.966 144.861 148.567 143.899 148.567 142.896C148.567 141.893 148.966 140.931 149.675 140.222C150.384 139.513 151.346 139.115 152.349 139.115H276.066C277.069 139.115 278.031 139.513 278.74 140.222C279.45 140.931 279.848 141.893 279.848 142.896C279.848 143.899 279.45 144.861 278.74 145.57C278.031 146.28 277.069 146.678 276.066 146.678Z" fill="#F2F2F2"/>
<path d="M276.066 185.576H152.349C151.346 185.576 150.384 185.178 149.675 184.468C148.966 183.759 148.567 182.797 148.567 181.794C148.567 180.791 148.966 179.829 149.675 179.12C150.384 178.411 151.346 178.012 152.349 178.012H276.066C277.069 178.012 278.031 178.411 278.74 179.12C279.45 179.829 279.848 180.791 279.848 181.794C279.848 182.797 279.45 183.759 278.74 184.468C278.031 185.178 277.069 185.576 276.066 185.576Z" fill="#F2F2F2"/>
<path d="M276.066 224.474H152.349C151.346 224.474 150.384 224.076 149.675 223.366C148.966 222.657 148.567 221.695 148.567 220.692C148.567 219.689 148.966 218.727 149.675 218.018C150.384 217.309 151.346 216.91 152.349 216.91H276.066C277.069 216.91 278.031 217.309 278.74 218.018C279.45 218.727 279.848 219.689 279.848 220.692C279.848 221.695 279.45 222.657 278.74 223.366C278.031 224.076 277.069 224.474 276.066 224.474Z" fill="#F2F2F2"/>
<path d="M276.066 263.372H152.349C151.346 263.372 150.384 262.974 149.675 262.264C148.966 261.555 148.567 260.593 148.567 259.59C148.567 258.587 148.966 257.625 149.675 256.916C150.384 256.207 151.346 255.808 152.349 255.808H276.066C277.069 255.808 278.031 256.207 278.74 256.916C279.45 257.625 279.848 258.587 279.848 259.59C279.848 260.593 279.45 261.555 278.74 262.264C278.031 262.974 277.069 263.372 276.066 263.372Z" fill="#F2F2F2"/>
<path d="M276.066 302.27H152.349C151.346 302.27 150.384 301.872 149.675 301.162C148.966 300.453 148.567 299.491 148.567 298.488C148.567 297.485 148.966 296.523 149.675 295.814C150.384 295.105 151.346 294.707 152.349 294.707H276.066C277.069 294.707 278.031 295.105 278.74 295.814C279.45 296.523 279.848 297.485 279.848 298.488C279.848 299.491 279.45 300.453 278.74 301.162C278.031 301.872 277.069 302.27 276.066 302.27Z" fill="#F2F2F2"/>
<path d="M254.456 146.678H151.809C150.806 146.678 149.844 146.28 149.135 145.57C148.425 144.861 148.027 143.899 148.027 142.896C148.027 141.893 148.425 140.931 149.135 140.222C149.844 139.513 150.806 139.115 151.809 139.115H254.456C255.459 139.115 256.421 139.513 257.13 140.222C257.84 140.931 258.238 141.893 258.238 142.896C258.238 143.899 257.84 144.861 257.13 145.57C256.421 146.28 255.459 146.678 254.456 146.678Z" fill="#FF6584"/>
<path d="M222.581 185.576H151.809C150.806 185.576 149.844 185.178 149.135 184.468C148.425 183.759 148.027 182.797 148.027 181.794C148.027 180.791 148.425 179.829 149.135 179.12C149.844 178.411 150.806 178.012 151.809 178.012H222.581C223.584 178.012 224.546 178.411 225.256 179.12C225.965 179.829 226.363 180.791 226.363 181.794C226.363 182.797 225.965 183.759 225.256 184.468C224.546 185.178 223.584 185.576 222.581 185.576Z" fill="#FF6584"/>
<path d="M183.683 224.474H151.809C150.806 224.474 149.844 224.076 149.135 223.366C148.425 222.657 148.027 221.695 148.027 220.692C148.027 219.689 148.425 218.727 149.135 218.018C149.844 217.309 150.806 216.91 151.809 216.91H183.683C184.686 216.91 185.648 217.309 186.358 218.018C187.067 218.727 187.465 219.689 187.465 220.692C187.465 221.695 187.067 222.657 186.358 223.366C185.648 224.076 184.686 224.474 183.683 224.474Z" fill="#FF6584"/>
<path d="M264.181 263.372H151.809C150.806 263.372 149.844 262.974 149.135 262.264C148.425 261.555 148.027 260.593 148.027 259.59C148.027 258.587 148.425 257.625 149.135 256.916C149.844 256.207 150.806 255.808 151.809 255.808H264.181C265.184 255.808 266.146 256.207 266.855 256.916C267.564 257.625 267.963 258.587 267.963 259.59C267.963 260.593 267.564 261.555 266.855 262.264C266.146 262.974 265.184 263.372 264.181 263.372Z" fill="#FF6584"/>
<path d="M239.329 302.27H151.809C150.806 302.27 149.844 301.872 149.135 301.162C148.425 300.453 148.027 299.491 148.027 298.488C148.027 297.485 148.425 296.523 149.135 295.814C149.844 295.105 150.806 294.707 151.809 294.707H239.329C240.332 294.707 241.294 295.105 242.003 295.814C242.713 296.523 243.111 297.485 243.111 298.488C243.111 299.491 242.713 300.453 242.003 301.162C241.294 301.872 240.332 302.27 239.329 302.27Z" fill="#FF6584"/>
<path d="M327.39 139.115H326.31V146.678H327.39V139.115Z" fill="#FF6584"/>
<path d="M335.494 147.218C334.639 147.218 333.803 146.965 333.093 146.49C332.382 146.015 331.828 145.34 331.501 144.55C331.174 143.76 331.088 142.891 331.255 142.053C331.422 141.215 331.833 140.445 332.438 139.84C333.042 139.236 333.812 138.824 334.651 138.657C335.489 138.49 336.358 138.576 337.148 138.903C337.937 139.23 338.612 139.784 339.087 140.495C339.562 141.206 339.816 142.041 339.816 142.896C339.814 144.042 339.359 145.141 338.548 145.951C337.738 146.761 336.64 147.217 335.494 147.218ZM335.494 139.655C334.853 139.655 334.226 139.845 333.693 140.201C333.16 140.557 332.744 141.063 332.499 141.656C332.254 142.248 332.189 142.9 332.315 143.529C332.44 144.157 332.748 144.735 333.202 145.188C333.655 145.642 334.233 145.95 334.861 146.075C335.49 146.201 336.142 146.136 336.734 145.891C337.327 145.646 337.833 145.23 338.189 144.697C338.545 144.164 338.735 143.537 338.735 142.896C338.734 142.037 338.393 141.213 337.785 140.605C337.177 139.997 336.353 139.656 335.494 139.655Z" fill="#FF6584"/>
<path d="M327.39 178.012H326.31V185.576H327.39V178.012Z" fill="#FF6584"/>
<path d="M335.494 186.116C334.639 186.116 333.803 185.863 333.093 185.388C332.382 184.913 331.828 184.238 331.501 183.448C331.174 182.658 331.088 181.789 331.255 180.951C331.422 180.113 331.833 179.343 332.438 178.738C333.042 178.134 333.812 177.722 334.651 177.555C335.489 177.388 336.358 177.474 337.148 177.801C337.937 178.128 338.612 178.682 339.087 179.393C339.562 180.104 339.816 180.939 339.816 181.794C339.814 182.94 339.359 184.039 338.548 184.849C337.738 185.659 336.64 186.115 335.494 186.116ZM335.494 178.553C334.853 178.553 334.226 178.743 333.693 179.099C333.16 179.455 332.744 179.961 332.499 180.554C332.254 181.146 332.189 181.798 332.315 182.427C332.44 183.055 332.748 183.633 333.202 184.086C333.655 184.54 334.233 184.848 334.861 184.973C335.49 185.098 336.142 185.034 336.734 184.789C337.327 184.544 337.833 184.128 338.189 183.595C338.545 183.062 338.735 182.435 338.735 181.794C338.734 180.935 338.393 180.111 337.785 179.503C337.177 178.895 336.353 178.554 335.494 178.553Z" fill="#FF6584"/>
<path d="M327.39 216.91H326.31V224.474H327.39V216.91Z" fill="#FF6584"/>
<path d="M335.494 225.014C334.639 225.014 333.803 224.761 333.093 224.286C332.382 223.811 331.828 223.136 331.501 222.346C331.174 221.556 331.088 220.687 331.255 219.849C331.422 219.011 331.833 218.241 332.438 217.636C333.042 217.032 333.812 216.62 334.651 216.453C335.489 216.287 336.358 216.372 337.148 216.699C337.937 217.026 338.612 217.58 339.087 218.291C339.562 219.002 339.816 219.837 339.816 220.692C339.814 221.838 339.359 222.937 338.548 223.747C337.738 224.557 336.64 225.013 335.494 225.014ZM335.494 217.451C334.853 217.451 334.226 217.641 333.693 217.997C333.16 218.353 332.744 218.859 332.499 219.452C332.254 220.044 332.189 220.696 332.315 221.325C332.44 221.953 332.748 222.531 333.202 222.984C333.655 223.438 334.233 223.746 334.861 223.871C335.49 223.997 336.142 223.932 336.734 223.687C337.327 223.442 337.833 223.026 338.189 222.493C338.545 221.96 338.735 221.333 338.735 220.692C338.734 219.833 338.393 219.009 337.785 218.401C337.177 217.793 336.353 217.452 335.494 217.451Z" fill="#FF6584"/>
<path d="M327.39 255.808H326.31V263.372H327.39V255.808Z" fill="#FF6584"/>
<path d="M335.494 263.912C334.639 263.912 333.803 263.659 333.093 263.184C332.382 262.709 331.828 262.034 331.501 261.244C331.174 260.454 331.088 259.585 331.255 258.747C331.422 257.909 331.833 257.139 332.438 256.534C333.042 255.93 333.812 255.518 334.651 255.351C335.489 255.185 336.358 255.27 337.148 255.597C337.937 255.924 338.612 256.478 339.087 257.189C339.562 257.9 339.816 258.735 339.816 259.59C339.814 260.736 339.359 261.835 338.548 262.645C337.738 263.455 336.64 263.911 335.494 263.912ZM335.494 256.349C334.853 256.349 334.226 256.539 333.693 256.895C333.16 257.251 332.744 257.757 332.499 258.35C332.254 258.942 332.189 259.594 332.315 260.223C332.44 260.851 332.748 261.429 333.202 261.882C333.655 262.336 334.233 262.644 334.861 262.769C335.49 262.895 336.142 262.83 336.734 262.585C337.327 262.34 337.833 261.924 338.189 261.391C338.545 260.858 338.735 260.231 338.735 259.59C338.734 258.731 338.393 257.907 337.785 257.299C337.177 256.692 336.353 256.35 335.494 256.349Z" fill="#FF6584"/>
<path d="M327.39 294.707H326.31V302.27H327.39V294.707Z" fill="#FF6584"/>
<path d="M335.494 302.81C334.639 302.81 333.803 302.557 333.093 302.082C332.382 301.607 331.828 300.932 331.501 300.142C331.174 299.352 331.088 298.483 331.255 297.645C331.422 296.807 331.833 296.037 332.438 295.432C333.042 294.828 333.812 294.416 334.651 294.249C335.489 294.083 336.358 294.168 337.148 294.495C337.937 294.822 338.612 295.376 339.087 296.087C339.562 296.798 339.816 297.633 339.816 298.488C339.814 299.634 339.359 300.733 338.548 301.543C337.738 302.353 336.64 302.809 335.494 302.81ZM335.494 295.247C334.853 295.247 334.226 295.437 333.693 295.793C333.16 296.149 332.744 296.655 332.499 297.248C332.254 297.84 332.189 298.492 332.315 299.121C332.44 299.749 332.748 300.327 333.202 300.78C333.655 301.234 334.233 301.542 334.861 301.667C335.49 301.793 336.142 301.728 336.734 301.483C337.327 301.238 337.833 300.822 338.189 300.289C338.545 299.756 338.735 299.129 338.735 298.488C338.734 297.629 338.393 296.805 337.785 296.197C337.177 295.59 336.353 295.248 335.494 295.247Z" fill="#FF6584"/>
<path d="M335.494 145.057C336.687 145.057 337.655 144.09 337.655 142.896C337.655 141.703 336.687 140.735 335.494 140.735C334.3 140.735 333.333 141.703 333.333 142.896C333.333 144.09 334.3 145.057 335.494 145.057Z" fill="#FF6584"/>
<path d="M335.494 261.751C336.687 261.751 337.655 260.784 337.655 259.59C337.655 258.397 336.687 257.429 335.494 257.429C334.3 257.429 333.333 258.397 333.333 259.59C333.333 260.784 334.3 261.751 335.494 261.751Z" fill="#FF6584"/>
<path d="M335.494 300.649C336.687 300.649 337.655 299.682 337.655 298.488C337.655 297.295 336.687 296.327 335.494 296.327C334.3 296.327 333.333 297.295 333.333 298.488C333.333 299.682 334.3 300.649 335.494 300.649Z" fill="#FF6584"/>
<path d="M243.921 107.51C246.01 107.51 247.703 105.817 247.703 103.728C247.703 101.639 246.01 99.9463 243.921 99.9463C241.833 99.9463 240.14 101.639 240.14 103.728C240.14 105.817 241.833 107.51 243.921 107.51Z" fill="#3F3D56"/>
<path d="M243.921 7.5635C246.01 7.5635 247.703 5.87036 247.703 3.78175C247.703 1.69315 246.01 0 243.921 0C241.833 0 240.14 1.69315 240.14 3.78175C240.14 5.87036 241.833 7.5635 243.921 7.5635Z" fill="#3F3D56"/>
<path d="M244.462 3.78174H243.381V103.728H244.462V3.78174Z" fill="#3F3D56"/>
<path d="M462.786 207.715V221.1C462.786 221.1 466.008 242.664 466.008 261.501C466.008 280.339 460.803 324.211 460.803 324.211C460.803 324.211 450.392 327.929 449.649 322.228C448.905 316.527 446.922 286.288 446.922 281.826C446.922 277.365 438.247 243.407 438.247 243.407L432.794 281.083C432.794 281.083 434.529 325.698 432.794 326.937C431.059 328.177 422.632 330.407 421.64 328.177C420.649 325.946 415.444 278.108 415.444 278.108C415.444 278.108 411.23 215.647 413.709 211.929C416.187 208.211 418.418 205.236 418.418 205.236C418.418 205.236 453.863 196.561 462.786 207.715Z" fill="#2F2E41"/>
<path d="M459.563 322.724L460.185 326.764C460.393 328.142 460.529 329.531 460.591 330.923C460.688 332.953 461.026 336.08 462.183 336.576C463.918 337.32 475.179 346.817 467.247 347.313C459.316 347.808 455.348 348.665 452.998 346.841C450.221 344.684 453.367 345.661 452.128 345.661C450.888 345.661 449.401 345.661 448.905 343.678C448.41 341.695 449.649 338.225 449.649 338.225V322.724H459.563Z" fill="#2F2E41"/>
<path d="M422.554 322.529L421.933 326.57C421.724 327.948 421.589 329.337 421.526 330.729C421.43 332.759 421.092 335.886 419.935 336.382C418.2 337.125 406.939 346.623 414.87 347.118C422.802 347.614 426.77 348.471 429.119 346.646C431.897 344.49 428.751 345.466 429.99 345.466C431.229 345.466 432.717 345.466 433.212 343.483C433.708 341.501 432.469 338.031 432.469 338.031V322.529H422.554Z" fill="#2F2E41"/>
<path d="M429.572 100.142C429.572 100.142 433.786 110.552 436.76 112.287C439.734 114.022 438.247 121.954 438.247 121.954L430.811 132.364H424.863L417.674 119.971C417.674 119.971 417.179 111.792 415.692 109.809C414.204 107.826 429.572 100.142 429.572 100.142Z" fill="#FFB9B9"/>
<path opacity="0.1" d="M429.572 100.142C429.572 100.142 433.786 110.552 436.76 112.287C439.734 114.022 438.247 121.954 438.247 121.954L430.811 132.364H424.863L417.674 119.971C417.674 119.971 417.179 111.792 415.692 109.809C414.204 107.826 429.572 100.142 429.572 100.142Z" fill="black"/>
<path d="M435.769 121.458L446.922 123.937L455.102 206.228C455.102 206.228 450.64 206.971 446.179 212.92C441.717 218.869 436.264 217.877 433.538 216.39C430.811 214.903 419.905 210.689 419.657 208.954C419.41 207.219 420.153 176.732 420.153 176.732L413.213 129.142L416.683 123.937H422.88L427.837 128.151L435.769 121.458Z" fill="#FF6584"/>
<path d="M418.914 113.031C426.032 113.031 431.803 107.26 431.803 100.142C431.803 93.0237 426.032 87.2532 418.914 87.2532C411.795 87.2532 406.025 93.0237 406.025 100.142C406.025 107.26 411.795 113.031 418.914 113.031Z" fill="#FFB9B9"/>
<path d="M437.504 117.245C437.504 117.245 461.794 119.723 464.025 124.929C466.256 130.134 462.538 153.185 462.538 153.185C462.538 153.185 471.461 173.262 471.213 177.971C470.965 182.681 479.64 214.903 470.222 211.185C460.803 207.467 463.777 197.8 459.068 204.741C454.358 211.681 452.375 210.689 452.375 210.689C452.375 210.689 447.666 218.373 446.179 217.629C444.692 216.886 443.7 211.185 446.922 208.458C450.145 205.732 449.649 201.023 443.452 192.1C437.256 183.176 430.811 136.33 434.529 129.142C438.247 121.954 437.504 117.245 437.504 117.245Z" fill="#575A89"/>
<path d="M462.786 212.424L458.572 216.39L453.367 212.92L455.598 207.715L462.786 212.424Z" fill="#FFB9B9"/>
<path d="M419.657 121.458C419.657 121.458 400.82 128.399 400.82 135.834C400.82 143.27 412.221 175.741 412.221 175.741C412.221 175.741 412.222 184.168 411.726 186.151C411.23 188.134 403.431 205.428 410.239 206.971C414.488 207.934 417.979 210.465 418.294 214.035C418.669 218.276 415.422 223.628 415.692 224.57C416.187 226.305 419.162 228.783 418.914 227.544C418.666 226.305 420.897 208.458 424.367 200.527C427.837 192.595 422.88 139.305 421.888 132.364C421.41 128.68 420.664 125.035 419.657 121.458Z" fill="#575A89"/>
<path d="M409.743 211.928L414.204 222.587L417.551 215.771L413.709 207.219L409.743 211.928Z" fill="#FFB9B9"/>
<path d="M433.434 108.127C433.434 108.127 437.504 109.809 439.982 109.809C442.461 109.809 452.623 115.014 449.153 118.236C445.683 121.458 440.478 122.202 437.999 126.911C435.521 131.621 434.281 132.364 434.281 132.364L429.869 126.437C429.869 126.437 436.016 119.475 435.769 117.245C435.521 115.014 433.434 108.127 433.434 108.127Z" fill="#FF6584"/>
<path d="M417.005 114.087C417.005 114.087 413.957 115.262 413.213 117.245C412.469 119.228 407.76 122.946 409.743 123.937C411.726 124.928 420.401 128.894 422.136 129.638C423.871 130.381 427.105 127.528 427.105 127.528C427.105 127.528 422.756 125.052 422.756 123.317C422.756 121.582 417.005 114.087 417.005 114.087Z" fill="#FF6584"/>
<path d="M406.769 132.364L400.82 133.852C400.82 133.852 392.64 170.535 395.119 179.706C397.598 188.877 409.247 216.39 409.247 216.39L416.683 207.715C416.683 207.715 413.44 187.988 411.591 186.697C409.743 185.407 410.982 182.681 410.982 181.937C410.982 181.194 411.726 181.689 409.991 179.954C408.256 178.219 416.435 168.552 414.204 165.826C411.974 163.099 406.769 132.364 406.769 132.364Z" fill="#575A89"/>
<path opacity="0.1" d="M465.388 139.181L461.794 125.672C461.794 125.672 471.461 132.612 473.444 142.775C475.427 152.937 483.111 173.262 478.153 182.185C473.196 191.108 464.521 216.886 461.546 216.39C458.572 215.894 451.384 209.698 451.136 208.706C450.888 207.715 464.025 184.912 462.042 183.176C460.059 181.441 460.555 176.98 462.042 175.988C463.529 174.997 465.264 170.288 464.025 170.535C462.786 170.783 459.068 168.305 459.811 165.578C460.555 162.852 456.093 144.51 456.093 144.51L465.388 139.181Z" fill="black"/>
<path d="M460.555 123.937L464.025 124.928C464.025 124.928 473.692 131.869 475.675 142.031C477.657 152.193 485.341 172.518 480.384 181.441C475.427 190.364 466.752 216.142 463.777 215.647C460.803 215.151 453.615 208.954 453.367 207.963C453.119 206.971 466.256 184.168 464.273 182.433C462.29 180.698 462.786 176.236 464.273 175.245C465.76 174.253 467.495 169.544 466.256 169.792C465.016 170.04 461.298 167.561 462.042 164.835C462.786 162.108 458.324 143.766 458.324 143.766L460.555 123.937Z" fill="#575A89"/>
<path d="M428.916 88.5079L431.333 87.6288C431.333 87.6288 426.279 82.5742 419.246 83.0138L421.224 81.0359C421.224 81.0359 416.389 79.2778 411.994 83.8928C409.684 86.3188 407.01 89.1705 405.344 92.3829H402.755L403.835 94.5439L400.054 96.7049L403.935 96.3167C403.568 98.1824 403.694 100.112 404.302 101.913L405.181 104.331C405.181 104.331 408.698 97.2984 408.698 96.4193V98.617C408.698 98.617 411.115 96.6391 411.115 95.3205L412.434 96.8589L413.093 94.4415L421.224 96.8589L419.906 94.881L424.96 95.5403L422.982 93.1229C422.982 93.1229 428.696 95.9798 428.916 98.3972C429.136 100.815 431.993 103.891 431.993 103.891L433.311 101.694C433.311 101.694 435.289 91.8043 428.916 88.5079Z" fill="#2F2E41"/>
<path d="M428.417 101.567C429.461 101.567 430.308 100.237 430.308 98.5956C430.308 96.9546 429.461 95.6243 428.417 95.6243C427.373 95.6243 426.526 96.9546 426.526 98.5956C426.526 100.237 427.373 101.567 428.417 101.567Z" fill="#FFB9B9"/>
</g>
<defs>
<clipPath id="clip0">
<rect width="500" height="348.561" fill="white"/>
</clipPath>
</defs>
</svg>
