<svg width="401" height="350" viewBox="0 0 401 350" fill="none" xmlns="http://www.w3.org/2000/svg">
<g clip-path="url(#clip0)">
<path opacity="0.2" d="M362.733 125.858H339.607V137.865H362.733V125.858Z" fill="#FF6584"/>
<path opacity="0.2" d="M364.511 140.534H341.386V152.541H364.511V140.534Z" fill="#FF6584"/>
<path opacity="0.2" d="M345.388 38.6912H322.262V50.6988H345.388V38.6912Z" fill="#FF6584"/>
<path opacity="0.2" d="M361.843 52.4778H338.717V64.4854H361.843V52.4778Z" fill="#FF6584"/>
<path opacity="0.2" d="M317.37 39.5807H294.245V51.5883H317.37V39.5807Z" fill="#FF6584"/>
<path opacity="0.2" d="M391.64 66.2643H368.514V78.2719H391.64V66.2643Z" fill="#FF6584"/>
<path opacity="0.2" d="M363.622 67.1537H340.496V79.1614H363.622V67.1537Z" fill="#FF6584"/>
<path opacity="0.2" d="M333.825 53.3672H310.699V65.3748H333.825V53.3672Z" fill="#FF6584"/>
<path opacity="0.2" d="M390.306 158.767H367.18V170.775H390.306V158.767Z" fill="#FF6584"/>
<path opacity="0.2" d="M362.288 159.657H339.162V171.665H362.288V159.657Z" fill="#FF6584"/>
<path d="M58.148 122.745C58.148 122.745 90.742 155.339 72.3437 203.685C53.9454 252.031 103.879 332.496 103.879 332.496C103.879 332.496 103.346 332.415 102.354 332.242C35.4136 320.426 2.15248 243.866 39.3939 187.008C53.216 165.843 64.5743 141.041 58.148 122.745Z" fill="#FF6584"/>
<path d="M58.1481 122.745C58.1481 122.745 76.5464 162.699 58.1481 195.288C39.7497 227.878 54.9949 319.367 103.884 332.496" stroke="#535461" stroke-width="2" stroke-miterlimit="10"/>
<path d="M0.0934143 254.57C0.0934143 254.57 37.2859 248.647 40.6747 281.979C44.0636 315.311 112.196 319.932 112.196 319.932C112.196 319.932 111.751 320.234 110.919 320.781C54.6658 357.694 0.893922 344.303 9.00129 295.272C12.0121 277.043 11.763 258.733 0.0934143 254.57Z" fill="#FF6584"/>
<path opacity="0.2" d="M0.0934143 254.57C0.0934143 254.57 37.2859 248.647 40.6747 281.979C44.0636 315.311 112.196 319.932 112.196 319.932C112.196 319.932 111.751 320.234 110.919 320.781C54.6658 357.694 0.893922 344.303 9.00129 295.272C12.0121 277.043 11.763 258.733 0.0934143 254.57Z" fill="#F5F5F5"/>
<path d="M0.0934143 254.571C0.0934143 254.571 28.9606 260.908 26.5902 287.156C24.2198 313.403 69.4619 344.886 112.196 319.932" stroke="#535461" stroke-width="2" stroke-miterlimit="10"/>
<path opacity="0.2" d="M23.406 126.302H0.280182V138.31H23.406V126.302Z" fill="#FF6584"/>
<path opacity="0.2" d="M39.8609 140.089H16.7351V152.097H39.8609V140.089Z" fill="#FF6584"/>
<path opacity="0.2" d="M164.829 0H141.703V12.0076H164.829V0Z" fill="#FF6584"/>
<path opacity="0.2" d="M347.167 221.474H324.041V233.482H347.167V221.474Z" fill="#FF6584"/>
<path opacity="0.2" d="M41.6398 154.765H18.514V166.773H41.6398V154.765Z" fill="#FF6584"/>
<path opacity="0.2" d="M181.284 13.7865H158.158V25.7942H181.284V13.7865Z" fill="#FF6584"/>
<path opacity="0.2" d="M96.7859 95.1715H73.6601V107.179H96.7859V95.1715Z" fill="#FF6584"/>
<path opacity="0.2" d="M113.241 108.958H90.115V120.966H113.241V108.958Z" fill="#FF6584"/>
<path opacity="0.2" d="M157.269 101.398H134.143V113.405H157.269V101.398Z" fill="#FF6584"/>
<path opacity="0.2" d="M115.02 123.634H91.8939V135.642H115.02V123.634Z" fill="#FF6584"/>
<path opacity="0.2" d="M378.298 221.474H355.172V233.482H378.298V221.474Z" fill="#FF6584"/>
<path d="M320.492 173.937C318.995 165.604 318.077 157.177 317.744 148.717C317.448 141.749 315.005 135.044 310.748 129.52C306.492 123.996 300.631 119.923 293.969 117.861C291.541 117.114 288.868 116.416 285.915 115.789C260.032 110.292 252.169 115.091 251.275 115.722C250.518 114.346 249.86 112.918 249.305 111.449C249.261 111.297 249.22 111.146 249.176 111.004C254.299 105.541 257.42 98.504 258.031 91.04C262.349 86.6639 264.87 81.3806 264.87 75.6925C264.87 70.8005 263.003 66.2109 259.734 62.2395V54.5102C259.734 45.5968 256.193 37.0484 249.89 30.7457C243.588 24.443 235.039 20.9022 226.126 20.9022H223.4C218.986 20.9022 214.616 21.7715 210.538 23.4604C206.461 25.1494 202.756 27.6249 199.635 30.7457C196.514 33.8665 194.039 37.5714 192.35 41.6489C190.661 45.7264 189.792 50.0967 189.792 54.5102V62.8399C186.825 66.669 185.144 71.0407 185.144 75.6836C185.144 81.2516 187.564 86.4282 191.717 90.7509C192.285 98.4883 195.549 105.781 200.941 111.36C201.123 112.623 201.31 113.979 201.492 115.411L155.196 125.191C155.196 125.191 137.345 125.924 125.844 149.651C116.118 169.748 96.7637 221.381 91.0311 236.75C89.9949 239.534 89.4079 241.131 89.4079 241.131C89.4079 241.131 89.5991 240.94 89.9594 240.611L89.4079 242.109C89.4079 242.109 89.6881 241.825 90.2218 241.358C89.4124 247.788 89.2967 258.831 97.7198 260.205C104.782 261.357 122.98 261.833 136.727 262.024H137.679C146.791 262.144 153.724 262.144 153.724 262.144V262.024H301.569V260.508C301.571 259.132 301.294 257.771 300.755 256.505L300.96 256.256C301.751 257.301 302.278 258.521 302.494 259.814C302.477 259.94 302.454 260.064 302.423 260.187L302.512 259.961C302.547 260.364 302.517 260.771 302.423 261.166C302.423 261.166 321.391 212.295 321.186 183.112C321.241 180.039 321.008 176.967 320.492 173.937ZM202.262 122.015C202.017 120.621 201.859 119.213 201.79 117.799C201.79 117.799 201.79 117.773 201.79 117.759C201.955 119.133 202.115 120.557 202.262 122.015ZM144.794 226.989V238.636L137.501 240.197L144.794 226.989Z" fill="url(#paint0_linear)"/>
<path d="M224.013 25.6029C232.927 25.6029 241.475 29.1438 247.778 35.4465C254.081 41.7492 257.621 50.2975 257.621 59.2109V73.5489H190.405V59.2109C190.405 50.2975 193.946 41.7492 200.249 35.4465C206.552 29.1438 215.1 25.6029 224.013 25.6029Z" fill="#E14B5A"/>
<path d="M224.249 104.573C245.406 104.573 262.558 92.7877 262.558 78.2497C262.558 63.7117 245.406 51.9263 224.249 51.9263C203.092 51.9263 185.94 63.7117 185.94 78.2497C185.94 92.7877 203.092 104.573 224.249 104.573Z" fill="#E14B5A"/>
<path d="M199.691 103.75C199.691 103.75 207.696 145.586 199.691 156.868C191.686 168.151 224.151 172.616 224.151 172.616L257.755 160.395L262.456 130.309C262.456 130.309 241.998 118.791 246.236 95.5229L199.691 103.75Z" fill="#F7C4A7"/>
<path d="M298.874 244.773C298.874 244.773 300.991 253.939 289.473 255.585C282.672 256.585 275.755 256.502 268.98 255.34L266.44 232.316H293.235L298.874 244.773Z" fill="#F7C4A7"/>
<path d="M95.4828 233.041C95.4828 233.041 90.3952 253.717 101.914 255.585C113.432 257.452 155.726 257.466 155.726 257.466V233.006L136.576 237.097L118.6 219.86L95.4828 233.041Z" fill="#F7C4A7"/>
<path opacity="0.1" d="M202.164 117.266L157.153 126.783C157.153 126.783 139.996 127.49 128.949 150.287C117.902 173.083 93.9263 238.191 93.9263 238.191C93.9263 238.191 114.384 217.507 138.35 239.601L154.334 210.694L150.807 256.527H274.654V234.9C274.654 234.9 300.506 248.767 298.63 256.523C298.63 256.523 320.755 199.518 315.974 173.612C314.535 165.604 313.652 157.505 313.332 149.375C313.05 142.679 310.702 136.234 306.611 130.925C302.52 125.616 296.886 121.704 290.482 119.725C288.152 119.009 285.59 118.337 282.744 117.737C256.185 112.098 249.389 117.737 249.389 117.737C249.389 117.737 244.244 134.476 244.337 142.064C244.453 151.816 230.471 158.283 230.471 158.283C230.471 158.283 209.787 153.346 208.848 149.353C207.91 145.359 200.51 121.966 202.164 117.266Z" fill="black"/>
<path d="M202.164 116.327L157.153 125.844C157.153 125.844 139.996 126.551 128.949 149.348C117.902 172.145 93.9218 237.262 93.9218 237.262C93.9218 237.262 114.379 216.578 138.346 238.672L154.329 209.764L150.802 255.585H274.654V233.962C274.654 233.962 300.506 247.828 298.63 255.585C298.63 255.585 320.755 198.579 315.974 172.674C314.535 164.666 313.652 156.567 313.332 148.436C313.05 141.74 310.702 135.295 306.611 129.987C302.52 124.678 296.886 120.766 290.482 118.787C288.152 118.071 285.59 117.399 282.744 116.799C256.185 111.159 249.389 116.799 249.389 116.799C249.389 116.799 244.244 133.538 244.337 141.125C244.453 150.878 230.471 157.344 230.471 157.344C230.471 157.344 209.787 152.408 208.848 148.414C207.91 144.421 200.51 121.028 202.164 116.327Z" fill="#575988"/>
<path opacity="0.1" d="M248.158 114.33C246.267 108.977 245.843 103.216 246.93 97.6442L200.385 105.867C200.385 105.867 201.057 109.385 201.817 114.655C204.824 117.776 208.435 120.252 212.43 121.933C216.424 123.615 220.719 124.466 225.053 124.436C229.386 124.406 233.669 123.494 237.639 121.757C241.61 120.02 245.185 117.493 248.149 114.33H248.158Z" fill="black"/>
<path d="M256.096 90.3551C256.059 98.7421 252.728 106.779 246.821 112.732C240.913 118.686 232.903 122.079 224.516 122.181C216.13 122.282 208.039 119.084 201.989 113.275C195.94 107.466 192.415 99.5126 192.175 91.129C192.175 90.871 192.175 90.6131 192.175 90.3551C192.174 84.37 193.852 78.5045 197.02 73.4263C200.188 68.3481 204.717 64.2611 210.093 61.6302C211.051 61.1618 212.035 60.7408 213.046 60.3672C218.305 58.4342 223.977 57.9068 229.501 58.8373C236.582 60.043 243.049 63.5999 247.859 68.9337C252.669 74.2675 255.541 81.0668 256.011 88.2338C256.068 88.9365 256.096 89.6436 256.096 90.3551Z" fill="#F7C4A7"/>
<g opacity="0.1">
<path opacity="0.1" d="M212.997 61.1188L213.042 61.0922C212.031 61.4657 211.047 61.8867 210.089 62.3552C204.713 64.986 200.183 69.0731 197.016 74.1513C193.848 79.2295 192.169 85.0949 192.171 91.0801C192.171 91.338 192.171 91.596 192.171 91.8539C193.165 91.8271 194.142 91.5922 195.039 91.1646C202.831 87.5267 207.492 76.3997 209.342 68.6392C210.009 65.8596 210.636 62.7288 212.997 61.1188Z" fill="black"/>
<path opacity="0.1" d="M237.462 62.0127C234.932 60.8505 232.26 60.0266 229.515 59.5623C231.766 60.0803 233.777 61.3434 235.22 63.1468C235.928 64.1092 236.515 65.1546 236.968 66.2599C232.714 64.3999 228.107 63.4863 223.465 63.5823C218.823 63.6783 214.258 64.7815 210.084 66.8158C212.09 71.2141 218.312 73.6112 222.466 75.2167C227.014 76.9719 231.609 78.5773 236.252 80.0331L232.143 76.6976L241.424 78.1741C241.524 76.3269 241.305 74.4764 240.775 72.704C242.554 74.136 244.911 74.6163 246.841 75.817C250.457 78.0985 251.964 82.488 253.935 86.2904C254.455 87.2954 255.069 88.3228 256.007 88.9587C255.628 83.2139 253.704 77.6779 250.44 72.9352C247.176 68.1925 242.692 64.4189 237.462 62.0127Z" fill="black"/>
</g>
<path d="M212.997 60.3939L213.042 60.3672C212.031 60.7408 211.047 61.1618 210.089 61.6303C204.713 64.2611 200.183 68.3482 197.016 73.4264C193.848 78.5046 192.169 84.37 192.171 90.3552C192.171 90.6131 192.171 90.8711 192.171 91.129C193.165 91.1021 194.142 90.8673 195.039 90.4397C202.831 86.8018 207.492 75.6747 209.342 67.9142C210.009 65.1525 210.636 62.0083 212.997 60.3939Z" fill="#632652"/>
<path d="M237.462 61.2922C234.932 60.13 232.26 59.3061 229.515 58.8418C231.766 59.3598 233.777 60.6229 235.22 62.4263C235.928 63.3886 236.515 64.4341 236.968 65.5394C232.714 63.6794 228.107 62.7658 223.465 62.8618C218.823 62.9578 214.258 64.061 210.084 66.0953C212.09 70.4936 218.312 72.8907 222.466 74.4962C227.014 76.2514 231.609 77.8568 236.252 79.3126L232.143 75.9771L241.424 77.4536C241.524 75.6064 241.305 73.7559 240.775 71.9835C242.554 73.4155 244.911 73.8958 246.841 75.0965C250.457 77.378 251.964 81.7674 253.935 85.5699C254.455 86.5749 255.069 87.6023 256.007 88.2382C255.628 82.4934 253.704 76.9574 250.44 72.2147C247.176 67.472 242.692 63.6984 237.462 61.2922Z" fill="#632652"/>
<path opacity="0.1" d="M188.524 85.0851C188.524 85.0851 221.434 44.1703 259.507 85.0851L256.216 75.9193C256.216 75.9193 238.351 49.8316 225.663 55.4619C212.975 61.0921 200.514 65.0991 200.514 65.0991L188.524 85.0851Z" fill="black"/>
<path d="M188.524 84.3603C188.524 84.3603 221.434 43.4454 259.507 84.3603L256.216 75.1944C256.216 75.1944 238.351 49.1067 225.663 54.737C212.975 60.3672 200.514 64.3742 200.514 64.3742L188.524 84.3603Z" fill="#E14B5A"/>
<path opacity="0.1" d="M161.494 172.501C161.494 172.501 154.445 191.304 164.313 208.226C174.182 225.147 155.619 232.201 155.619 232.201" fill="black"/>
<path opacity="0.1" d="M275.722 155.579C275.722 155.579 287.943 171.091 279.951 184.957C271.959 198.824 272.431 232.201 272.431 232.201" fill="black"/>
<path d="M150.682 246.067H286.533C289.525 246.067 292.395 247.256 294.511 249.372C296.627 251.488 297.816 254.358 297.816 257.35H139.404C139.404 254.358 140.592 251.489 142.707 249.374C144.822 247.258 147.691 246.069 150.682 246.067Z" fill="#535461"/>
<path d="M164.504 168.503H272.715C274.993 168.503 277.248 168.951 279.353 169.823C281.457 170.694 283.369 171.972 284.98 173.583C286.59 175.193 287.868 177.105 288.739 179.209C289.611 181.314 290.06 183.569 290.06 185.847V248.651H147.16V185.847C147.16 181.247 148.987 176.835 152.24 173.583C155.493 170.33 159.904 168.503 164.504 168.503Z" fill="#535461"/>
<path d="M218.49 220.567C223.164 220.567 226.953 216.778 226.953 212.104C226.953 207.429 223.164 203.64 218.49 203.64C213.816 203.64 210.027 207.429 210.027 212.104C210.027 216.778 213.816 220.567 218.49 220.567Z" fill="white"/>
<path opacity="0.1" d="M190.405 65.9085C190.405 65.9085 222.746 33.5858 257.626 65.317" stroke="black" stroke-miterlimit="10"/>
<path d="M265.795 63.8494H262.549V82.2567H265.795V63.8494Z" fill="#6A5C99"/>
<path d="M258.217 75.7592C261.185 75.7592 264.031 76.9381 266.129 79.0365C268.228 81.1349 269.407 83.981 269.407 86.9485V87.669C269.407 90.6366 268.228 93.4827 266.129 95.5811C264.031 97.6795 261.185 98.8583 258.217 98.8583V75.7592Z" fill="#FFD037"/>
<path d="M261.104 77.2046C261.104 75.8095 259.973 74.6785 258.577 74.6785C257.182 74.6785 256.051 75.8095 256.051 77.2046V97.4174C256.051 98.8125 257.182 99.9434 258.577 99.9434C259.973 99.9434 261.104 98.8125 261.104 97.4174V77.2046Z" fill="#6A5C99"/>
<path d="M181.902 82.6169H185.149V64.2096H181.902V82.6169Z" fill="#6A5C99"/>
<path d="M189.48 99.2185C186.513 99.2185 183.667 98.0397 181.568 95.9413C179.47 93.8429 178.291 90.9968 178.291 88.0292V87.3088C178.291 85.8394 178.58 84.3843 179.143 83.0268C179.705 81.6692 180.529 80.4357 181.568 79.3967C182.607 78.3577 183.841 77.5335 185.198 76.9712C186.556 76.4089 188.011 76.1194 189.48 76.1194V99.2185Z" fill="#FFD037"/>
<path d="M186.594 97.7732C186.594 99.1683 187.725 100.299 189.12 100.299C190.515 100.299 191.646 99.1683 191.646 97.7732V77.5604C191.646 76.1653 190.515 75.0343 189.12 75.0343C187.725 75.0343 186.594 76.1653 186.594 77.5604V97.7732Z" fill="#6A5C99"/>
<path d="M262.166 44.1747C257.768 35.0311 248.189 23.9752 227.54 23.0902V23.0635H227.291L219.975 23.4104V23.446C199.464 24.3888 189.929 35.4047 185.544 44.5172C182.624 50.6946 181.074 57.4304 180.999 64.263L183.525 64.2008L186.051 64.143C186.16 58.0599 187.56 52.0694 190.156 46.5674C195.724 35.129 205.971 29.0496 220.607 28.4848L227.077 28.1245C241.722 28.6849 251.973 34.7732 257.537 46.2071C260.138 51.7112 261.54 57.7049 261.651 63.7916L264.177 63.8494L266.703 63.9117C266.63 57.0828 265.083 50.3501 262.166 44.1747Z" fill="#FFD037"/>
<path d="M377.569 257.497H33.0343V350H377.569V257.497Z" fill="#D6D6E3"/>
<path opacity="0.1" d="M377.569 263.723H33.0343V275.731H377.569V263.723Z" fill="black"/>
<path d="M400.672 256.163H9.92184V268.17H400.672V256.163Z" fill="#D6D6E3"/>
</g>
<defs>
<linearGradient id="paint0_linear" x1="205.299" y1="262.166" x2="205.299" y2="20.9022" gradientUnits="userSpaceOnUse">
<stop stop-color="#808080" stop-opacity="0.25"/>
<stop offset="0.54" stop-color="#808080" stop-opacity="0.12"/>
<stop offset="1" stop-color="#808080" stop-opacity="0.1"/>
</linearGradient>
<clipPath id="clip0">
<rect width="400.672" height="350" fill="white"/>
</clipPath>
</defs>
</svg>
