<svg width="20" height="20" viewBox="0 0 20 20" fill="none" xmlns="http://www.w3.org/2000/svg">
<g clip-path="url(#clip0)">
<path d="M4.68752 4.15625C4.68752 4.15625 4.62502 4.15625 4.68752 4.15625C2.43752 4.15625 0.500016 5.5625 0.0937659 7.5C-0.156234 8.65625 0.0937659 9.84375 0.750016 10.8438C1.40627 11.75 2.50002 12.4375 3.75002 12.6875L4.84377 15.2813C4.93752 15.625 5.34377 15.875 5.75002 15.875C6.15627 15.875 6.59377 15.625 6.75002 15.2188C6.90627 14.7188 7.15627 14.2188 7.34377 13.8125C7.84377 12.6562 8.43752 11.375 8.84377 10.0625C9.34377 8.65625 9.09377 7.125 8.25002 5.96875C7.53127 4.8125 6.18752 4.15625 4.68752 4.15625ZM7.28127 9.5C6.87502 10.6562 6.37502 11.9375 5.87502 13.0938C5.87502 13.0938 5.87502 13.1875 5.78127 13.1875L4.87502 11H4.37502C3.46877 10.9063 2.62502 10.5 2.03127 9.84375C1.62502 9.25 1.43752 8.59375 1.62502 7.84375C1.96877 6.6875 3.21877 5.84375 4.62502 5.84375C5.87502 5.84375 6.56252 6.4375 6.87502 6.9375C7.43752 7.65625 7.62502 8.59375 7.28127 9.5Z" fill="#747576"/>
<path d="M19.1563 6C18.3125 4.84375 17.0625 4.25 15.4688 4.15625C15.4688 4.15625 15.4688 4.15625 15.375 4.15625C13.1875 4.15625 11.2813 5.5625 10.7813 7.5C10.5313 8.65625 10.7813 9.84375 11.4375 10.8438C12.0938 11.75 13.1875 12.4375 14.4375 12.6875L15.5313 15.2813C15.7813 15.625 16.1875 15.875 16.625 15.875C17.0313 15.875 17.4688 15.625 17.625 15.2188C17.7813 14.7188 18.0313 14.2188 18.2188 13.8125C18.7188 12.6562 19.3125 11.375 19.7188 10.0625C20.25 8.65625 20 7.0625 19.1563 6ZM18.1563 9.5C17.75 10.6562 17.25 11.9375 16.75 13.0938C16.75 13.0938 16.75 13.1875 16.6563 13.1875L15.75 11H15.25C14.3438 10.9063 13.5 10.5 12.9063 9.84375C12.5 9.25 12.3125 8.59375 12.5 7.84375C12.75 6.6875 14 5.84375 15.4375 5.84375C16.6875 5.84375 17.375 6.4375 17.6875 6.9375C18.3125 7.65625 18.5 8.59375 18.1563 9.5Z" fill="#747576"/>
</g>
<defs>
<clipPath id="clip0">
<rect width="20" height="20" fill="white"/>
</clipPath>
</defs>
</svg>
