<svg width="70" height="70" viewBox="0 0 70 70" fill="none" xmlns="http://www.w3.org/2000/svg">
<path d="M57.2031 23.8499C56.4375 23.6312 55.7812 23.4124 55.0156 23.1937C55.125 22.6468 55.2344 22.2093 55.3438 21.6624C56.9844 13.5687 55.8906 7.00618 52.1719 4.81868C48.5625 2.74055 42.6562 4.92805 36.75 10.0687C36.2031 10.6156 35.5469 11.0531 35 11.5999C34.6719 11.2718 34.2344 10.9437 33.9062 10.5062C27.6719 4.92805 21.4375 2.63118 17.7188 4.81868C14.1094 6.8968 13.0156 13.0218 14.5469 20.7874C14.6562 21.5531 14.875 22.3187 15.0938 23.0843C14.2188 23.3031 13.3438 23.6312 12.5781 23.8499C5.25 26.4749 0 30.5218 0 34.5687C0 38.8343 5.57812 43.0999 13.125 45.7249C13.7812 45.9437 14.3281 46.1624 14.9844 46.2718C14.7656 47.1468 14.5469 47.9124 14.4375 48.7874C13.0156 56.3343 14.1094 62.3499 17.7188 64.4281C21.4375 66.6156 27.6719 64.4281 33.6875 59.0687C34.125 58.6312 34.6719 58.1937 35.1094 57.7562C35.6562 58.3031 36.3125 58.8499 36.9688 59.3968C42.7656 64.4281 48.5625 66.5062 52.1719 64.4281C55.8906 62.2406 57.0938 55.7874 55.4531 47.9124C55.3438 47.3656 55.2344 46.7093 55.0156 46.0531C55.4531 45.9437 55.8906 45.8343 56.3281 45.6156C64.3125 43.2093 70 38.9437 70 34.5687C70 30.5218 64.6406 26.4749 57.2031 23.8499ZM38.7188 12.2562C43.8594 7.7718 48.5625 6.13118 50.75 7.3343C53.0469 8.6468 53.9219 14.0062 52.5 21.1156C52.3906 21.5531 52.2812 21.9906 52.1719 22.5374C49.1094 21.8812 46.0469 21.3343 42.9844 21.1156C41.2344 18.5999 39.2656 16.0843 37.1875 13.8968C37.625 13.2406 38.1719 12.8031 38.7188 12.2562ZM22.8594 41.6781C23.5156 42.8812 24.2812 44.0843 25.0469 45.1781C22.8594 44.9593 20.7812 44.6312 18.7031 44.1937C19.25 42.2249 20.0156 40.1468 20.8906 38.0687C21.5469 39.3812 22.2031 40.5843 22.8594 41.6781ZM18.7031 25.2718C20.6719 24.8343 22.75 24.5062 24.9375 24.1781C24.1719 25.2718 23.5156 26.4749 22.8594 27.6781C22.2031 28.8812 21.5469 29.9749 20.8906 31.2874C20.0156 29.2093 19.3594 27.2406 18.7031 25.2718ZM22.4219 34.6781C23.2969 32.8187 24.2812 30.9593 25.375 29.0999C26.4688 27.2406 27.5625 25.4906 28.6562 23.7406C30.7344 23.6312 32.8125 23.5218 34.8906 23.5218C36.9688 23.5218 39.1562 23.6312 41.125 23.7406C42.3281 25.4906 43.4219 27.2406 44.4062 28.9906C45.3906 30.7406 46.4844 32.5999 47.3594 34.5687C46.4844 36.4281 45.5 38.2874 44.4062 40.1468C43.3125 42.0062 42.2188 43.7562 41.125 45.5062C39.0469 45.6156 36.9688 45.7249 34.7812 45.7249C32.5938 45.7249 30.5156 45.6156 28.5469 45.5062C27.3438 43.7562 26.25 42.0062 25.1562 40.1468C24.0625 38.2874 23.4062 36.5374 22.4219 34.6781ZM47.1406 41.6781C47.7969 40.4749 48.4531 39.2718 49.1094 38.0687C49.9844 40.0374 50.75 42.1156 51.4062 44.0843C49.3281 44.5218 47.1406 44.9593 44.9531 45.1781C45.7188 44.0843 46.4844 42.8812 47.1406 41.6781ZM49.1094 31.1781C48.4531 29.9749 47.7969 28.7718 47.1406 27.5687C46.4844 26.3656 45.7188 25.2718 45.0625 24.1781C47.25 24.5062 49.3281 24.8343 51.2969 25.2718C50.75 27.3499 49.9844 29.3187 49.1094 31.1781ZM35 15.8656C36.4219 17.3968 37.7344 19.0374 39.0469 20.7874C36.3125 20.6781 33.5781 20.6781 30.9531 20.7874C32.2656 18.9281 33.6875 17.2874 35 15.8656ZM19.1406 7.44368C21.4375 6.13118 26.5781 7.99055 31.9375 12.8031C32.2656 13.1312 32.5938 13.4593 33.0312 13.7874C30.9531 16.0843 28.9844 18.4906 27.125 21.0062C24.0625 21.3343 21 21.7718 17.9375 22.4281C17.7188 21.7718 17.6094 21.0062 17.5 20.3499C16.1875 13.6781 17.0625 8.75618 19.1406 7.44368ZM15.8594 43.5374C15.3125 43.3187 14.7656 43.2093 14.1094 42.9906C11.1562 42.1156 7.875 40.5843 5.46875 38.7249C4.04688 37.7406 3.17188 36.3187 2.84375 34.6781C2.84375 32.1624 7.21875 28.9906 13.4531 26.8031C14.2188 26.4749 14.9844 26.2562 15.8594 26.0374C16.8438 28.9906 17.9375 31.9437 19.25 34.7874C17.9375 37.5218 16.7344 40.4749 15.8594 43.5374ZM31.7188 56.8812C29.4219 58.9593 26.7969 60.5999 23.9531 61.6937C22.4219 62.4593 20.6719 62.4593 19.1406 61.9124C16.9531 60.5999 16.0781 55.7874 17.2812 49.3343C17.3906 48.5687 17.6094 47.8031 17.8281 47.0374C20.8906 47.6937 23.9531 48.1312 27.125 48.3499C28.875 50.8656 30.9531 53.3812 33.0312 55.6781C32.5938 56.1156 32.1562 56.5531 31.7188 56.8812ZM35.1094 53.5999C33.6875 52.0687 32.375 50.4281 30.9531 48.6781C32.2656 48.6781 33.5781 48.7874 35 48.7874C36.4219 48.7874 37.8438 48.7874 39.1562 48.6781C37.8438 50.3187 36.5312 51.9593 35.1094 53.5999ZM52.9375 57.6468C52.8281 59.2874 51.9531 60.9281 50.6406 61.9124C48.4531 63.2249 43.8594 61.5843 38.8281 57.2093C38.2812 56.6624 37.7344 56.2249 37.0781 55.6781C39.1562 53.3812 41.125 50.9749 42.875 48.3499C46.0469 48.1312 49.1094 47.5843 52.1719 46.9281C52.2812 47.4749 52.3906 48.0218 52.5 48.5687C53.2656 51.5218 53.375 54.6937 52.9375 57.6468ZM55.4531 42.9906C55.125 43.0999 54.6875 43.2093 54.25 43.3187C53.2656 40.3656 52.0625 37.4124 50.75 34.5687C52.0625 31.8343 53.1562 28.8812 54.1406 25.9281C54.9062 26.1468 55.5625 26.3656 56.2188 26.5843C62.5625 28.7718 67.0469 32.0531 67.0469 34.5687C67.0469 37.3031 62.3438 40.6937 55.4531 42.9906ZM35 40.9124C38.5 40.9124 41.2344 38.0687 41.2344 34.6781C41.2344 31.2874 38.3906 28.4437 35 28.4437C31.6094 28.4437 28.7656 31.2874 28.7656 34.6781C28.7656 38.0687 31.5 40.9124 35 40.9124Z" fill="#747576"/>
</svg>
