<svg width="472" height="350" viewBox="0 0 472 350" fill="none" xmlns="http://www.w3.org/2000/svg">
<g clip-path="url(#clip0)">
<path opacity="0.1" d="M93.5126 51.467C91.0692 54.432 90.1284 58.6009 89.0761 62.5201C80.6046 94.1056 59.7289 119.511 35.9551 137.658C25.8873 145.345 13.6303 155.654 15.8329 169.436C17.0189 176.837 22.2222 182.286 26.0879 188.314C34.1983 200.936 36.829 218.094 32.9633 233.204C28.567 250.397 16.2788 266.439 20.082 283.824C22.4273 294.525 30.3906 302.14 38.0462 308.686C49.9896 318.89 62.3135 328.45 75.0178 337.364C83.534 343.339 92.5941 349.153 102.519 349.911C111.258 350.58 119.819 347.258 128.117 343.981C135.366 341.114 142.799 338.131 148.653 332.388C152.475 328.638 155.52 323.801 159.765 320.733C169.734 313.528 182.54 318.094 193.972 321.179C220.947 328.42 249.817 325.776 275.486 313.715C314.861 295.211 344.872 256.354 383.387 235.505C399.946 226.538 417.96 220.974 433.293 209.426C441.932 202.851 449.356 194.817 455.23 185.688C466.823 167.804 473.092 145.002 471.281 122.682C469.471 100.361 459.328 78.8524 443.397 66.2521C426.342 52.7645 404.802 50.2453 385.398 42.1483C365.36 33.7837 347.534 19.4088 327.689 10.4334C311.63 3.19099 294.154 -0.364298 276.542 0.0284143C258.93 0.421126 241.629 4.75188 225.91 12.7029C204.312 23.6268 182.419 49.1128 158.365 51.0478C141.225 52.3855 106.898 35.2283 93.5126 51.467Z" fill="#FF6584"/>
<path d="M375.468 199.893C375.468 199.893 383.271 215.209 376.913 223.587C370.555 231.965 377.492 254.798 377.492 254.798" stroke="#FF6584" stroke-miterlimit="10"/>
<path d="M377.778 195.127C377.778 198.078 375.611 200.477 375.611 200.477C375.611 200.477 373.444 198.083 373.444 195.127C373.444 192.171 375.611 189.776 375.611 189.776C375.611 189.776 377.778 192.175 377.778 195.127Z" fill="#FF6584"/>
<path d="M379.512 199.893C379.512 199.893 371.709 215.209 378.068 223.587C384.426 231.965 377.488 254.798 377.488 254.798" stroke="#FF6584" stroke-miterlimit="10"/>
<path d="M377.203 195.127C377.203 198.078 379.37 200.477 379.37 200.477C379.37 200.477 381.536 198.083 381.536 195.127C381.536 192.171 379.37 189.776 379.37 189.776C379.37 189.776 377.203 192.175 377.203 195.127Z" fill="#FF6584"/>
<path opacity="0.1" d="M377.203 195.127C377.203 198.078 379.37 200.477 379.37 200.477C379.37 200.477 381.536 198.083 381.536 195.127C381.536 192.171 379.37 189.776 379.37 189.776C379.37 189.776 377.203 192.175 377.203 195.127Z" fill="black"/>
<path d="M382.691 199.893C382.691 199.893 390.494 215.209 384.136 223.587C377.778 231.965 384.716 254.798 384.716 254.798" stroke="#FF6584" stroke-miterlimit="10"/>
<path d="M385.001 195.127C385.001 198.078 382.834 200.477 382.834 200.477C382.834 200.477 380.667 198.083 380.667 195.127C380.667 192.171 382.834 189.776 382.834 189.776C382.834 189.776 385.001 192.175 385.001 195.127Z" fill="#FF6584"/>
<path d="M383.788 207.397C381.742 209.524 378.518 209.747 378.518 209.747C378.518 209.747 378.616 206.519 380.663 204.396C382.709 202.274 385.933 202.047 385.933 202.047C385.933 202.047 385.835 205.27 383.788 207.397Z" fill="#FF6584"/>
<path d="M383.993 217.964C381.947 220.091 378.723 220.314 378.723 220.314C378.723 220.314 378.821 217.086 380.868 214.963C382.914 212.841 386.138 212.614 386.138 212.614C386.138 212.614 386.058 215.833 383.993 217.964Z" fill="#FF6584"/>
<path d="M372.891 223.774C374.826 226.003 374.759 229.231 374.759 229.231C374.759 229.231 371.553 228.843 369.618 226.614C367.683 224.385 367.75 221.157 367.75 221.157C367.75 221.157 370.956 221.545 372.891 223.774Z" fill="#FF6584"/>
<path d="M374.688 201.244C377.149 202.876 377.947 206.006 377.947 206.006C377.947 206.006 374.755 206.492 372.294 204.86C369.832 203.228 369.034 200.098 369.034 200.098C369.034 200.098 372.236 199.612 374.688 201.244Z" fill="#FF6584"/>
<path opacity="0.1" d="M374.688 201.244C377.149 202.876 377.947 206.006 377.947 206.006C377.947 206.006 374.755 206.492 372.294 204.86C369.832 203.228 369.034 200.098 369.034 200.098C369.034 200.098 372.236 199.612 374.688 201.244Z" fill="black"/>
<path d="M386.735 199.893C386.735 199.893 378.924 215.209 385.291 223.6C391.658 231.991 384.711 254.811 384.711 254.811" stroke="#FF6584" stroke-miterlimit="10"/>
<path d="M384.426 195.127C384.426 198.078 386.593 200.477 386.593 200.477C386.593 200.477 388.76 198.083 388.76 195.127C388.76 192.171 386.593 189.776 386.593 189.776C386.593 189.776 384.426 192.175 384.426 195.127Z" fill="#FF6584"/>
<path opacity="0.1" d="M384.426 195.127C384.426 198.078 386.593 200.477 386.593 200.477C386.593 200.477 388.76 198.083 388.76 195.127C388.76 192.171 386.593 189.776 386.593 189.776C386.593 189.776 384.426 192.175 384.426 195.127Z" fill="black"/>
<path d="M385.05 207.624C382.977 209.729 382.821 212.975 382.821 212.975C382.821 212.975 386.044 212.792 388.118 210.687C390.191 208.583 390.347 205.337 390.347 205.337C390.347 205.337 387.119 205.52 385.05 207.624Z" fill="#FF6584"/>
<path opacity="0.1" d="M385.05 207.624C382.977 209.729 382.821 212.975 382.821 212.975C382.821 212.975 386.044 212.792 388.118 210.687C390.191 208.583 390.347 205.337 390.347 205.337C390.347 205.337 387.119 205.52 385.05 207.624Z" fill="black"/>
<path d="M389.112 222.262C387.039 224.367 386.882 227.613 386.882 227.613C386.882 227.613 390.106 227.43 392.179 225.325C394.253 223.221 394.409 219.975 394.409 219.975C394.409 219.975 391.185 220.149 389.112 222.262Z" fill="#FF6584"/>
<path d="M383.133 219.039C383.133 219.039 387.828 211.637 394.422 211.459" stroke="#FF6584" stroke-miterlimit="10"/>
<path d="M379.477 214.567C379.477 214.567 374.781 207.165 368.187 206.987" stroke="#FF6584" stroke-miterlimit="10"/>
<path d="M378.866 225.134C378.866 225.134 383.561 217.732 390.155 217.554" stroke="#FF6584" stroke-miterlimit="10"/>
<path d="M394.208 212.636C394.88 212.636 395.425 212.091 395.425 211.419C395.425 210.747 394.88 210.202 394.208 210.202C393.536 210.202 392.991 210.747 392.991 211.419C392.991 212.091 393.536 212.636 394.208 212.636Z" fill="#FF6584"/>
<path d="M368.303 208.266C368.975 208.266 369.52 207.721 369.52 207.049C369.52 206.377 368.975 205.832 368.303 205.832C367.631 205.832 367.086 206.377 367.086 207.049C367.086 207.721 367.631 208.266 368.303 208.266Z" fill="#FF6584"/>
<path d="M382.321 227.573C382.321 227.573 377.626 220.171 371.032 219.993" stroke="#FF6584" stroke-miterlimit="10"/>
<path d="M371.148 221.272C371.82 221.272 372.365 220.728 372.365 220.055C372.365 219.383 371.82 218.838 371.148 218.838C370.475 218.838 369.93 219.383 369.93 220.055C369.93 220.728 370.475 221.272 371.148 221.272Z" fill="#FF6584"/>
<path d="M390.244 218.834C390.917 218.834 391.462 218.289 391.462 217.616C391.462 216.944 390.917 216.399 390.244 216.399C389.572 216.399 389.027 216.944 389.027 217.616C389.027 218.289 389.572 218.834 390.244 218.834Z" fill="#FF6584"/>
<path d="M408.28 245.893C408.28 245.893 396.964 243.628 393.945 240.61C390.926 237.591 377.345 232.326 375.838 236.084C374.331 239.843 355.466 252.684 368.294 254.949C381.122 257.214 398.475 257.968 402.247 256.456C406.019 254.945 408.28 245.893 408.28 245.893Z" fill="#A8A8A8"/>
<path opacity="0.2" d="M368.29 253.558C381.117 255.823 398.471 256.577 402.243 255.065C405.114 253.915 407.112 248.377 407.901 245.827L408.28 245.907C408.28 245.907 406.015 254.963 402.243 256.47C398.471 257.977 381.117 257.223 368.29 254.963C364.589 254.307 363.528 252.773 363.929 250.834C364.246 252.096 365.548 253.072 368.29 253.558Z" fill="black"/>
<path d="M29.9848 262.239C29.9848 262.239 33.7212 267.144 28.2593 274.501C22.7974 281.858 18.2941 288.104 20.1177 292.71C20.1177 292.71 28.3574 279.008 35.0633 278.817C41.7692 278.625 37.3596 270.479 29.9848 262.239Z" fill="#FF6584"/>
<path opacity="0.1" d="M29.9848 262.239C30.3104 262.712 30.5671 263.228 30.7473 263.773C37.2927 271.46 40.7749 278.634 34.4881 278.817C28.6294 278.986 21.6024 289.46 19.9171 292.108C19.9727 292.312 20.0397 292.513 20.1177 292.71C20.1177 292.71 28.3574 279.008 35.0633 278.817C41.7692 278.625 37.3595 270.479 29.9848 262.239Z" fill="black"/>
<path d="M36.9404 268.463C36.9404 270.185 36.7487 271.585 36.4946 271.585C36.2404 271.585 36.0487 270.189 36.0487 268.463C36.0487 266.738 36.2895 267.572 36.5258 267.572C36.7621 267.572 36.9404 266.747 36.9404 268.463Z" fill="#FFD037"/>
<path d="M39.3125 270.519C37.801 271.344 36.4856 271.857 36.3742 271.629C36.2627 271.402 37.3908 270.581 38.9023 269.761C40.4138 268.941 39.8163 269.538 39.9322 269.761C40.0482 269.984 40.824 269.694 39.3125 270.519Z" fill="#FFD037"/>
<path d="M10.2461 262.239C10.2461 262.239 6.50974 267.144 11.9717 274.501C17.4336 281.858 21.9369 288.104 20.1133 292.706C20.1133 292.706 11.8736 279.004 5.16766 278.812C-1.53824 278.621 2.87142 270.479 10.2461 262.239Z" fill="#FF6584"/>
<path opacity="0.1" d="M10.2461 262.239C9.92053 262.712 9.66381 263.228 9.48369 263.773C2.94275 271.46 -0.543958 278.634 5.72945 278.812C11.5882 278.982 18.6151 289.455 20.3005 292.104C20.2449 292.308 20.1779 292.509 20.0999 292.706C20.0999 292.706 11.8602 279.004 5.15428 278.812C-1.55163 278.621 2.87141 270.479 10.2461 262.239Z" fill="black"/>
<path d="M3.30389 268.463C3.30389 270.185 3.49562 271.585 3.74977 271.585C4.00391 271.585 4.19564 270.189 4.19564 268.463C4.19564 266.738 3.95487 267.572 3.71855 267.572C3.48224 267.572 3.30389 266.747 3.30389 268.463Z" fill="#FFD037"/>
<path d="M0.91848 270.519C2.42998 271.344 3.74531 271.857 3.85677 271.629C3.96824 271.402 2.84018 270.581 1.32868 269.761C-0.182823 268.941 0.414645 269.538 0.298719 269.761C0.182792 269.984 -0.593024 269.694 0.91848 270.519Z" fill="#FFD037"/>
<path d="M4.48993 292.063C4.48993 292.063 14.9367 291.742 18.0845 289.5C21.2324 287.257 34.1359 284.595 34.934 288.162C35.7321 291.729 50.6331 306.046 38.8398 306.14C27.0466 306.233 11.4366 304.303 8.29767 302.403C5.15874 300.504 4.48993 292.063 4.48993 292.063Z" fill="#A8A8A8"/>
<path opacity="0.2" d="M39.0539 304.905C27.2606 304.998 11.6506 303.068 8.50723 301.155C6.1129 299.697 5.15873 294.467 4.84216 292.055H4.49438C4.49438 292.055 5.15427 300.482 8.29767 302.394C11.4411 304.307 27.051 306.242 38.8443 306.144C42.2508 306.117 43.4234 304.905 43.361 303.112C42.8884 304.209 41.5864 304.882 39.0539 304.905Z" fill="black"/>
<path d="M304.142 224.648C299.518 224.645 294.912 225.232 290.436 226.396L273.997 175.655L273.783 174.996L275.183 174.585C278.482 167.331 269.685 166.243 269.685 166.243L268.945 166.493C264.295 165.155 256.238 164.446 247.878 164.116V153.986C247.899 148.43 248.903 142.922 250.843 137.716C251.079 137.079 251.289 136.481 251.449 135.91C251.485 135.795 251.52 135.679 251.552 135.567L251.61 135.358C251.65 135.21 251.694 135.059 251.73 134.912C251.766 134.765 251.784 134.707 251.806 134.6C251.828 134.493 251.859 134.39 251.882 134.288L251.913 134.14C251.949 133.989 251.98 133.842 252.011 133.695C252.011 133.632 252.033 133.57 252.047 133.507C252.06 133.445 252.096 133.258 252.118 133.133C252.14 133.008 252.145 132.963 252.158 132.879C252.171 132.794 252.189 132.691 252.203 132.602C252.216 132.513 252.203 132.486 252.225 132.428C252.247 132.37 252.256 132.21 252.27 132.103V132.018C252.27 131.889 252.301 131.759 252.31 131.635C252.319 131.51 252.31 131.523 252.31 131.465C252.31 131.407 252.31 131.282 252.31 131.193C252.31 131.104 252.31 131.104 252.31 131.059C252.31 131.015 252.31 130.872 252.31 130.779C252.31 130.685 252.31 130.591 252.31 130.502C252.31 130.413 252.31 130.431 252.31 130.395C252.31 130.359 252.31 130.248 252.31 130.177C252.31 130.105 252.31 130.083 252.31 130.043C252.31 130.003 252.31 129.936 252.31 129.882C252.31 129.829 252.31 129.771 252.31 129.717C252.31 129.664 252.31 129.61 252.31 129.557C252.31 129.503 252.31 129.463 252.31 129.419C252.138 127.694 252.114 125.958 252.238 124.229L252.863 116.417C254.7 115.855 256.413 114.947 257.91 113.742C257.91 113.742 258.307 102.091 259.502 92.8705C260.27 87.1348 259.577 81.2979 257.485 75.9021C255.394 70.5062 251.972 65.7266 247.539 62.0073C246.736 61.343 245.902 60.7054 245.033 60.1124C245.198 59.4818 245.323 58.8414 245.408 58.1951C245.805 57.4666 246.28 56.7833 246.825 56.1575C247.574 55.4174 248.609 54.9938 249.465 54.374C251.333 52.9784 252.14 50.7045 252.675 48.5286C253.772 44.0699 254.089 39.2233 252.229 34.9786C250.37 30.7339 245.849 27.2695 240.931 27.4924C239.424 27.5593 237.953 27.9383 236.472 28.1122C232.558 28.509 228.683 27.2205 224.755 26.9841C223.616 26.8444 222.46 26.9979 221.397 27.43C220.6 27.8668 219.91 28.4761 219.378 29.2135C217.58 31.5402 216.347 34.2524 215.775 37.1366C215.293 39.308 215.293 41.2743 212.605 41.5953C209.577 41.9743 199.862 39.9412 201.904 46.3439C202.88 49.3713 207.566 49.465 209.97 51.6943C211.218 52.8536 211.793 54.5657 213.167 55.6002L213.22 55.6358C206.978 55.7295 196.674 58.1996 190.601 72.0171C181.443 92.8661 175.945 99.6612 168.615 105.105C161.642 110.282 158.4 126.953 158.102 128.549C156.171 133.423 155.119 142.371 161.285 157.228C166.511 169.823 171.059 178.398 174.264 184.84L173.636 184.782C172.298 184.68 170.967 184.503 169.65 184.252C164.482 183.271 151.458 181.22 147.953 184.698C143.553 189.049 145.02 196.669 156.751 197.757C159.433 197.982 162.126 198.045 164.816 197.945V217.05L164.562 217.206C162.266 218.575 160.054 219.801 158.565 220.608L158.021 220.902C157.592 220.197 157.233 219.45 156.951 218.673L144.841 226.636L150.852 231.626L144.739 237.944C144.547 237.774 144.36 237.6 144.168 237.431C134.354 229.037 121.858 224.437 108.944 224.465C79.1823 224.465 55.0607 248.341 55.0607 277.791C55.0607 307.241 79.1868 331.117 108.944 331.117C135.598 331.117 157.731 311.945 162.061 286.807C172.316 287.569 181.849 287.801 188.109 286.887V293.031H215.588V285.603L216.274 285.558C228.638 284.667 222.227 279.214 222.227 279.214C219.391 279.214 216.27 277.635 214.076 276.257C213.305 275.771 212.511 275.33 211.7 274.92C212.444 272.277 212.218 269.456 211.062 266.965L273.738 202.314L283.316 228.799L282.678 229.062C263.599 237.266 250.254 256.086 250.254 277.992C250.254 307.446 274.38 331.318 304.138 331.318C333.895 331.318 358.026 307.424 358.026 277.996C358.026 248.569 333.891 224.648 304.142 224.648ZM307.014 317.951L304.784 283.534C305.197 283.476 305.602 283.374 305.993 283.231L324.407 312.609C319.086 315.678 313.14 317.504 307.014 317.951ZM271.072 301.507L299.273 281.278L299.327 281.349L287.761 314.741C281.123 311.886 275.364 307.319 271.072 301.507ZM323.061 242.237L307.584 272.838C306.861 272.165 305.979 271.687 305.021 271.446L304.646 270.292L305.712 237.565C311.77 237.812 317.696 239.407 323.061 242.233V242.237ZM303.83 267.741L294.404 238.657C297.533 237.913 300.739 237.537 303.955 237.538H304.811L303.83 267.741ZM287.074 241.154C287.284 241.06 287.52 240.976 287.707 240.882L299.336 273.092C298.876 273.56 298.499 274.103 298.221 274.697L268.41 258.155C269.531 256.193 270.815 254.329 272.249 252.582L275.575 248.966C278.933 245.723 282.822 243.081 287.074 241.154ZM268.013 258.949L297.949 275.562C297.814 276.053 297.745 276.56 297.744 277.069C297.744 277.145 297.744 277.22 297.744 277.296L263.296 276.69C263.457 270.492 265.066 264.418 267.995 258.953L268.013 258.949ZM309.805 277.171L342.808 265.788C344.563 271.371 345.071 277.271 344.297 283.071C343.523 288.871 341.485 294.431 338.327 299.358L308.953 280.832C309.53 279.924 309.839 278.871 309.845 277.796C309.837 277.588 309.817 277.381 309.787 277.176L309.805 277.171ZM342.541 264.923L309.631 276.275C309.301 275.317 308.852 274.405 308.293 273.56L323.899 242.665C332.644 247.53 339.279 255.461 342.523 264.928L342.541 264.923ZM265.053 178.291L267.367 184.684L227.452 196.981L227.038 188.737L249.777 182.049C249.824 182.559 249.793 183.074 249.683 183.574C250.258 182.972 250.776 182.318 251.231 181.621L264.794 177.635L265.053 178.291ZM111.816 317.759L109.586 283.427C110.037 283.42 110.486 283.362 110.924 283.253L129.205 312.444C123.883 315.503 117.938 317.32 111.816 317.759ZM75.8739 301.324L104.075 281.117L104.129 281.189L92.5629 314.558C85.9254 311.704 80.1658 307.137 75.8739 301.324ZM68.0846 276.507C68.2485 270.308 69.8609 264.234 72.793 258.77L103.237 275.664C103.073 276.129 102.969 276.613 102.929 277.105L68.0846 276.507ZM127.863 242.055L113.76 269.971L111.602 272.2C110.929 271.941 110.214 271.808 109.493 271.808H109.408L110.509 237.386C116.569 237.632 122.497 239.227 127.863 242.055ZM141.355 253.514C143.93 256.915 145.944 260.707 147.32 264.745L117.674 274.969L141.355 253.514ZM115.962 276.52L147.619 265.61C147.916 266.594 148.19 267.594 148.439 268.611C148.493 268.843 148.542 269.057 148.591 269.302C134.363 272.258 121.094 275.522 115.543 276.917L115.962 276.52ZM108.489 271.821C107.606 271.857 106.742 272.092 105.961 272.508L93.9719 240.097C98.6887 238.279 103.702 237.349 108.757 237.355C109.042 237.355 109.328 237.355 109.613 237.355L108.489 271.821ZM105.159 273.025C104.517 273.512 103.982 274.127 103.589 274.831L73.2344 257.972C74.3535 256.006 75.6362 254.137 77.0689 252.385L80.404 248.756C84.0832 245.207 88.3969 242.382 93.1202 240.427L105.159 273.025ZM148.64 285.576C147.659 290.411 145.787 295.021 143.12 299.171L114.29 280.988C120.171 281.924 134.011 284.02 148.64 285.576ZM161.512 266.047C159.725 258.218 156.179 250.899 151.141 244.645L152.555 243.365L164.843 255.364V266.19C163.791 266.371 162.731 266.558 161.664 266.751C161.615 266.515 161.57 266.283 161.517 266.051L161.512 266.047ZM164.843 243.258L164.576 243L164.843 243.218V243.258ZM174.376 227.55L174.407 227.528L175.08 227.082L175.379 226.882L175.709 226.663L176.084 226.418L176.431 226.195L176.855 225.923L177.207 225.7L177.724 225.379L178.041 225.183L178.594 224.848C178.813 226.871 179.317 228.853 180.092 230.734L180.266 246.71C177.68 243.804 175.681 240.426 174.376 236.762V227.55ZM225.477 157.549C226.561 158.512 227.261 159.109 227.261 159.109C227.261 159.109 229.557 161.178 232.17 163.853C229.847 163.853 227.689 163.853 225.794 163.902L225.477 157.549ZM226.275 173.444C229.998 173.573 234.84 173.703 239.995 173.738C240.03 173.85 240.066 173.961 240.088 174.064C241.141 174.389 242.17 174.785 243.169 175.25L226.645 180.859L226.275 173.444ZM230.475 144.15C230.475 144.15 227.073 135.233 222.922 128.491C225.111 122.08 229.191 115.298 236.811 112.293L236.758 112.904L236.731 113.233C236.49 116.047 236.214 119.476 235.977 122.998V123.203C235.951 123.622 235.922 124.043 235.893 124.465V124.683L235.861 125.201L235.83 125.709L235.803 126.155C235.786 126.452 235.768 126.749 235.75 127.047V127.301C235.75 127.556 235.737 127.812 235.71 128.068V128.366C235.695 128.664 235.68 128.97 235.665 129.285V129.338C235.647 129.68 235.633 130.019 235.621 130.355V130.507C235.621 130.804 235.609 131.113 235.585 131.434V131.505C235.558 132.186 235.537 132.85 235.523 133.498V133.57C235.523 134.216 235.496 134.84 235.487 135.442V135.496C235.487 136.102 235.487 136.682 235.487 137.23C235.487 137.495 235.487 137.753 235.487 138.006V138.055C235.487 138.555 235.518 139.023 235.545 139.455V139.535C235.572 139.955 235.607 140.342 235.647 140.686V140.766C235.665 140.912 235.685 141.05 235.705 141.181V141.252C235.732 141.395 235.754 141.533 235.786 141.653V141.702C235.808 141.805 235.835 141.899 235.861 141.983L235.884 142.059C235.912 142.146 235.947 142.231 235.986 142.313C236.749 143.82 237.114 148.457 237.279 153.366C233.351 148.292 230.471 144.141 230.471 144.141L230.475 144.15ZM174.376 263.978V251.124L180.368 256.091L180.453 263.987C178.536 264.174 176.498 264.433 174.371 264.709L174.376 263.978ZM174.376 197.222C175.927 197.026 177.452 196.776 178.928 196.536C179.148 197.639 179.232 198.765 179.178 199.889V206.688H179.486C177.72 207.807 176.015 209.017 174.376 210.313V197.227V197.222ZM135.612 247.378L115.9 267.741L128.661 242.483C130.919 243.74 133.052 245.209 135.032 246.87C135.233 247.035 135.42 247.231 135.612 247.378ZM68.0712 277.613C68.0712 277.546 68.0712 277.479 68.0712 277.412L102.929 278.028C102.985 278.834 103.212 279.62 103.594 280.333L75.3567 300.589C70.6114 293.867 68.0661 285.84 68.0712 277.613ZM108.761 317.879C103.501 317.885 98.2888 316.877 93.4101 314.91L104.838 281.915C105.894 282.86 107.256 283.391 108.672 283.409L110.902 317.817C110.193 317.857 109.479 317.879 108.761 317.879ZM129.994 311.958L111.807 282.945C112.505 282.648 113.14 282.218 113.675 281.679L142.612 299.933C139.323 304.806 135.019 308.908 129.994 311.958ZM203.643 260.652C202.588 260.354 201.497 260.204 200.401 260.206H200.036H199.67C197.817 260.201 195.988 260.633 194.333 261.468C193.557 256.679 193.165 250.58 194.899 245.885C195.932 243.048 196.708 240.125 197.218 237.15L200.941 216.096L270.216 192.59L271.063 194.935L203.643 260.652ZM263.269 277.796C263.269 277.729 263.269 277.662 263.269 277.595L297.838 278.206C298.093 278.998 298.406 279.77 298.774 280.515L270.537 300.771C265.798 294.048 263.259 286.021 263.269 277.796ZM303.959 318.062C298.699 318.068 293.487 317.06 288.608 315.093L300.036 282.098C301.092 283.043 302.454 283.573 303.87 283.592L306.1 318.004C305.389 318.043 304.676 318.062 303.959 318.062ZM325.196 312.146L306.831 282.852C307.428 282.519 307.962 282.084 308.409 281.568L337.837 300.12C334.541 304.995 330.229 309.098 325.196 312.146Z" fill="url(#paint0_linear)"/>
<path d="M303.826 319.864L301.034 276.213L300.976 276.119L298.159 277.1L285.188 314.914L264.567 300.29L297.423 276.476L297.454 276.382L297.641 276.315L299.759 274.777L265.32 255.466L256.88 264.741L258.217 273.435L297.811 274.139V275.031L257.468 274.309L255.952 264.451L267.496 251.766L284.76 231.626L285.068 232.459L288.724 228.447L302.341 230.886V230.346L303.233 230.373V231.046L323.457 234.667L304.584 272.409L301.833 274.403V274.625V274.875L345.443 259.68L340.267 300.348L303.259 276.775L301.957 276.043L323.778 311.218L303.826 319.864ZM302.042 277.8L304.65 318.544L322.508 310.795L302.042 277.8ZM266.118 300.29L284.751 313.501L296.941 277.947L266.118 300.29ZM302.822 275.473L303.754 275.994L339.58 298.823L344.395 260.982L302.822 275.473ZM299.657 272.262L300.776 274.068L300.972 273.925L302.31 231.777L289.049 229.396L285.411 233.409L299.657 272.262ZM266.042 254.851L299.411 273.578L298.832 272.628L284.751 234.163L268.165 252.39L266.042 254.851ZM303.215 231.938L301.877 273.266L303.892 271.803L322.133 235.322L303.215 231.938Z" fill="#535461"/>
<path d="M113.8 319.685L111.004 276.017L110.946 275.923L108.128 276.904L95.1623 314.736L74.5407 300.116L107.388 276.302L107.419 276.208L107.607 276.141L109.724 274.603L75.2854 255.293L66.8495 264.567L68.1871 273.261L107.789 273.983V274.875L67.4469 274.153L65.9221 264.281L77.4701 251.592L94.7476 231.438L95.0553 232.272L98.7114 228.259L112.293 230.694V230.154L113.184 230.181V230.854L133.409 234.475L114.553 272.2L111.802 274.193V274.416V274.666L155.408 259.47L150.232 300.138L113.225 276.565L111.923 275.834L133.744 311.004L113.8 319.685ZM112.016 277.622L114.625 318.365L132.482 310.616L112.016 277.622ZM76.0879 300.107L94.7209 313.318L106.911 277.764L76.0879 300.107ZM112.792 275.29L113.724 275.812L149.55 298.64L154.365 260.799L112.792 275.29ZM109.626 272.08L110.745 273.885L110.942 273.743L112.279 231.594L99.0191 229.222L95.3808 233.235L109.626 272.08ZM75.9987 254.664L109.368 273.39L108.788 272.441L94.7075 233.975L78.1255 252.198L75.9987 254.664ZM113.184 231.751L111.847 273.092L113.862 271.629L132.103 235.148L113.184 231.751Z" fill="#535461"/>
<path d="M172.552 247.148L153.51 228.357L147.56 234.387L166.602 253.178L172.552 247.148Z" fill="#FF6584"/>
<path opacity="0.1" d="M172.552 247.148L153.51 228.357L147.56 234.387L166.602 253.178L172.552 247.148Z" fill="black"/>
<path d="M158.052 219.364C158.052 219.364 169.106 213.532 173.377 209.778C175.948 207.528 178.713 205.51 181.639 203.745L195.506 195.305L224.487 193.076L225.825 197.98C225.825 197.98 228.054 205.114 205.761 211.356C183.467 217.599 172.32 227.408 172.32 227.408C172.32 227.408 158.052 232.294 158.052 219.364Z" fill="#DB8B8B"/>
<path opacity="0.1" d="M173.502 226.44C172.713 227.042 172.32 227.39 172.32 227.39C172.32 227.39 158.052 232.294 158.052 219.364C158.052 219.364 158.744 218.999 159.836 218.388C160.94 220.185 162.486 221.669 164.326 222.699C166.167 223.728 168.241 224.269 170.35 224.269H171.861L173.502 226.44Z" fill="black"/>
<path opacity="0.05" d="M225.406 200.441C224.166 203.068 219.89 207.384 205.761 211.339C187.654 216.408 176.899 223.823 173.502 226.44C172.713 227.042 172.32 227.39 172.32 227.39C172.32 227.39 158.052 232.294 158.052 219.364C158.052 219.364 158.744 218.999 159.836 218.388C163.149 216.573 170.162 212.591 173.364 209.76C175.935 207.51 178.699 205.491 181.626 203.728L195.492 195.287L200.655 194.89L224.474 193.058L225.812 197.962C225.812 197.962 226.124 198.921 225.406 200.441Z" fill="black"/>
<path d="M158.275 216.466L146.46 224.269L181.059 253.25C181.059 253.25 186.142 250.129 183.467 246.562C183.467 246.562 174.55 238.983 174.104 228.282L171.429 224.715H169.917C167.361 224.715 164.868 223.921 162.783 222.444C160.697 220.966 159.122 218.877 158.275 216.466Z" fill="#ABB1D1"/>
<path opacity="0.1" d="M225.406 200.441C218.272 196.995 200.856 196.625 200.856 196.625L200.669 194.89L224.487 193.058L225.825 197.962C225.825 197.962 226.124 198.921 225.406 200.441Z" fill="black"/>
<path d="M200.856 195.733C200.856 195.733 221.812 196.179 227.162 200.638L224.487 146.687H195.506L200.856 195.733Z" fill="#ABB1D1"/>
<path opacity="0.05" d="M200.856 195.51C200.856 195.51 221.812 195.956 227.162 200.415L224.487 146.464H195.506L200.856 195.51Z" fill="black"/>
<path d="M301.556 222.316C296.824 222.311 292.113 222.947 287.551 224.206C285.199 224.855 282.895 225.67 280.658 226.645C268.74 231.812 259.161 241.215 253.775 253.036C248.389 264.856 247.579 278.254 251.5 290.638C255.422 303.022 263.797 313.511 275.005 320.077C286.214 326.643 299.459 328.818 312.179 326.182C324.899 323.547 336.189 316.287 343.865 305.808C351.542 295.329 355.059 282.376 353.737 269.453C352.415 256.531 346.347 244.558 336.708 235.851C327.068 227.144 314.542 222.321 301.552 222.316H301.556ZM301.378 314.206C292.335 314.202 283.566 311.105 276.526 305.429C269.486 299.754 264.6 291.841 262.678 283.005C260.757 274.169 261.916 264.941 265.962 256.854C270.009 248.768 276.701 242.309 284.925 238.55C287.017 237.592 289.189 236.821 291.417 236.245C296.862 234.832 302.546 234.594 308.09 235.548C313.634 236.502 318.911 238.626 323.57 241.779C328.229 244.931 332.164 249.04 335.112 253.831C338.059 258.623 339.953 263.987 340.666 269.567C341.379 275.147 340.896 280.815 339.248 286.194C337.601 291.573 334.826 296.539 331.11 300.762C327.393 304.985 322.82 308.368 317.694 310.686C312.568 313.004 307.008 314.204 301.382 314.206H301.378Z" fill="#535461"/>
<path d="M217.692 162.721C217.692 162.721 270.149 160.937 271.219 167.719C272.289 174.501 218.762 171.643 218.762 171.643C218.762 171.643 214.482 167.358 217.692 162.721Z" fill="#535461"/>
<path opacity="0.05" d="M217.692 162.721C217.692 162.721 270.149 160.937 271.219 167.719C272.289 174.501 218.762 171.643 218.762 171.643C218.762 171.643 214.482 167.358 217.692 162.721Z" fill="black"/>
<path d="M175.227 189.843H165.949V270.492H175.227V189.843Z" fill="#FF6584"/>
<path opacity="0.1" d="M175.227 189.839V196.05C172.142 196.451 168.985 196.705 165.949 196.803V189.839H175.227Z" fill="black"/>
<path d="M174.532 183.155C173.23 183.054 171.935 182.88 170.653 182.633C165.623 181.67 152.943 179.65 149.532 183.079C145.251 187.36 146.678 194.855 158.097 195.925C169.516 196.995 189.143 194.141 193.071 189.856C193.071 189.839 185.968 184.033 174.532 183.155Z" fill="#535461"/>
<path d="M172.73 211.967L270.153 181.635L273.364 189.13L173.444 223.386L172.73 211.967Z" fill="#FF6584"/>
<path d="M201.636 259.787L271.937 190.556L275.861 196.264L208.77 266.207L201.636 259.787Z" fill="#FF6584"/>
<path opacity="0.1" d="M291.412 236.245C289.185 236.821 287.013 237.592 284.921 238.55L280.658 226.641C282.895 225.666 285.199 224.851 287.551 224.202L291.412 236.245Z" fill="black"/>
<path d="M303.34 271.206L298.346 274.059L263.505 176.712L261.945 172.356L270.153 167.714L272.209 174.126L303.34 271.206Z" fill="#FF6584"/>
<path opacity="0.1" d="M272.209 174.126L263.505 176.712L261.945 172.356L270.153 167.714L272.209 174.126Z" fill="black"/>
<path d="M219.119 181.635L268.009 164.861C268.009 164.861 276.574 165.931 273.359 173.069L224.117 187.698C224.117 187.698 216.627 188.412 219.119 181.635Z" fill="#535461"/>
<path d="M162.707 263.042C160.919 255.097 157.299 247.679 152.136 241.381C150.219 239.041 148.105 236.869 145.818 234.889C137.022 227.296 125.954 222.837 114.351 222.214C102.748 221.59 91.2661 224.837 81.7076 231.445C72.1492 238.053 65.0553 247.647 61.5392 258.722C58.0231 269.797 58.2839 281.727 62.2806 292.638C66.2774 303.549 73.7838 312.824 83.6219 319.007C93.46 325.191 105.073 327.933 116.638 326.803C128.203 325.673 139.065 320.735 147.52 312.764C155.975 304.794 161.545 294.241 163.354 282.763C163.775 280.06 163.987 277.329 163.987 274.594C163.99 270.708 163.561 266.833 162.707 263.042ZM111.347 314.027C103.218 314.019 95.2889 311.507 88.6376 306.833C81.9864 302.159 76.936 295.55 74.1733 287.905C71.4105 280.259 71.0694 271.949 73.1964 264.103C75.3233 256.257 79.8151 249.256 86.061 244.053C92.3068 238.85 100.004 235.696 108.105 235.021C116.206 234.347 124.318 236.184 131.339 240.282C138.359 244.38 143.947 250.541 147.343 257.927C150.738 265.314 151.777 273.566 150.317 281.563C148.644 290.678 143.829 298.918 136.709 304.85C129.589 310.782 120.615 314.029 111.347 314.027Z" fill="#535461"/>
<path opacity="0.1" d="M163.987 274.594C163.987 277.329 163.775 280.06 163.354 282.763C159.074 282.455 154.65 282.009 150.317 281.563C151.279 276.261 151.16 270.82 149.964 265.565C154.187 264.674 158.498 263.822 162.707 263.051C163.56 266.839 163.989 270.711 163.987 274.594Z" fill="black"/>
<path opacity="0.1" d="M175.227 261.004V270.488H165.949V262.462C169.159 261.905 172.28 261.41 175.227 261.004Z" fill="black"/>
<path d="M115.276 274.429C115.276 274.429 190.218 254.811 196.281 262.297C202.345 269.783 208.77 279.78 189.874 283.347C170.978 286.914 113.862 277.278 113.862 277.278L115.276 274.429Z" fill="#FF6584"/>
<path opacity="0.1" d="M152.136 241.381L142.612 250.098C140.925 247.933 139.019 245.949 136.923 244.177L145.813 234.889C148.102 236.869 150.218 239.041 152.136 241.381Z" fill="black"/>
<path d="M112.779 270.492L168.802 211.967L170.59 225.526L115.632 275.843L112.779 270.492Z" fill="#FF6584"/>
<path opacity="0.1" d="M112.065 280.128C115.22 280.128 117.777 277.57 117.777 274.416C117.777 271.261 115.22 268.704 112.065 268.704C108.911 268.704 106.354 271.261 106.354 274.416C106.354 277.57 108.911 280.128 112.065 280.128Z" fill="black"/>
<path d="M111.347 280.128C114.502 280.128 117.059 277.57 117.059 274.416C117.059 271.261 114.502 268.704 111.347 268.704C108.193 268.704 105.636 271.261 105.636 274.416C105.636 277.57 108.193 280.128 111.347 280.128Z" fill="#535461"/>
<path opacity="0.1" d="M301.021 279.592C304.175 279.592 306.733 277.035 306.733 273.881C306.733 270.726 304.175 268.169 301.021 268.169C297.867 268.169 295.309 270.726 295.309 273.881C295.309 277.035 297.867 279.592 301.021 279.592Z" fill="black"/>
<path d="M301.378 280.306C304.532 280.306 307.089 277.749 307.089 274.594C307.089 271.44 304.532 268.883 301.378 268.883C298.223 268.883 295.666 271.44 295.666 274.594C295.666 277.749 298.223 280.306 301.378 280.306Z" fill="#535461"/>
<path opacity="0.1" d="M199.848 280.128C206.155 280.128 211.267 275.015 211.267 268.709C211.267 262.402 206.155 257.29 199.848 257.29C193.542 257.29 188.43 262.402 188.43 268.709C188.43 275.015 193.542 280.128 199.848 280.128Z" fill="black"/>
<path d="M200.566 280.128C206.873 280.128 211.985 275.015 211.985 268.709C211.985 262.402 206.873 257.29 200.566 257.29C194.26 257.29 189.148 262.402 189.148 268.709C189.148 275.015 194.26 280.128 200.566 280.128Z" fill="#535461"/>
<path d="M197.517 267.851L197.514 267.854C196.173 268.856 195.899 270.756 196.902 272.097L205.964 284.216C206.967 285.557 208.867 285.831 210.208 284.829L210.212 284.826C211.553 283.823 211.827 281.923 210.824 280.582L201.761 268.463C200.758 267.122 198.858 266.848 197.517 267.851Z" fill="#FF6584"/>
<path d="M252.131 110.126L251.07 123.551C250.948 125.251 250.97 126.959 251.137 128.656C251.275 130.159 251.137 132.789 249.666 136.802C247.776 141.928 246.8 147.346 246.781 152.809V168.089L236.526 166.306C236.526 166.306 236.972 144.904 235.188 141.337C233.405 137.77 236.526 106.113 236.526 106.113L252.131 110.126Z" fill="#DB8B8B"/>
<path opacity="0.05" d="M251.605 116.778L251.07 123.551C250.95 125.25 250.973 126.957 251.141 128.652C251.28 130.154 251.141 132.785 249.67 136.802C247.781 141.928 246.805 147.346 246.785 152.809V168.089L236.53 166.306C236.53 166.306 236.976 144.904 235.193 141.337C233.931 138.809 235.126 122.191 235.933 112.707C236.267 108.806 236.53 106.113 236.53 106.113L252.136 110.126L251.605 116.778Z" fill="black"/>
<path d="M201.311 212.676L197.454 234.613C196.968 237.542 196.222 240.422 195.225 243.218C192.964 249.398 194.409 258.061 195.506 262.788C195.992 264.874 196.397 266.194 196.397 266.194L184.805 272.436L181.238 269.761V267.978L180.792 228.295C178.117 222.053 179.008 212.69 180.792 209.123C181.299 207.951 181.656 206.719 181.853 205.457C182.745 200.678 183.021 193.963 183.021 193.963C183.021 193.963 190.155 181.924 198.627 189.95C201.748 192.906 202.934 196.772 203.183 200.473C203.62 206.808 201.311 212.676 201.311 212.676Z" fill="#DB8B8B"/>
<path opacity="0.1" d="M203.183 200.459C196.999 204.133 186.24 205.172 181.853 205.444C182.745 200.664 183.021 193.95 183.021 193.95C183.021 193.95 190.155 181.911 198.627 189.937C201.748 192.893 202.934 196.759 203.183 200.459Z" fill="black"/>
<path d="M218.245 189.491C213.504 192.016 209.023 195.003 204.869 198.408C197.735 204.205 179.9 204.65 179.9 204.65V197.962C180.346 189.937 172.766 181.019 162.511 156.051C155.961 140.106 157.776 131.082 159.943 126.623C161.174 124.104 162.511 123.056 162.511 123.056L218.245 133.757L220.238 139.732L224.487 152.484C224.487 152.484 208.882 153.375 206.207 154.713C203.531 156.051 205.315 168.089 205.315 168.089C202.64 180.573 218.245 189.491 218.245 189.491Z" fill="#ABB1D1"/>
<path opacity="0.1" d="M252.131 110.126L251.605 116.778C243.847 119.007 238.309 111.909 238.309 111.909C237.5 112.126 236.705 112.393 235.928 112.707C236.263 108.806 236.526 106.113 236.526 106.113L252.131 110.126Z" fill="black"/>
<path opacity="0.1" d="M220.238 139.732C220.029 141.814 220.029 143.12 220.029 143.12C220.029 143.12 209.774 151.592 192.385 138.662C174.996 125.731 159.39 129.298 159.39 129.298C159.39 129.298 159.573 128.264 159.943 126.623C161.174 124.104 162.511 123.056 162.511 123.056L218.245 133.757L220.238 139.732Z" fill="black"/>
<path d="M258.142 92.7145C256.978 101.788 256.59 113.225 256.59 113.225C246.335 121.25 238.309 110.995 238.309 110.995C228.625 113.595 224.073 122.071 221.928 129.468C220.779 133.469 220.141 137.599 220.029 141.76C220.029 141.76 217.318 143.99 212.324 144.436C207.602 144.832 200.834 143.602 192.385 137.302C174.996 124.371 159.39 127.938 159.39 127.938C159.39 127.938 162.511 110.103 169.645 104.753C176.779 99.4026 182.13 92.7145 191.047 72.2044C199.964 51.6943 218.245 56.5989 218.245 56.5989C218.245 56.5989 219.137 52.5861 235.634 56.5989C239.652 57.6521 243.372 59.6224 246.5 62.3551C255.324 69.7744 259.604 81.2824 258.142 92.7145Z" fill="white"/>
<path d="M241.595 66.6533C241.573 67.2463 241.524 67.9062 241.444 68.6419C240.552 76.6676 239.66 75.7758 229.851 77.5593C223.752 78.6695 220.581 73.5732 219.057 69.5604C218.505 68.1067 218.088 66.6052 217.813 65.0749L239.214 61.5079C239.214 61.5079 241.778 60.7901 241.595 66.6533Z" fill="#DB8B8B"/>
<path opacity="0.05" d="M221.928 129.49C220.779 133.491 220.141 137.621 220.029 141.783C220.029 141.783 217.318 144.012 212.324 144.458C212.183 144.174 212.076 143.875 212.003 143.566C211.111 139.553 204.423 132.419 204.423 132.419C199.964 128.406 199.073 121.273 199.073 121.273L191.716 99.6478L189.263 97.6414C189.263 97.6414 199.518 89.6157 208.436 96.3037C217.353 102.992 214.678 117.26 214.678 117.26L216.462 122.164C218.312 123.725 220.194 126.476 221.928 129.49Z" fill="black"/>
<path d="M190.601 97.1955L200.41 120.827C200.41 120.827 201.302 127.961 205.761 131.973C205.761 131.973 212.449 139.107 213.341 143.12C214.232 147.133 226.717 157.834 226.717 157.834C226.717 157.834 238.309 168.535 239.201 172.548C239.201 172.548 249.902 175.669 248.564 181.911C248.564 181.911 256.59 173.885 248.564 166.306C240.539 158.726 229.838 143.12 229.838 143.12C229.838 143.12 223.596 126.623 217.799 121.718L216.016 116.814C216.016 116.814 218.691 102.546 209.774 95.8579C200.856 89.1698 190.601 97.1955 190.601 97.1955Z" fill="#DB8B8B"/>
<path opacity="0.1" d="M196.397 266.181L184.805 272.423L181.238 269.748V267.964C185.244 267.68 189.135 266.505 192.63 264.526C193.7 263.92 194.708 263.323 195.515 262.797C195.983 264.861 196.397 266.181 196.397 266.181Z" fill="black"/>
<path opacity="0.1" d="M209.774 78.4689L216.016 102.992C216.016 102.992 196.843 106.113 192.83 102.992C188.818 99.8707 181.238 98.979 181.238 98.979C181.238 98.979 189.263 75.7937 193.722 73.1185C198.181 70.4432 209.774 78.4689 209.774 78.4689Z" fill="black"/>
<path d="M209.774 77.5771L216.016 102.1C216.016 102.1 196.843 105.221 192.83 102.1C188.818 98.979 181.238 98.0872 181.238 98.0872C181.238 98.0872 189.263 74.9019 193.722 72.2267C198.181 69.5515 209.774 77.5771 209.774 77.5771Z" fill="white"/>
<path opacity="0.1" d="M241.595 66.2074C240.347 67.9313 238.758 69.3814 236.928 70.4686C235.098 71.5558 233.065 72.2571 230.954 72.5294C228.843 72.8017 226.698 72.6393 224.652 72.052C222.606 71.4647 220.702 70.4651 219.057 69.1145C218.505 67.6609 218.088 66.1593 217.813 64.6291L239.214 61.0621C239.214 61.0621 241.778 60.3442 241.595 66.2074Z" fill="black"/>
<path d="M244.551 56.6212C244.551 60.76 242.907 64.7294 239.981 67.656C237.054 70.5826 233.085 72.2267 228.946 72.2267C224.807 72.2267 220.838 70.5826 217.911 67.656C214.985 64.7294 213.34 60.76 213.34 56.6212C213.34 56.3626 213.34 56.104 213.34 55.8454C213.443 51.7066 215.186 47.7781 218.185 44.9243C221.185 42.0704 225.195 40.5249 229.334 40.6278C233.473 40.7307 237.401 42.4735 240.255 45.4728C243.109 48.4722 244.654 52.4824 244.551 56.6212Z" fill="#DB8B8B"/>
<path opacity="0.1" d="M244.551 56.6212C244.553 58.0595 244.355 59.491 243.963 60.8748C242.757 61.1377 241.499 61.0225 240.36 60.5449C238.693 59.8894 237.261 58.7614 235.661 57.9499C231.153 55.667 225.789 56.1174 220.795 56.8709C218.316 57.2454 215.503 57.5932 213.554 56.0148C213.487 55.962 213.423 55.9054 213.363 55.8454C213.466 51.7066 215.208 47.7781 218.208 44.9243C221.207 42.0704 225.217 40.5249 229.356 40.6278C233.495 40.7307 237.423 42.4735 240.277 45.4728C243.131 48.4722 244.677 52.4824 244.574 56.6212H244.551Z" fill="black"/>
<path d="M202.051 46.968C203.001 49.9464 207.562 50.0401 209.903 52.2338C211.12 53.3752 211.686 55.0606 213.024 56.0772C214.883 57.495 217.567 57.1829 219.935 56.8441C224.701 56.1664 229.82 55.7606 234.118 57.8161C235.643 58.5428 237.012 59.5594 238.603 60.1524C240.195 60.7454 242.17 60.8168 243.463 59.7645C244.498 58.9218 244.877 57.5352 245.813 56.6078C246.54 55.8765 247.552 55.4663 248.381 54.8243C250.201 53.451 250.985 51.2127 251.503 49.0725C252.573 44.6673 252.88 39.9188 251.057 35.741C249.233 31.5632 244.846 28.1612 240.057 28.3797C238.59 28.4465 237.159 28.8255 235.696 28.986C231.884 29.3739 228.117 28.0943 224.291 27.8758C223.181 27.7408 222.056 27.8944 221.023 28.3217C220.244 28.7546 219.572 29.3564 219.056 30.0829C217.305 32.3771 216.106 35.044 215.552 37.8767C215.106 40.0124 215.084 41.9475 212.466 42.2775C209.493 42.6698 200.04 40.6679 202.051 46.968Z" fill="#472727"/>
<path opacity="0.05" d="M171.652 104.552C171.652 104.552 183.244 107.673 186.811 115.699C190.378 123.725 200.027 125.192 200.027 125.192" fill="black"/>
<path d="M215.347 281.117H188.595V289.589H215.347V281.117Z" fill="#FF6584"/>
<path opacity="0.1" d="M215.347 281.117H188.595V289.589H215.347V281.117Z" fill="black"/>
<path d="M192.612 265.396C195.006 264.058 197.106 262.721 197.289 262.168C197.289 262.168 203.331 268.544 208.712 270.523C210.522 271.192 212.254 272.053 213.88 273.092C216.011 274.429 219.052 276.003 221.812 276.003C221.812 276.003 228.054 281.354 216.016 282.245C203.977 283.137 175.887 280.016 175.887 280.016L177.671 268.869C182.882 269.175 188.07 267.969 192.612 265.396Z" fill="#ABB1D1"/>
</g>
<defs>
<linearGradient id="paint0_linear" x1="206.541" y1="331.305" x2="206.541" y2="26.9708" gradientUnits="userSpaceOnUse">
<stop stop-color="#808080" stop-opacity="0.25"/>
<stop offset="0.54" stop-color="#808080" stop-opacity="0.12"/>
<stop offset="1" stop-color="#808080" stop-opacity="0.1"/>
</linearGradient>
<clipPath id="clip0">
<rect width="471.598" height="350" fill="white"/>
</clipPath>
</defs>
</svg>
