<svg width="20" height="20" viewBox="0 0 20 20" fill="none" xmlns="http://www.w3.org/2000/svg">
<path d="M13.8038 9.54373C13.5832 9.74767 13.3553 9.94362 13.1206 10.1312C13.1206 10.0875 13.125 10.0419 13.125 9.99998C13.125 9.52998 13.1075 9.03998 13.0731 8.53998C13.025 7.95327 12.9457 7.36953 12.8356 6.79123C14.4294 6.39123 15.2544 6.6006 15.415 6.87435C15.5913 7.1806 15.3081 8.1431 13.8038 9.54373ZM11.8375 11.0656C11.5669 11.2431 11.2763 11.4244 10.9356 11.6219C10.6375 11.7962 10.3256 11.9612 10 12.1244C9.67501 11.9612 9.36251 11.7962 9.06439 11.6225C8.75902 11.4452 8.45849 11.2597 8.16314 11.0662C8.14073 10.7108 8.12802 10.3548 8.12501 9.99873C8.12501 9.6556 8.14314 9.29435 8.16251 8.9331C8.43314 8.75685 8.72376 8.5756 9.06439 8.37685C9.36251 8.20373 9.67501 8.03873 10 7.87498C10.325 8.0381 10.6375 8.2031 10.9356 8.37685C11.2763 8.5756 11.5669 8.75623 11.8375 8.9331C11.8563 9.29498 11.875 9.6556 11.875 9.99873C11.875 10.3425 11.8563 10.7037 11.8375 11.0656ZM10 16.25C9.64376 16.25 8.95001 15.5237 8.49689 13.5231C8.43204 13.2305 8.37639 12.936 8.33001 12.64L8.43564 12.7025C8.84501 12.9406 9.26814 13.165 9.73064 13.3887C10.3056 13.6637 10.8506 13.8812 11.3569 14.0587C10.9119 15.6375 10.3206 16.25 10 16.25ZM7.19751 8.07185C6.71142 8.40418 6.24482 8.76415 5.80001 9.14998C4.65376 7.96685 4.42501 7.15185 4.58314 6.87873C4.76189 6.57123 5.74064 6.33248 7.70126 6.93498C7.97626 7.01998 8.26189 7.12498 8.55001 7.23623C8.51251 7.25748 8.47189 7.27685 8.43501 7.2981C8.01295 7.54118 7.59996 7.79969 7.19689 8.0731L7.19751 8.07185ZM15.1169 9.9981C16.5269 8.53123 17.0356 7.18435 16.495 6.2481C15.9513 5.31873 14.5281 5.09373 12.5619 5.5781C12.5281 5.4606 12.4931 5.34685 12.4569 5.23623C12.6167 5.04061 12.7131 4.80086 12.7331 4.54902C12.7531 4.29719 12.6958 4.04524 12.5688 3.82685C12.4871 3.68435 12.378 3.55944 12.2477 3.45936C12.1175 3.35927 11.9687 3.28598 11.81 3.24373C11.6515 3.20054 11.486 3.18935 11.3231 3.21081C11.1602 3.23227 11.0032 3.28595 10.8613 3.36873C10.7188 3.45051 10.5939 3.55973 10.494 3.69008C10.394 3.82043 10.3208 3.9693 10.2788 4.1281C10.2359 4.28666 10.2249 4.45214 10.2464 4.61498C10.2678 4.77782 10.3213 4.9348 10.4038 5.07685C10.5975 5.4131 10.9281 5.6156 11.2844 5.67498C11.3644 5.92498 11.4381 6.18873 11.4988 6.45998L11.5438 6.65935C11.5925 6.8931 11.6288 7.12623 11.6669 7.35935L11.5638 7.2981C11.1406 7.05261 10.7082 6.82348 10.2675 6.61123C9.73631 6.36077 9.19269 6.13757 8.63876 5.94248C9.01876 4.60248 9.52814 3.8806 9.90126 3.76748C9.97977 3.74343 10.0528 3.70415 10.1161 3.65189C10.1794 3.59963 10.2318 3.53541 10.2703 3.46289C10.3088 3.39038 10.3327 3.31099 10.3405 3.22925C10.3483 3.14752 10.34 3.06505 10.3159 2.98654C10.2919 2.90803 10.2526 2.83503 10.2004 2.77171C10.1481 2.70838 10.0839 2.65597 10.0114 2.61746C9.93885 2.57895 9.85946 2.5551 9.77772 2.54728C9.69599 2.53945 9.61352 2.5478 9.53501 2.57185C8.41251 2.9156 7.77501 4.40373 7.44001 5.57185C5.47001 5.08435 4.04876 5.31685 3.50189 6.24998C2.96314 7.18373 3.48064 8.53185 4.89126 9.9981C4.79751 10.0919 4.71251 10.1806 4.64251 10.2556C4.39364 10.2163 4.13871 10.2532 3.91117 10.3614C3.68363 10.4696 3.49412 10.644 3.36751 10.8619C3.24469 11.076 3.18795 11.3218 3.20442 11.5681C3.22089 11.8144 3.30983 12.0504 3.46007 12.2464C3.61031 12.4423 3.81512 12.5894 4.04876 12.6692C4.2824 12.7491 4.53442 12.758 4.77314 12.695C4.93196 12.6528 5.08084 12.5795 5.21118 12.4794C5.34152 12.3793 5.45074 12.2544 5.53251 12.1119C5.61497 11.9699 5.66848 11.813 5.68994 11.6503C5.71139 11.4876 5.70037 11.3222 5.65751 11.1637C5.64689 11.1231 5.62814 11.0869 5.61376 11.0481C6.01712 10.6426 6.43903 10.2559 6.87814 9.88935C6.87751 9.9256 6.87439 9.96435 6.87439 9.99998C6.87439 10.47 6.89189 10.96 6.92626 11.4606C6.97251 12.0606 7.05939 12.6419 7.16626 13.2106C5.82126 13.5462 4.94126 13.4669 4.65251 13.2025C4.59264 13.1437 4.52155 13.0976 4.44347 13.0668C4.3654 13.0361 4.28193 13.0214 4.19806 13.0237C4.11419 13.0259 4.03162 13.045 3.95528 13.0798C3.87894 13.1146 3.8104 13.1644 3.75373 13.2263C3.69706 13.2882 3.65343 13.3608 3.62544 13.4399C3.59745 13.519 3.58567 13.603 3.5908 13.6867C3.59594 13.7704 3.61788 13.8523 3.65533 13.9274C3.69278 14.0025 3.74496 14.0692 3.80876 14.1237C4.26439 14.5412 4.92626 14.6862 5.62314 14.6862C6.24689 14.6862 6.89189 14.57 7.44439 14.4319C8.00376 16.3856 8.91564 17.5 10 17.5C11.0813 17.5 11.9875 16.3794 12.5463 14.4319C12.665 14.4612 12.7831 14.4881 12.8994 14.5112C12.9898 14.7464 13.1492 14.9487 13.3567 15.0915C13.5641 15.2344 13.81 15.3112 14.0619 15.3119C14.7519 15.3119 15.3119 14.7512 15.3119 14.0619C15.3119 13.3731 14.7519 12.8119 14.0619 12.8119C13.6744 12.8119 13.3319 12.9937 13.1019 13.2719C12.8394 13.2156 12.5744 13.1531 12.2931 13.0644C12.2481 13.05 12.2025 13.0375 12.115 13.0037C11.9019 12.9356 11.6769 12.8494 11.4525 12.7637C11.4888 12.7431 11.5275 12.7231 11.5644 12.7025C11.9866 12.4592 12.3997 12.2007 12.8031 11.9275C13.2906 11.5956 13.76 11.238 14.2094 10.8562C15.1781 11.86 15.5381 12.6587 15.4481 13.0362C15.4098 13.1975 15.437 13.3674 15.5239 13.5086C15.6109 13.6498 15.7503 13.7507 15.9116 13.789C16.0729 13.8274 16.2428 13.8001 16.384 13.7132C16.5251 13.6263 16.626 13.4869 16.6644 13.3256C16.9369 12.1825 15.9631 10.8769 15.1175 9.99685" fill="#747576"/>
</svg>
