<svg width="20" height="20" viewBox="0 0 20 20" fill="none" xmlns="http://www.w3.org/2000/svg">
<g clip-path="url(#clip0)">
<path d="M19.8438 7.5C19.6875 6.90625 19.1875 6.5 18.5938 6.40625L13.5938 5.65625L11.3438 0.90625C11.0938 0.34375 10.5938 0 10.0313 0C9.43754 0 8.87504 0.34375 8.62504 0.90625L6.37504 5.65625L1.37504 6.5C0.781294 6.59375 0.281293 7 0.125043 7.59375C-0.0312066 8.1875 0.0312935 8.75 0.468793 9.25L4.12504 13L3.28129 18.25C3.18754 18.8438 3.43754 19.5 3.93754 19.8438C4.18754 19.9375 4.53129 20 4.78129 20C5.03129 20 5.28129 19.9062 5.53129 19.8438L10.0313 17.4375L14.5313 19.8438C15.0313 20.0938 15.6875 20.0938 16.125 19.75C16.625 19.4062 16.875 18.8438 16.7813 18.1562L15.9375 12.9062L19.5938 9.15625C19.9375 8.75 20.0938 8.09375 19.8438 7.5ZM14.5313 11.9062C14.2813 12.1562 14.1875 12.5 14.1875 12.9062L15.0938 18.25L10.5 15.75C10.3438 15.6562 10.1563 15.5938 10 15.5938C9.84379 15.5938 9.65629 15.6875 9.50004 15.75L5.00004 18.25L5.84379 12.9062C5.93754 12.5625 5.75004 12.1562 5.50004 11.9062L1.75004 8.0625L6.90629 7.21875C7.25004 7.125 7.56254 6.875 7.75004 6.5625L10 1.8125L12.25 6.5625C12.4063 6.90625 12.75 7.15625 13.0938 7.21875L18.25 8.0625L14.5313 11.9062Z" fill="#747576"/>
</g>
<defs>
<clipPath id="clip0">
<rect width="20" height="20" fill="white"/>
</clipPath>
</defs>
</svg>
