<svg width="430" height="342" viewBox="0 0 430 342" fill="none" xmlns="http://www.w3.org/2000/svg">
<g clip-path="url(#clip0)">
<path d="M320.764 337.574C314.812 332.544 311.197 324.599 312.145 316.865C313.093 309.131 318.965 302.02 326.582 300.378C334.2 298.736 342.883 303.282 345.196 310.723C346.47 296.377 347.937 281.431 355.564 269.214C362.47 258.152 374.432 250.237 387.395 248.821C400.359 247.405 414.008 252.753 422.093 262.985C430.178 273.217 432.157 288.092 426.495 299.839C422.323 308.493 414.638 314.933 406.586 320.173C380.567 336.961 349.361 343.788 318.708 339.398" fill="#F2F2F2"/>
<path d="M409.273 253.049C398.577 261.762 388.764 271.506 379.976 282.141C366.224 298.728 355.095 317.325 346.978 337.284C346.384 338.74 348.749 339.374 349.336 337.934C362.617 305.496 383.819 276.906 411.002 254.778C412.223 253.784 410.484 252.063 409.273 253.049Z" fill="white"/>
<path d="M105.13 341.016H71.3744C70.2338 341.015 69.1403 340.561 68.3338 339.754C67.5272 338.948 67.0736 337.854 67.0723 336.714V266.556C67.0736 265.415 67.5272 264.322 68.3338 263.515C69.1403 262.708 70.2338 262.255 71.3744 262.253H105.13C106.27 262.255 107.364 262.708 108.17 263.515C108.977 264.322 109.431 265.415 109.432 266.556V336.714C109.431 337.854 108.977 338.948 108.17 339.754C107.364 340.561 106.27 341.015 105.13 341.016Z" fill="#F6C90E"/>
<path d="M185.216 341.678H151.461C150.145 341.676 148.883 341.153 147.952 340.222C147.021 339.292 146.498 338.03 146.497 336.714V200.369C146.498 199.053 147.021 197.791 147.952 196.86C148.883 195.93 150.145 195.406 151.461 195.405H185.216C186.532 195.406 187.794 195.93 188.724 196.86C189.655 197.791 190.178 199.053 190.18 200.369V336.714C190.178 338.03 189.655 339.292 188.724 340.222C187.794 341.153 186.532 341.676 185.216 341.678ZM151.461 196.728C150.495 196.73 149.57 197.113 148.888 197.796C148.205 198.478 147.821 199.404 147.82 200.369V336.714C147.821 337.679 148.205 338.604 148.888 339.287C149.57 339.969 150.495 340.353 151.461 340.354H185.216C186.181 340.353 187.106 339.969 187.789 339.287C188.471 338.604 188.855 337.679 188.856 336.714V200.369C188.855 199.404 188.471 198.478 187.789 197.796C187.106 197.113 186.181 196.73 185.216 196.728H151.461Z" fill="#3F3D56"/>
<path d="M265.302 341.678H231.547C230.231 341.676 228.969 341.153 228.038 340.222C227.108 339.292 226.584 338.03 226.583 336.714V113.664C226.584 112.348 227.108 111.086 228.038 110.155C228.969 109.225 230.231 108.701 231.547 108.7H265.302C266.618 108.701 267.88 109.225 268.811 110.155C269.741 111.086 270.265 112.348 270.266 113.664V336.714C270.265 338.03 269.741 339.292 268.811 340.222C267.88 341.153 266.618 341.676 265.302 341.678ZM231.547 110.024C230.582 110.025 229.656 110.409 228.974 111.091C228.291 111.773 227.908 112.699 227.907 113.664V336.714C227.908 337.679 228.291 338.604 228.974 339.287C229.656 339.969 230.582 340.353 231.547 340.354H265.302C266.267 340.353 267.193 339.969 267.875 339.287C268.557 338.604 268.941 337.679 268.942 336.714V113.664C268.941 112.699 268.557 111.773 267.875 111.091C267.193 110.409 266.267 110.025 265.302 110.024H231.547Z" fill="#3F3D56"/>
<path d="M346.136 341.347H312.38C311.24 341.346 310.146 340.892 309.34 340.085C308.533 339.279 308.08 338.185 308.078 337.045V22.6569C308.08 21.5163 308.533 20.4228 309.34 19.6162C310.146 18.8097 311.24 18.356 312.38 18.3547H346.136C347.276 18.356 348.37 18.8097 349.176 19.6162C349.983 20.4228 350.437 21.5163 350.438 22.6569V337.045C350.437 338.185 349.983 339.279 349.176 340.085C348.37 340.892 347.276 341.346 346.136 341.347Z" fill="#F6C90E"/>
<path d="M136.199 147.172C136.321 146.207 136.231 145.226 135.933 144.3C135.636 143.374 135.139 142.524 134.478 141.81C133.816 141.096 133.006 140.536 132.105 140.17C131.204 139.803 130.233 139.638 129.261 139.687L117.496 118.104L114.848 127.37L122.909 147.151C123.099 148.778 123.88 150.279 125.103 151.369C126.326 152.458 127.906 153.062 129.545 153.065C131.183 153.067 132.765 152.469 133.991 151.383C135.218 150.297 136.003 148.799 136.199 147.172V147.172Z" fill="#A0616A"/>
<path d="M45.5472 232.391L52.1003 237.175L73.674 214.174L64.0014 207.112L45.5472 232.391Z" fill="#A0616A"/>
<path d="M60.297 252.488L39.6997 237.451L45.5095 229.493L58.1488 238.72C60.2594 240.261 61.6714 242.577 62.0743 245.159C62.4772 247.741 61.8379 250.378 60.297 252.488L60.297 252.488Z" fill="#2F2E41"/>
<path d="M80.2192 257.717L88.3337 257.716L92.1937 226.417L80.2178 226.418L80.2192 257.717Z" fill="#A0616A"/>
<path d="M103.983 265.25L78.481 265.251L78.4805 255.398L94.1297 255.398C96.7429 255.397 99.2491 256.435 101.097 258.283C102.945 260.131 103.983 262.637 103.983 265.25Z" fill="#2F2E41"/>
<path d="M104.589 135.644C104.589 135.644 108.56 174.032 98.6323 200.507L91.3518 250.809H78.7763L80.1 191.241L75.4669 138.291C75.4669 138.291 84.7331 114.464 104.589 135.644Z" fill="#2F2E41"/>
<path d="M61.5677 138.291L74.8051 183.96L48.9922 224.996L61.8986 235.917L91.3518 189.917L82.7475 133.658L61.5677 138.291Z" fill="#2F2E41"/>
<path d="M95.3256 35.8827C104.304 35.8827 111.582 28.6045 111.582 19.6265C111.582 10.6484 104.304 3.37029 95.3256 3.37029C86.3475 3.37029 79.0694 10.6484 79.0694 19.6265C79.0694 28.6045 86.3475 35.8827 95.3256 35.8827Z" fill="#A0616A"/>
<path d="M81.7547 41.9893C81.7547 41.9893 91.6827 35.3706 102.934 49.9318L105.913 141.601C105.913 141.601 97.3086 129.687 79.4381 140.939C61.5677 152.191 57.5964 139.615 57.5964 139.615C57.5964 139.615 45.0209 44.9677 81.7547 41.9893Z" fill="#CCCCCC"/>
<path d="M102.134 49.7006C104.989 49.855 107.686 51.0598 109.707 53.0832C111.728 55.1066 112.929 57.8058 113.079 60.6614L115.179 100.565L129.078 138.291L121.136 144.91L95.3229 99.9029L90.0381 62.9089C89.7959 61.2133 89.9326 59.4851 90.4384 57.8487C90.9442 56.2123 91.8065 54.7084 92.9632 53.4452C94.12 52.1821 95.5424 51.191 97.1281 50.5436C98.7138 49.8961 100.423 49.6082 102.134 49.7006Z" fill="#CCCCCC"/>
<path d="M83.3808 31.8202C86.0384 34.6511 90.9739 33.1314 91.3201 29.264C91.3473 28.9638 91.3453 28.6616 91.3143 28.3617C91.1355 26.6486 90.1458 25.0934 90.3828 23.2846C90.4365 22.8344 90.6042 22.4054 90.8701 22.0382C92.9879 19.2023 97.9591 23.3066 99.9578 20.7394C101.183 19.1652 99.7427 16.6868 100.683 14.9274C101.924 12.6053 105.601 13.7508 107.907 12.4791C110.472 11.0642 110.318 7.1284 108.63 4.73445C106.57 1.81495 102.96 0.257071 99.3941 0.032532C95.8284 -0.192007 92.2873 0.771898 88.9584 2.0692C85.1761 3.54318 81.4254 5.58029 79.0978 8.90606C76.2673 12.9506 75.9949 18.388 77.4105 23.1173C78.2717 25.9941 81.2106 29.5085 83.3808 31.8202Z" fill="#2F2E41"/>
<path d="M429.212 341.397H0.788107C0.579491 341.396 0.379621 341.313 0.232321 341.165C0.0850211 341.018 0.00231934 340.817 0.00231934 340.609C0.00231934 340.4 0.0850211 340.2 0.232321 340.052C0.379621 339.905 0.579491 339.821 0.788107 339.821H429.212C429.421 339.821 429.62 339.905 429.768 340.052C429.915 340.2 429.998 340.4 429.998 340.609C429.998 340.817 429.915 341.018 429.768 341.165C429.62 341.313 429.421 341.396 429.212 341.397Z" fill="#3F3D56"/>
</g>
<defs>
<clipPath id="clip0">
<rect width="430" height="341.678" fill="white"/>
</clipPath>
</defs>
</svg>
