<svg width="20" height="20" viewBox="0 0 20 20" fill="none" xmlns="http://www.w3.org/2000/svg">
<path d="M17.3194 5.24059C17.271 5.21013 17.2153 5.19339 17.1581 5.19218C17.101 5.19097 17.0446 5.20533 16.995 5.23372L15.605 6.03622C15.2572 5.53397 14.8437 5.08057 14.3756 4.68809C12.1725 2.87497 9.03373 2.61309 6.56311 4.03934C5.69158 4.54291 4.94106 5.23144 4.36443 6.05645C3.78779 6.88145 3.39905 7.82285 3.22561 8.81434C3.20817 8.89635 3.20742 8.98102 3.22338 9.06332C3.23935 9.14562 3.27171 9.22387 3.31853 9.29341C3.36536 9.36295 3.4257 9.42235 3.49596 9.46809C3.56622 9.51383 3.64497 9.54497 3.72751 9.55965C3.81005 9.57433 3.8947 9.57225 3.97642 9.55354C4.05814 9.53483 4.13527 9.49987 4.2032 9.45074C4.27113 9.40161 4.32849 9.33932 4.37185 9.26757C4.41521 9.19582 4.4437 9.11608 4.45561 9.03309C4.59753 8.22114 4.91575 7.45019 5.38786 6.77453C5.85996 6.09887 6.47448 5.53494 7.18811 5.12247C9.20811 3.95559 11.7775 4.16872 13.5806 5.65309C13.9336 5.95026 14.2485 6.28992 14.5181 6.66434L13.2062 7.42059C13.1568 7.44935 13.1162 7.49109 13.0888 7.54129C13.0614 7.59149 13.0483 7.64822 13.0509 7.70535C13.0535 7.76247 13.0716 7.8178 13.1034 7.86533C13.1352 7.91286 13.1794 7.95078 13.2312 7.97497L16.6875 9.58747C16.733 9.60853 16.7829 9.61838 16.8331 9.61621C16.8832 9.61403 16.9321 9.59989 16.9756 9.57497C17.0194 9.55006 17.0564 9.51482 17.0834 9.47234C17.1104 9.42985 17.1266 9.3814 17.1306 9.33122L17.4625 5.53184C17.4676 5.47484 17.4569 5.41754 17.4317 5.36618C17.4064 5.31482 17.3676 5.27138 17.3194 5.24059ZM16.7762 11.1718C16.6029 12.1634 16.2142 13.1048 15.6376 13.9298C15.0609 14.7549 14.3103 15.4434 13.4387 15.9468C12.3956 16.5478 11.2126 16.8633 10.0087 16.8618C8.44185 16.8618 6.88186 16.3325 5.62561 15.2987C5.15747 14.9062 4.744 14.4528 4.39623 13.9506L3.00623 14.7531C2.95674 14.7819 2.90026 14.7965 2.843 14.7954C2.78573 14.7942 2.72989 14.7773 2.6816 14.7465C2.63331 14.7157 2.59443 14.6722 2.56923 14.6208C2.54403 14.5694 2.53348 14.512 2.53873 14.455L2.87061 10.655C2.87459 10.6047 2.89075 10.5562 2.91769 10.5136C2.94462 10.471 2.98152 10.4355 3.02521 10.4104C3.06889 10.3852 3.11804 10.3711 3.16842 10.3691C3.21879 10.3672 3.26888 10.3776 3.31436 10.3993L6.77061 12.0118C6.87686 12.0612 6.94561 12.165 6.95186 12.2818C6.95415 12.3389 6.94081 12.3955 6.91327 12.4455C6.88573 12.4955 6.84504 12.537 6.79561 12.5656L5.48373 13.3218C5.75318 13.6966 6.06809 14.0365 6.42123 14.3337C7.30747 15.0593 8.3932 15.4985 9.53463 15.5933C10.6761 15.688 11.8194 15.4338 12.8131 14.8643C13.5267 14.4519 14.1412 13.8879 14.6134 13.2123C15.0855 12.5366 15.4037 11.7657 15.5456 10.9537C15.5593 10.8726 15.589 10.7949 15.6331 10.7254C15.6771 10.6558 15.7345 10.5957 15.802 10.5486C15.8695 10.5015 15.9457 10.4683 16.0261 10.4509C16.1066 10.4336 16.1897 10.4324 16.2706 10.4475C16.3514 10.4617 16.4287 10.4918 16.4979 10.5359C16.5671 10.5801 16.6269 10.6374 16.6739 10.7047C16.721 10.772 16.7542 10.8479 16.7719 10.928C16.7896 11.0082 16.7912 11.091 16.7769 11.1718" fill="#747576"/>
</svg>
