<svg width="20" height="20" viewBox="0 0 20 20" fill="none" xmlns="http://www.w3.org/2000/svg">
<path d="M10.625 5.625V10C10.625 10.097 10.6024 10.1927 10.559 10.2795C10.5156 10.3663 10.4526 10.4418 10.375 10.5L7.875 12.375C7.8094 12.4244 7.73469 12.4604 7.65516 12.4808C7.57563 12.5013 7.49284 12.5058 7.41154 12.4942C7.33024 12.4826 7.25204 12.4551 7.18142 12.4132C7.11079 12.3712 7.04914 12.3158 7 12.25C6.90054 12.1174 6.85784 11.9507 6.88128 11.7866C6.90472 11.6225 6.99239 11.4745 7.125 11.375L9.375 9.6875V5.625C9.375 5.45924 9.44085 5.30027 9.55806 5.18306C9.67527 5.06585 9.83424 5 10 5C10.1658 5 10.3247 5.06585 10.4419 5.18306C10.5592 5.30027 10.625 5.45924 10.625 5.625ZM10 16.25C6.55375 16.25 3.75 13.4462 3.75 10C3.75 6.55375 6.55375 3.75 10 3.75C13.4462 3.75 16.25 6.55375 16.25 10C16.25 13.4462 13.4462 16.25 10 16.25ZM10 2.5C5.86437 2.5 2.5 5.86437 2.5 10C2.5 14.1356 5.86437 17.5 10 17.5C14.1356 17.5 17.5 14.1356 17.5 10C17.5 5.86437 14.1356 2.5 10 2.5Z" fill="#747576"/>
</svg>
