<svg width="20" height="20" viewBox="0 0 20 20" fill="none" xmlns="http://www.w3.org/2000/svg">
<g clip-path="url(#clip0)">
<path d="M19.7813 12.3125L18.2813 10.7187C18.0313 10.4687 17.625 10.375 17.375 10.5625L15.6875 11.3125C15.2813 11.4687 15.0938 11.9687 15.2813 12.4062C15.4375 12.8125 15.9375 13 16.375 12.8125L16.7188 12.6562C15.5938 15.5625 12.9688 17.5 9.96877 17.5C6.87502 17.5 4.09377 15.4062 3.18752 12.3125C3.03127 11.9062 2.59377 11.6562 2.09377 11.7187C1.68752 11.875 1.43752 12.3125 1.50002 12.8125C2.68752 16.5625 6.12502 19.1562 9.87502 19.1562C13.625 19.1562 16.9063 16.7187 18.1563 13.125L18.4063 13.375C18.5625 13.5312 18.8125 13.625 19 13.625C19.1563 13.625 19.4063 13.5312 19.5938 13.375C20.0938 13.1562 20.0938 12.625 19.7813 12.3125Z" fill="#F0F5F9"/>
<path d="M2.25 9.875C2.40625 9.875 2.5 9.875 2.65625 9.78125L4.40625 8.78125C4.8125 8.53125 5 8.03125 4.75 7.59375C4.5 7.1875 4 7 3.5625 7.25L3.21875 7.5C4.21875 4.5625 6.90625 2.5625 9.90625 2.5625C13.1875 2.5625 16.0938 4.90625 16.8438 8.25C16.9375 8.65625 17.4375 9 17.8438 8.84375C18.25 8.75 18.5938 8.25 18.4375 7.84375C17.6875 3.75 14.0625 0.84375 10.0625 0.84375C6.1875 0.84375 2.84375 3.4375 1.6875 7.1875L1.4375 6.9375C1.09375 6.59375 0.59375 6.59375 0.25 6.9375C-0.09375 7.28125 -0.09375 7.78125 0.25 8.125L1.75 9.71875C1.75 9.78125 2 9.875 2.25 9.875Z" fill="#F0F5F9"/>
<path d="M13.6562 12.2186C14 10.6249 12.75 9.21863 11.1562 9.21863H8.90622C8.40622 9.21863 8.06247 8.87488 8.06247 8.37488C8.06247 7.87488 8.46872 7.53113 8.90622 7.53113H12.5C13 7.53113 13.3437 7.18738 13.3437 6.68738C13.3437 6.18738 13 5.84363 12.5 5.84363H10.8125V4.99988C10.8125 4.59363 10.4687 4.15613 9.96872 4.15613C9.46872 4.15613 9.12497 4.49988 9.12497 4.99988V5.84363H8.96872C7.71872 5.84363 6.53122 6.68738 6.37497 7.84363C6.03122 9.43738 7.28122 10.8436 8.87497 10.8436H11.125C11.625 10.8436 11.9687 11.1874 11.9687 11.6874C11.9687 12.1874 11.5625 12.5311 11.125 12.5311H7.46872C6.96872 12.5311 6.62497 12.8749 6.62497 13.3749C6.62497 13.8749 6.96872 14.2186 7.46872 14.2186H9.15622V15.0624C9.15622 15.4686 9.49997 15.9061 9.99997 15.9061C10.5 15.9061 10.8437 15.5624 10.8437 15.0624V14.2186H11.0937C12.3125 14.2186 13.5 13.4061 13.6562 12.2186Z" fill="#F0F5F9"/>
</g>
<defs>
<clipPath id="clip0">
<rect width="20" height="20" fill="white"/>
</clipPath>
</defs>
</svg>
