<svg width="132" height="80" viewBox="0 0 132 80" fill="none" xmlns="http://www.w3.org/2000/svg">
<path d="M119.238 78.4606C117.947 78.4606 116.657 78.1621 115.394 77.57C114.049 78.1598 112.604 78.4606 111.1 78.4606C109.579 78.4606 108.122 78.155 106.765 77.5534C105.408 78.155 103.951 78.4606 102.428 78.4606C100.908 78.4606 99.4509 78.155 98.0937 77.5534C96.7365 78.155 95.2798 78.4606 93.7568 78.4606C92.2361 78.4606 90.7794 78.155 89.4222 77.5534C88.065 78.155 86.6083 78.4606 85.0853 78.4606C83.5646 78.4606 82.1079 78.155 80.7507 77.5534C79.3935 78.155 77.9368 78.4606 76.4138 78.4606C74.8931 78.4606 73.4364 78.155 72.0792 77.5534C70.722 78.155 69.2653 78.4606 67.7423 78.4606C66.2216 78.4606 64.7649 78.155 63.4077 77.5534C62.0505 78.155 60.5938 78.4606 59.0731 78.4606C57.5501 78.4606 56.0934 78.155 54.7362 77.5534C53.379 78.155 51.9223 78.4606 50.4016 78.4606C48.881 78.4606 47.4243 78.155 46.0671 77.5534C44.7075 78.155 43.2484 78.4606 41.7301 78.4606C40.2237 78.4606 38.7765 78.1598 37.4263 77.5676C36.1189 78.1598 34.7403 78.4606 33.3239 78.4606C27.0873 78.4606 25.4104 73.1714 24.6027 70.6299C24.1479 69.1969 24.4132 67.6218 25.2896 66.4754C25.0503 65.888 24.8608 65.3242 24.714 64.8718C24.2308 64.8884 23.7381 64.8955 23.2526 64.8955C18.7309 64.8955 12.4398 64.2347 8.15025 61.0891C6.46143 59.848 5.20133 58.6897 4.29415 57.5457C4.28704 57.5362 4.27757 57.5244 4.27046 57.5149H4.13071L4.12834 57.3278C3.10273 55.9682 2.5319 54.5707 2.38504 53.0572C2.24529 51.6265 2.72139 50.1959 3.68541 49.1324C4.56891 48.1589 5.78164 47.5667 7.09385 47.4649C10.4786 47.0385 15.7132 46.9532 19.6049 46.9603L19.7731 41.1762C19.8181 38.5754 21.9119 36.4176 24.489 36.266C24.624 35.6455 24.8822 35.0699 25.2446 34.5772C24.9603 33.869 24.7519 33.2082 24.5979 32.7179C23.9371 30.6335 24.8111 28.3572 26.6302 27.424C28.5227 26.4552 30.6261 26.865 31.879 28.4449C32.0164 28.5467 32.4167 28.7954 33.0539 28.7954C33.6721 28.7954 34.0653 28.5633 34.2287 28.4449C35.0767 27.3577 36.1402 26.8058 37.3908 26.8058C38.6391 26.8058 39.7026 27.3577 40.5506 28.4449C40.714 28.5633 41.1072 28.7954 41.7254 28.7954C42.327 28.7954 42.7676 28.5562 42.8671 28.4946C43.535 27.7532 44.6506 26.8816 46.1405 26.9503C47.4456 27.0095 48.483 27.5116 49.2221 28.4425C49.3594 28.5444 49.7597 28.7931 50.3969 28.7931C51.0151 28.7931 51.4083 28.5609 51.5717 28.4425C52.4197 27.3553 53.4832 26.8034 54.7315 26.8034C55.9821 26.8034 57.0456 27.3553 57.8936 28.4425C58.057 28.5609 58.4502 28.7931 59.0684 28.7931C59.67 28.7931 60.1106 28.5538 60.2101 28.4923C60.878 27.7532 61.9936 26.8792 63.4835 26.9455C64.791 27.0071 65.8284 27.5116 66.5627 28.4425C66.7285 28.5609 67.1264 28.7907 67.7352 28.7907C68.3557 28.7907 68.7513 28.5586 68.9124 28.4401C69.2534 28.0162 69.8693 27.6088 70.7504 27.2274C70.8144 27.199 70.8191 27.1469 70.8167 27.1185C70.8144 27.0877 70.8001 27.0356 70.7338 27.0166C69.0474 26.55 67.323 26.3131 65.6058 26.3131L65.2623 26.3155C55.596 26.4955 49.7574 26.6045 47.4385 22.1207C46.8937 21.0524 46.2755 18.8567 48.2272 16.121L48.2604 16.0736C48.2841 16.0404 48.3054 16.0096 48.3315 15.9765L48.3599 15.9386L48.483 15.7799C48.5778 15.6615 48.6725 15.5454 48.772 15.427L48.9355 15.2398C49.0444 15.119 49.1534 15.0006 49.2623 14.8846C49.3002 14.8467 49.331 14.8159 49.3594 14.7851C49.3926 14.7519 49.4258 14.7164 49.4589 14.6832L49.5158 14.624C49.5608 14.579 49.6034 14.534 49.6484 14.4914C49.8403 14.3019 50.0487 14.1053 50.2666 13.9063C50.4016 13.7855 50.539 13.6647 50.6788 13.5439L50.7119 13.5155C50.8682 13.3805 51.0293 13.2455 51.1951 13.1105C51.3585 12.9778 51.5243 12.8452 51.6996 12.7102C53.5803 11.2487 60.4422 6.40254 69.7082 5.44088C71.4799 5.25613 73.1711 5.16376 74.7368 5.16376C74.9808 5.16376 75.2271 5.16612 75.4687 5.17323L75.6605 5.1756C75.6771 5.1756 75.6937 5.1756 75.7103 5.1756C75.7932 5.13296 75.8879 5.08322 75.9922 5.02874C77.8112 4.07182 82.6456 1.53267 88.9343 1.52319C88.9509 1.52319 88.9651 1.52319 88.9816 1.52319C95.6825 1.52319 99.1359 3.31387 100.799 4.17367C102.419 5.01216 103.144 5.68485 103.151 6.35754C103.16 7.09655 102.322 7.55606 101.436 8.04162C101.341 8.09373 101.246 8.14584 101.152 8.19795C103.271 10.5571 104.278 12.3004 104.138 13.3805C104.089 13.7595 103.52 13.9561 101.886 14.4748C101.059 14.7377 100.124 15.0338 99.3657 15.3606C97.5963 16.1233 96.3196 16.9926 95.8577 17.3266L95.9525 17.5042C96.0875 17.7624 96.2178 18.023 96.3433 18.2835L96.5328 18.7004C96.7175 19.1125 96.8833 19.5199 97.0278 19.9084C97.1297 20.1784 97.2244 20.4508 97.3168 20.7232C97.3618 20.8582 97.4068 20.9956 97.4494 21.133C97.4921 21.268 97.5347 21.4054 97.5726 21.5451C97.6058 21.6564 97.6389 21.7701 97.6721 21.8862C97.7858 22.2936 97.8947 22.7318 97.9966 23.1889C98.0226 23.3002 98.0463 23.4139 98.0676 23.5253L98.0819 23.5987C98.1127 23.7503 98.1387 23.8806 98.1648 24.0108L98.3092 24.8327C98.3306 24.9654 98.3519 25.1028 98.3708 25.2401L98.3756 25.2709C98.385 25.342 98.3945 25.4154 98.4064 25.4865L98.449 25.8228C98.4893 26.1568 98.5248 26.4908 98.5556 26.8247C99.6049 26.9455 100.51 27.488 101.249 28.4401C101.391 28.542 101.791 28.7883 102.421 28.7883C103.051 28.7883 103.456 28.542 103.598 28.4378C104.446 27.3506 105.51 26.7987 106.758 26.7987C108.011 26.7987 109.075 27.3506 109.92 28.4401C110.062 28.542 110.463 28.7883 111.093 28.7883C111.723 28.7883 112.128 28.542 112.27 28.4378C113.115 27.3506 114.179 26.7987 115.43 26.7987C116.683 26.7987 117.746 27.3506 118.592 28.4401C118.734 28.542 119.134 28.7883 119.764 28.7883C120.366 28.7883 120.806 28.5491 120.906 28.4875C122.246 27.0071 124.492 26.6471 126.245 27.6467C128.002 28.6509 128.834 30.7803 128.222 32.7108C127.749 34.2006 127.131 35.5034 126.377 36.5858C126.546 37.8507 126.538 44.587 126.361 60.9162C126.339 62.9485 126.323 64.4455 126.321 64.995C126.711 65.6393 128.718 69.0572 128.22 70.6205C125.984 77.6955 121.195 78.4606 119.238 78.4606ZM115.401 76.9541L115.52 77.011C116.742 77.6008 117.995 77.9016 119.238 77.9016C121.072 77.9016 125.565 77.1768 127.697 70.4594C128.071 69.2822 126.463 66.2835 125.811 65.2295L125.769 65.1632V65.085C125.769 64.6065 125.785 63.0598 125.809 60.921C125.885 53.9336 126.062 37.6138 125.837 36.6403L125.764 36.5076L125.866 36.3632C126.612 35.3115 127.228 34.0277 127.697 32.5521C128.23 30.8727 127.505 29.0181 125.975 28.1417C124.442 27.2677 122.476 27.5874 121.299 28.8997C121.23 28.9683 120.622 29.3544 119.769 29.3544C118.94 29.3544 118.414 29.0157 118.227 28.8689L118.177 28.8191C117.426 27.8409 116.531 27.3672 115.437 27.3672C114.338 27.3672 113.442 27.8409 112.694 28.8168L112.644 28.8665C112.455 29.0133 111.929 29.3544 111.097 29.3544C110.268 29.3544 109.745 29.0157 109.555 28.8689L109.506 28.8191C108.755 27.8409 107.86 27.3672 106.765 27.3672C105.669 27.3672 104.773 27.8409 104.02 28.8168L103.97 28.8665C103.781 29.0133 103.255 29.3544 102.424 29.3544C101.595 29.3544 101.069 29.0157 100.882 28.8689L100.832 28.8191C100.128 27.9001 99.2946 27.4264 98.2856 27.3719L98.0416 27.3601L98.0203 27.1185C97.9871 26.7158 97.9445 26.306 97.8947 25.9034L97.8521 25.5789C97.8403 25.5125 97.8308 25.432 97.8189 25.3538L97.8142 25.3254C97.7953 25.1928 97.7763 25.0625 97.755 24.9299L97.6129 24.1222C97.5892 23.9943 97.5631 23.864 97.5371 23.7361L97.5181 23.6461C97.4945 23.5371 97.4731 23.4282 97.4471 23.3168C97.3476 22.8692 97.241 22.4381 97.1297 22.0401C97.0989 21.9264 97.0657 21.8175 97.0326 21.7085C96.9923 21.5712 96.952 21.4361 96.9118 21.3035C96.8691 21.1685 96.8265 21.0359 96.7815 20.9032C96.6939 20.6356 96.5991 20.3703 96.4996 20.1074C96.3599 19.7284 96.1964 19.3328 96.0188 18.9325L95.8317 18.5227C95.7109 18.2717 95.583 18.0182 95.4503 17.7648L95.1282 17.1797L95.3153 17.0305C95.3769 16.9831 96.8336 15.8438 99.1359 14.8514C99.9199 14.5151 100.87 14.2119 101.708 13.9466C102.454 13.7097 103.376 13.4184 103.582 13.2573C103.62 12.7031 103.262 11.3743 100.647 8.48456C100.45 8.26664 100.41 8.22164 100.429 8.08663L100.45 7.95635L100.564 7.89003C100.758 7.77634 100.96 7.66501 101.156 7.55606C101.86 7.16997 102.587 6.77205 102.582 6.36701C102.58 6.07804 102.22 5.54984 100.536 4.67582C98.9085 3.83259 95.5356 2.08456 88.9698 2.08456C88.9532 2.08456 88.939 2.08456 88.9248 2.08456C82.7901 2.09166 78.0552 4.5716 76.2551 5.51668L76.248 5.75354L76.1248 5.7488C76.004 5.74407 75.8832 5.7417 75.76 5.73933C75.715 5.73696 75.6819 5.73459 75.6511 5.73459L75.4521 5.73222C75.2081 5.72749 74.9665 5.72275 74.7273 5.72275C73.183 5.72275 71.5107 5.81512 69.758 5.99751C60.6412 6.94495 53.8882 11.7153 52.0336 13.1531C51.8631 13.2857 51.6996 13.416 51.5386 13.5463C51.3751 13.6789 51.2188 13.8116 51.0672 13.9395L51.0364 13.9655C50.899 14.0863 50.7617 14.2048 50.6314 14.3208C50.4206 14.5127 50.2169 14.7045 50.0274 14.8917C49.9824 14.9343 49.9421 14.9746 49.9018 15.0148L49.8403 15.0764C49.8095 15.1072 49.7787 15.138 49.7503 15.1688C49.7171 15.202 49.6839 15.2375 49.6508 15.2706C49.5489 15.3796 49.4423 15.4957 49.3405 15.6094L49.1818 15.7917C49.087 15.9031 48.997 16.0144 48.9094 16.1233L48.7673 16.3081C48.746 16.3365 48.7246 16.3673 48.7033 16.3957L48.6678 16.4431C46.889 18.9373 47.4385 20.9103 47.9241 21.8625C50.0819 26.0384 55.7902 25.9318 65.2457 25.7541L65.5939 25.7518C67.3609 25.7518 69.135 25.9957 70.8712 26.4766C71.1507 26.5547 71.3426 26.7892 71.3615 27.0758C71.3805 27.3624 71.2241 27.6206 70.9612 27.7367C70.1606 28.0848 69.5922 28.4567 69.3198 28.8096L69.27 28.8594C69.0805 29.0062 68.5547 29.3473 67.7233 29.3473C66.9369 29.3473 66.4206 29.0441 66.1837 28.8641L66.1316 28.812C65.4897 27.9854 64.611 27.5543 63.4432 27.4998C62.1642 27.4477 61.1788 28.2246 60.5819 28.8925C60.5132 28.9612 59.9045 29.3473 59.0518 29.3473C58.2228 29.3473 57.697 29.0062 57.5075 28.8594L57.4577 28.8096C56.7069 27.8338 55.8092 27.3601 54.7149 27.3601C53.6206 27.3601 52.7252 27.8338 51.9744 28.8096L51.9246 28.8594C51.7352 29.0062 51.2093 29.3473 50.3803 29.3473C49.5418 29.3473 49.0207 29.0039 48.8336 28.857L48.7862 28.8096C48.142 27.983 47.2608 27.5543 46.0955 27.5022C44.8164 27.4406 43.8335 28.2222 43.2366 28.8902C43.1679 28.9589 42.5591 29.345 41.7064 29.345C40.8774 29.345 40.3516 29.0039 40.1621 28.857L40.1124 28.8073C39.3615 27.8314 38.4638 27.3577 37.3719 27.3577C36.2776 27.3577 35.3799 27.8314 34.629 28.8073L34.5793 28.857C34.3898 29.0039 33.8639 29.345 33.0349 29.345C32.1964 29.345 31.6753 29.0015 31.4882 28.8546L31.4409 28.8073C30.3631 27.4216 28.5227 27.0616 26.8647 27.9119C25.2848 28.722 24.5292 30.7116 25.1095 32.5426C25.273 33.0589 25.4956 33.7624 25.8012 34.5062L25.8628 34.6578L25.7609 34.7857C25.3582 35.2878 25.0882 35.906 24.9769 36.574L24.939 36.8037L24.7045 36.8061C22.3241 36.8345 20.3534 38.7957 20.3107 41.1786L20.126 47.5099H19.8536C15.9525 47.498 10.5757 47.5762 7.12701 48.0096C5.9427 48.102 4.86262 48.6279 4.07387 49.4971C3.21406 50.4446 2.79245 51.7189 2.91561 52.9932C3.05062 54.3883 3.57646 55.684 4.52153 56.9464L4.65891 57.1288C4.67313 57.1478 4.68734 57.1667 4.70155 57.1857C5.57794 58.2942 6.80488 59.4193 8.45107 60.6296C12.6198 63.6851 18.7853 64.327 23.2218 64.327C23.7736 64.327 24.3279 64.3176 24.8751 64.2962L25.0859 64.2891L25.1498 64.4905C25.3227 65.0258 25.5383 65.6937 25.8367 66.4043L25.903 66.5606L25.7941 66.6909C24.9532 67.7023 24.6879 69.1424 25.1024 70.4547C25.8675 72.8706 27.4639 77.8968 33.2907 77.8968C34.6669 77.8968 36.0052 77.596 37.2724 77.0015L37.3884 76.947L37.5045 76.9991C38.8144 77.5937 40.2261 77.8945 41.697 77.8945C43.1797 77.8945 44.5985 77.5889 45.9178 76.9849L46.0339 76.9328L46.15 76.9849C47.4669 77.5889 48.8857 77.8945 50.3685 77.8945C51.8512 77.8945 53.27 77.5889 54.587 76.9849L54.703 76.9304L54.8191 76.9849C56.1337 77.5889 57.5549 77.8945 59.04 77.8945C60.5227 77.8945 61.9415 77.5889 63.2585 76.9849L63.3745 76.9304L63.4906 76.9849C64.8075 77.5889 66.2264 77.8945 67.7091 77.8945C69.1942 77.8945 70.6154 77.5889 71.93 76.9849L72.046 76.9304L72.1621 76.9849C73.4767 77.5889 74.8979 77.8945 76.3806 77.8945C77.8657 77.8945 79.2869 77.5889 80.6015 76.9849L80.7175 76.9304L80.8336 76.9849C82.1482 77.5889 83.5694 77.8945 85.0521 77.8945C86.5372 77.8945 87.9584 77.5889 89.273 76.9849L89.389 76.9304L89.5051 76.9849C90.8221 77.5889 92.2409 77.8945 93.7236 77.8945C95.2087 77.8945 96.6299 77.5889 97.9445 76.9849L98.0605 76.9304L98.1766 76.9849C99.4936 77.5889 100.912 77.8945 102.395 77.8945C103.88 77.8945 105.301 77.5889 106.616 76.9849L106.732 76.9304L106.848 76.9849C108.165 77.5889 109.584 77.8945 111.067 77.8945C112.535 77.8945 113.942 77.5937 115.25 77.0015L115.401 76.9541Z" fill="#F0F5F9"/>
<path d="M76.2622 5.75359L76.1366 5.74886C76.0182 5.74412 75.8974 5.74175 75.7742 5.73938L75.4995 5.73464V5.1709L76.158 5.18985C76.2006 5.19222 76.2409 5.19222 76.2811 5.19459L76.2622 5.75359Z" fill="#F0F5F9"/>
<path d="M76.2622 5.75359L76.1366 5.74886C76.0182 5.74412 75.8974 5.74175 75.7742 5.73938L75.4995 5.73464V5.1709L76.158 5.18985C76.2006 5.19222 76.2409 5.19222 76.2811 5.19459L76.2622 5.75359Z" fill="#F0F5F9"/>
<path d="M76.2622 5.7536L76.1366 5.74886C76.0182 5.74413 75.8974 5.74176 75.7742 5.73939C75.7458 5.73702 75.7221 5.73465 75.7008 5.73465H75.6653V5.17566C75.6842 5.17566 75.7032 5.17566 75.7198 5.17803L76.1603 5.19224C76.2006 5.19461 76.2408 5.19461 76.2811 5.19698L76.2622 5.7536Z" fill="#F0F5F9"/>
<path d="M27.2055 56.8259V59.3769C27.2055 59.9857 26.7342 60.4878 26.1231 60.5281C23.2097 60.72 15.1019 60.9166 10.656 57.6573C9.15904 56.5582 8.22343 55.6605 7.63602 54.9167C9.89805 54.0687 21.3195 55.8358 27.2055 56.8259Z" fill="white"/>
<path d="M7.79244 54.3198C8.45092 55.0896 9.16388 55.8097 9.94789 56.4492C10.7319 57.0864 11.5894 57.6406 12.4918 58.1025C13.3966 58.5644 14.3441 58.9457 15.3199 59.2418C16.2958 59.5379 17.2954 59.7582 18.302 59.9334C17.2906 59.7913 16.2816 59.6042 15.2915 59.3413C14.3014 59.076 13.3327 58.7254 12.3994 58.2896C11.4686 57.8514 10.5779 57.3185 9.75367 56.6955C8.93175 56.0702 8.17616 55.3549 7.47978 54.5946L7.79244 54.3198Z" fill="#B5B5B6"/>
<path d="M7.79256 53.5382C8.48183 54.3412 9.22794 55.092 10.0546 55.7529C10.8836 56.409 11.7837 56.9751 12.7382 57.4417C13.6904 57.9083 14.6923 58.2825 15.7155 58.5739C16.7411 58.8605 17.7904 59.0689 18.8468 59.2324C17.7857 59.1045 16.7293 58.9292 15.6895 58.6757C14.6497 58.4152 13.6288 58.0717 12.6482 57.6312C11.6676 57.1906 10.7296 56.6458 9.86272 56.0016C8.99818 55.3549 8.20707 54.6112 7.47754 53.8153L7.79256 53.5382Z" fill="#B5B5B6"/>
<path d="M7.79245 52.6476C8.50303 53.4719 9.27282 54.244 10.1279 54.9167C10.9853 55.587 11.9186 56.1579 12.9063 56.6269C13.894 57.0958 14.929 57.463 15.9854 57.7519C17.0466 58.0314 18.129 58.2304 19.2162 58.3844C18.1243 58.2659 17.0347 58.1001 15.9594 57.8538C14.8888 57.598 13.8324 57.2593 12.8186 56.8163C11.8049 56.3734 10.8337 55.8215 9.9384 55.1654C9.04307 54.5069 8.22827 53.7395 7.47979 52.9223L7.79245 52.6476Z" fill="#B5B5B6"/>
<path d="M9.22327 53.2468C9.91728 53.8887 10.6681 54.469 11.4735 54.9712C12.2788 55.471 13.1362 55.8902 14.0221 56.236C15.7962 56.9371 17.684 57.3303 19.5836 57.5719C17.6769 57.4014 15.7702 57.0745 13.9487 56.4326C13.0391 56.1129 12.1533 55.7197 11.3124 55.2412C10.4715 54.7604 9.68041 54.1919 8.94377 53.5595L9.22327 53.2468Z" fill="#B5B5B6"/>
<path d="M10.0641 53.1189C11.4355 54.2227 13.0177 55.0635 14.6971 55.6415C16.374 56.2289 18.1363 56.5652 19.908 56.7713C18.1292 56.6339 16.3503 56.3663 14.6331 55.8381C12.9159 55.3217 11.265 54.5282 9.81063 53.4481L10.0641 53.1189Z" fill="#B5B5B6"/>
<path d="M10.7533 52.9579C12.0986 53.9148 13.6122 54.6349 15.1992 55.137C16.7861 55.6463 18.4394 55.9423 20.1022 56.1295C18.4347 56.0134 16.7648 55.786 15.1399 55.3383C13.5174 54.8978 11.9423 54.2298 10.5164 53.3037L10.7533 52.9579Z" fill="#B5B5B6"/>
<path d="M27.2056 41.3231V56.8282C21.3196 55.8357 9.89813 54.0711 7.63611 54.919C6.86631 53.9455 6.69103 53.2373 6.63892 52.6902C6.59392 52.2259 6.97053 51.8303 7.43715 51.8303C11.6438 51.2785 19.4981 51.3235 22.5252 51.3637C23.2121 51.3732 23.7734 50.8284 23.7948 50.1439L24.0482 41.3231C24.0482 40.9465 24.3537 40.6385 24.7304 40.6385H26.5234C26.9 40.6385 27.2056 40.9465 27.2056 41.3231Z" fill="#3282B8"/>
<path d="M123.473 69.8862C123.644 69.7607 123.874 69.9336 123.798 70.1326C122.869 72.5462 121.365 74.1948 119.191 74.1948C117.457 74.1948 115.989 73.0271 115.534 72.622C115.451 72.5486 115.328 72.551 115.247 72.6268C114.811 73.0342 113.364 74.1948 111.05 74.1948C108.745 74.1948 107.303 73.0436 106.86 72.6315C106.777 72.5557 106.651 72.5557 106.571 72.6315C106.128 73.0436 104.683 74.1948 102.378 74.1948C100.074 74.1948 98.6313 73.0436 98.1883 72.6315C98.1054 72.5557 97.9799 72.5557 97.8994 72.6315C97.4565 73.0436 96.0116 74.1948 93.7069 74.1948C91.4023 74.1948 89.9598 73.0436 89.5168 72.6315C89.4339 72.5557 89.3084 72.5557 89.2279 72.6315C88.7849 73.0436 87.3401 74.1948 85.0354 74.1948C82.7308 74.1948 81.2883 73.0436 80.8453 72.6315C80.7624 72.5557 80.6369 72.5557 80.5564 72.6315C80.1134 73.0436 78.6686 74.1948 76.3639 74.1948C74.0593 74.1948 72.6168 73.0436 72.1738 72.6315C72.0909 72.5557 71.9654 72.5557 71.8849 72.6315C71.4419 73.0436 69.9971 74.1948 67.6924 74.1948C65.3878 74.1948 63.9453 73.0436 63.5023 72.6315C63.4194 72.5557 63.2939 72.5557 63.2134 72.6315C62.7704 73.0436 61.3256 74.1948 59.0209 74.1948C56.7186 74.1948 55.2738 73.0436 54.8308 72.6315C54.7479 72.5557 54.6224 72.5557 54.5419 72.6315C54.0989 73.0436 52.6541 74.1948 50.3494 74.1948C48.0471 74.1948 46.6023 73.0436 46.1593 72.6315C46.0764 72.5557 45.9509 72.5557 45.8704 72.6315C45.4274 73.0436 43.9826 74.1948 41.6779 74.1948C39.3732 74.1948 37.9308 73.0436 37.4878 72.6315C37.4049 72.5557 37.2794 72.5557 37.1989 72.6315C36.7583 73.0436 35.3419 74.1948 33.2741 74.1948C30.7065 74.1948 29.7401 72.5344 28.9134 70.1089C28.8471 69.9123 29.0721 69.7465 29.2379 69.8696C29.9177 70.3742 31.1968 71.0871 33.0064 71.0871C35.3111 71.0871 36.7559 69.9336 37.1989 69.5214C37.2818 69.4457 37.4073 69.4457 37.4878 69.5214C37.9308 69.9336 39.3732 71.0871 41.6779 71.0871C43.9826 71.0871 45.4274 69.9336 45.8704 69.5214C45.9533 69.4457 46.0788 69.4457 46.1593 69.5214C46.6023 69.9336 48.0447 71.0871 50.3494 71.0871C52.6541 71.0871 54.0989 69.9336 54.5419 69.5214C54.6248 69.4457 54.7503 69.4457 54.8308 69.5214C55.2738 69.9336 56.7163 71.0871 59.0209 71.0871C61.3256 71.0871 62.7704 69.9336 63.2134 69.5214C63.2963 69.4457 63.4218 69.4457 63.5023 69.5214C63.9453 69.9336 65.3878 71.0871 67.6924 71.0871C69.9971 71.0871 71.4419 69.9336 71.8849 69.5214C71.9678 69.4457 72.0933 69.4457 72.1738 69.5214C72.6168 69.9336 74.0593 71.0871 76.3639 71.0871C78.6686 71.0871 80.1134 69.9336 80.5564 69.5214C80.6393 69.4457 80.7648 69.4457 80.8453 69.5214C81.2883 69.9336 82.7308 71.0871 85.0354 71.0871C87.3401 71.0871 88.7849 69.9336 89.2279 69.5214C89.3108 69.4457 89.4363 69.4457 89.5168 69.5214C89.9598 69.9336 91.4023 71.0871 93.7069 71.0871C96.0116 71.0871 97.4565 69.9336 97.8994 69.5214C97.9823 69.4457 98.1078 69.4457 98.1883 69.5214C98.6313 69.9336 100.074 71.0871 102.378 71.0871C104.683 71.0871 106.128 69.9336 106.571 69.5214C106.654 69.4457 106.779 69.4457 106.86 69.5214C107.303 69.9336 108.745 71.0871 111.05 71.0871C113.355 71.0871 114.799 69.9336 115.242 69.5214C115.325 69.4457 115.451 69.4457 115.531 69.5214C115.974 69.9336 117.417 71.0871 119.721 71.0871C121.517 71.0871 122.789 70.3907 123.473 69.8862Z" fill="#F0F5F9"/>
<path d="M123.473 31.9741C123.644 31.8486 123.874 32.0215 123.798 32.2204C122.869 34.634 121.365 36.2826 119.191 36.2826C117.457 36.2826 115.989 35.1149 115.534 34.7098C115.451 34.6364 115.328 34.6388 115.247 34.7146C114.811 35.122 113.364 36.2826 111.05 36.2826C108.745 36.2826 107.303 35.1314 106.86 34.7193C106.777 34.6435 106.651 34.6435 106.571 34.7193C106.128 35.1314 104.683 36.2826 102.378 36.2826C100.074 36.2826 98.6313 35.1314 98.1883 34.7193C98.1054 34.6435 97.9799 34.6435 97.8994 34.7193C97.4565 35.1314 96.0116 36.2826 93.7069 36.2826C91.4023 36.2826 89.9598 35.1314 89.5168 34.7193C89.4339 34.6435 89.3084 34.6435 89.2279 34.7193C88.7849 35.1314 87.3401 36.2826 85.0354 36.2826C82.7308 36.2826 81.2883 35.1314 80.8453 34.7193C80.7624 34.6435 80.6369 34.6435 80.5564 34.7193C80.1134 35.1314 78.6686 36.2826 76.3639 36.2826C74.0593 36.2826 72.6168 35.1314 72.1738 34.7193C72.0909 34.6435 71.9654 34.6435 71.8849 34.7193C71.4419 35.1314 69.9971 36.2826 67.6924 36.2826C65.3878 36.2826 63.9453 35.1314 63.5023 34.7193C63.4194 34.6435 63.2939 34.6435 63.2134 34.7193C62.7704 35.1314 61.3256 36.2826 59.0209 36.2826C56.7186 36.2826 55.2738 35.1314 54.8308 34.7193C54.7479 34.6435 54.6224 34.6435 54.5419 34.7193C54.0989 35.1314 52.6541 36.2826 50.3494 36.2826C48.0471 36.2826 46.6023 35.1314 46.1593 34.7193C46.0764 34.6435 45.9509 34.6435 45.8704 34.7193C45.4274 35.1314 43.9826 36.2826 41.6779 36.2826C39.3732 36.2826 37.9308 35.1314 37.4878 34.7193C37.4049 34.6435 37.2794 34.6435 37.1989 34.7193C36.7583 35.1314 35.3419 36.2826 33.2741 36.2826C30.7065 36.2826 29.7401 34.6222 28.9134 32.1968C28.8471 32.0002 29.0721 31.8344 29.2379 31.9575C29.9177 32.462 31.1968 33.175 33.0064 33.175C35.3111 33.175 36.7559 32.0215 37.1989 31.6093C37.2818 31.5335 37.4073 31.5335 37.4878 31.6093C37.9308 32.0215 39.3732 33.175 41.6779 33.175C43.9826 33.175 45.4274 32.0215 45.8704 31.6093C45.9533 31.5335 46.0788 31.5335 46.1593 31.6093C46.6023 32.0215 48.0447 33.175 50.3494 33.175C52.6541 33.175 54.0989 32.0215 54.5419 31.6093C54.6248 31.5335 54.7503 31.5335 54.8308 31.6093C55.2738 32.0215 56.7163 33.175 59.0209 33.175C61.3256 33.175 62.7704 32.0215 63.2134 31.6093C63.2963 31.5335 63.4218 31.5335 63.5023 31.6093C63.9453 32.0215 65.3878 33.175 67.6924 33.175C69.9971 33.175 71.4419 32.0215 71.8849 31.6093C71.9678 31.5335 72.0933 31.5335 72.1738 31.6093C72.6168 32.0215 74.0593 33.175 76.3639 33.175C78.6686 33.175 80.1134 32.0215 80.5564 31.6093C80.6393 31.5335 80.7648 31.5335 80.8453 31.6093C81.2883 32.0215 82.7308 33.175 85.0354 33.175C87.3401 33.175 88.7849 32.0215 89.2279 31.6093C89.3108 31.5335 89.4363 31.5335 89.5168 31.6093C89.9598 32.0215 91.4023 33.175 93.7069 33.175C96.0116 33.175 97.4565 32.0215 97.8994 31.6093C97.9823 31.5335 98.1078 31.5335 98.1883 31.6093C98.6313 32.0215 100.074 33.175 102.378 33.175C104.683 33.175 106.128 32.0215 106.571 31.6093C106.654 31.5335 106.779 31.5335 106.86 31.6093C107.303 32.0215 108.745 33.175 111.05 33.175C113.355 33.175 114.799 32.0215 115.242 31.6093C115.325 31.5335 115.451 31.5335 115.531 31.6093C115.974 32.0215 117.417 33.175 119.721 33.175C121.517 33.1773 122.789 32.4786 123.473 31.9741Z" fill="#F0F5F9"/>
<path d="M63.3081 37.9833C63.3413 37.7938 63.1163 37.6659 62.967 37.7867C62.3465 38.2889 61.0011 39.1392 59.0209 39.1392C56.7186 39.1392 55.2738 37.9857 54.8308 37.5736C54.7479 37.4978 54.6224 37.4978 54.5419 37.5736C54.0989 37.9857 52.6541 39.1392 50.3494 39.1392C48.0471 39.1392 46.6023 37.9857 46.1593 37.5736C46.0764 37.4978 45.9509 37.4978 45.8704 37.5736C45.4274 37.9857 43.9826 39.1392 41.6779 39.1392C39.3756 39.1392 37.9308 37.9857 37.4878 37.5736C37.4049 37.4978 37.2794 37.4978 37.1989 37.5736C36.7559 37.9857 35.3111 39.1392 33.0064 39.1392C31.1968 39.1392 29.9154 38.4263 29.238 37.9218C29.0721 37.7986 28.8448 37.9644 28.9135 38.161C29.7425 40.5864 30.7089 42.2468 33.2741 42.2468C35.3442 42.2468 36.7607 41.0957 37.1989 40.6835C37.2818 40.6077 37.4073 40.6077 37.4878 40.6835C37.9308 41.0957 39.3733 42.2468 41.6779 42.2468C43.9826 42.2468 45.4274 41.0957 45.8704 40.6835C45.9533 40.6077 46.0788 40.6077 46.1593 40.6835C46.6023 41.0957 48.0448 42.2468 50.3494 42.2468C52.6541 42.2468 54.0989 41.0957 54.5419 40.6835C54.6248 40.6077 54.7503 40.6077 54.8308 40.6835C55.2738 41.0957 56.7163 42.2468 59.0209 42.2468C61.5317 42.2468 63.0215 39.6721 63.3081 37.9833Z" fill="#F0F5F9"/>
<path d="M63.3081 43.9451C63.3413 43.7556 63.1163 43.6277 62.967 43.7485C62.3465 44.2507 61.0011 45.101 59.0209 45.101C56.7186 45.101 55.2738 43.9475 54.8308 43.5354C54.7479 43.4596 54.6224 43.4596 54.5419 43.5354C54.0989 43.9475 52.6541 45.101 50.3494 45.101C48.0471 45.101 46.6023 43.9475 46.1593 43.5354C46.0764 43.4596 45.9509 43.4596 45.8704 43.5354C45.4274 43.9475 43.9826 45.101 41.6779 45.101C39.3756 45.101 37.9308 43.9475 37.4878 43.5354C37.4049 43.4596 37.2794 43.4596 37.1989 43.5354C36.7559 43.9475 35.3111 45.101 33.0064 45.101C31.1968 45.101 29.9154 44.3881 29.238 43.8835C29.0721 43.7604 28.8448 43.9262 28.9135 44.1228C29.7425 46.5482 30.7089 48.2086 33.2741 48.2086C35.3442 48.2086 36.7607 47.0575 37.1989 46.6453C37.2818 46.5695 37.4073 46.5695 37.4878 46.6453C37.9308 47.0575 39.3733 48.2086 41.6779 48.2086C43.9826 48.2086 45.4274 47.0575 45.8704 46.6453C45.9533 46.5695 46.0788 46.5695 46.1593 46.6453C46.6023 47.0575 48.0448 48.2086 50.3494 48.2086C52.6541 48.2086 54.0989 47.0575 54.5419 46.6453C54.6248 46.5695 54.7503 46.5695 54.8308 46.6453C55.2738 47.0575 56.7163 48.2086 59.0209 48.2086C61.5317 48.2086 63.0215 45.6339 63.3081 43.9451Z" fill="#F0F5F9"/>
<path d="M63.3081 63.8178C63.3413 63.6283 63.1163 63.5004 62.967 63.6212C62.3465 64.1234 61.0011 64.9737 59.0209 64.9737C56.7186 64.9737 55.2738 63.8202 54.8308 63.408C54.7479 63.3322 54.6224 63.3322 54.5419 63.408C54.0989 63.8202 52.6541 64.9737 50.3494 64.9737C48.0471 64.9737 46.6023 63.8202 46.1593 63.408C46.0764 63.3322 45.9509 63.3322 45.8704 63.408C45.4274 63.8202 43.9826 64.9737 41.6779 64.9737C39.3756 64.9737 37.9308 63.8202 37.4878 63.408C37.4049 63.3322 37.2794 63.3322 37.1989 63.408C36.7559 63.8202 35.3111 64.9737 33.0064 64.9737C31.1968 64.9737 29.9154 64.2608 29.238 63.7562C29.0721 63.6331 28.8448 63.7989 28.9135 63.9955C29.7425 66.421 30.7089 68.0814 33.2741 68.0814C35.3442 68.0814 36.7607 66.9302 37.1989 66.5181C37.2818 66.4423 37.4073 66.4423 37.4878 66.5181C37.9308 66.9302 39.3733 68.0814 41.6779 68.0814C43.9826 68.0814 45.4274 66.9302 45.8704 66.5181C45.9533 66.4423 46.0788 66.4423 46.1593 66.5181C46.6023 66.9302 48.0448 68.0814 50.3494 68.0814C52.6541 68.0814 54.0989 66.9302 54.5419 66.5181C54.6248 66.4423 54.7503 66.4423 54.8308 66.5181C55.2738 66.9302 56.7163 68.0814 59.0209 68.0814C61.5317 68.079 63.0215 65.5043 63.3081 63.8178Z" fill="#F0F5F9"/>
<path d="M33.364 55.6462C33.364 57.0792 34.527 58.2422 35.96 58.2422H42.4808C42.9308 58.2422 43.2979 58.6069 43.2979 59.0594V60.0352C43.2979 60.4853 42.9332 60.8524 42.4808 60.8524H35.4863C32.6108 60.8524 30.2825 58.5217 30.2825 55.6485C30.2825 52.773 32.6132 50.4447 35.4863 50.4447H42.4808C42.9308 50.4447 43.2979 50.8095 43.2979 51.2619V52.2401C43.2979 52.6902 42.9332 53.0573 42.4808 53.0573H35.96C34.5247 53.0525 33.364 54.2132 33.364 55.6462Z" fill="#F6C90E"/>
<path d="M43.2958 55.1227V56.1696C43.2958 56.712 42.8576 57.1502 42.3152 57.1502H36.2088C35.3774 57.1502 34.7047 56.4775 34.7047 55.6462C34.7047 54.8148 35.3774 54.1421 36.2088 54.1421H42.3152C42.8576 54.1421 43.2958 54.5827 43.2958 55.1227Z" fill="#F6C90E"/>
<path d="M60.3685 57.4225C59.3098 58.6518 55.8942 59.9355 54.5015 60.6011C54.3807 60.6603 54.2409 60.5656 54.248 60.4306C54.2812 59.7768 54.3428 59.007 54.7454 58.3959C55.2665 57.6167 56.2874 57.0766 57.0359 56.7498C58.322 56.1884 58.8313 55.421 58.9474 54.6038C58.9663 54.4759 58.8479 54.3693 58.7247 54.4048C57.1519 54.8359 54.312 55.0183 53.3456 56.2381C53.2745 56.3258 53.1419 56.3258 53.0732 56.2381C52.1068 55.0183 49.2644 54.8359 47.6917 54.4048C47.5685 54.3717 47.4501 54.4759 47.469 54.6038C47.5851 55.421 48.0943 56.1884 49.3805 56.7498C50.1266 57.0766 51.1475 57.619 51.6709 58.3959C52.076 59.007 52.1376 59.7768 52.1684 60.4306C52.1755 60.5656 52.0357 60.6603 51.9149 60.6011C50.5222 59.9355 47.1066 58.6494 46.0478 57.4225C44.9914 56.1955 44.5769 52.1973 44.9772 50.5772C45.0104 50.4422 45.1762 50.3948 45.2757 50.4919C46.8674 52.0504 51.9765 52.3299 53.0921 53.3129C53.1608 53.3721 53.2579 53.3721 53.3243 53.3129C54.4375 52.3299 59.5466 52.0504 61.1383 50.4919C61.2378 50.3948 61.4036 50.4398 61.4368 50.5772C61.8395 52.1973 61.4226 56.1955 60.3685 57.4225Z" fill="#3282B8"/>
<path d="M73.3345 38.5397H75.5255C75.8287 38.5397 76.0656 38.8002 76.0348 39.1034L73.1545 67.4559C73.1284 67.7164 72.9082 67.9154 72.6452 67.9154H68.8293C68.5688 67.9154 68.3485 67.7188 68.3201 67.4582L65.3474 39.1058C65.3166 38.805 65.5535 38.542 65.8567 38.542H68.3769C68.6399 38.542 68.8601 38.7434 68.8862 39.0039L70.7835 58.8814H70.9256L72.8229 39.0039C72.8489 38.7386 73.0692 38.5397 73.3345 38.5397Z" fill="#F6C90E"/>
<path d="M88.3583 39.0491V67.4014C88.3583 67.6833 88.1286 67.9131 87.8467 67.9131H85.175C84.8931 67.9131 84.6633 67.6833 84.6633 67.4014V54.9757C84.6633 54.6938 84.4336 54.464 84.1517 54.464H82.9011C82.6193 54.464 82.3895 54.6938 82.3895 54.9757V67.4014C82.3895 67.6833 82.1598 67.9131 81.8779 67.9131H79.2062C78.9243 67.9131 78.6946 67.6833 78.6946 67.4014V39.0491C78.6946 38.7672 78.9243 38.5375 79.2062 38.5375H81.8803C82.1621 38.5375 82.3919 38.7672 82.3919 39.0491V51.5175C82.3919 51.7994 82.6217 52.0291 82.9035 52.0291H84.1565C84.4383 52.0291 84.6681 51.7994 84.6681 51.5175V39.0491C84.6681 38.7672 84.8978 38.5375 85.1797 38.5375H87.8538C88.1286 38.5398 88.3583 38.7672 88.3583 39.0491Z" fill="#F6C90E"/>
<path d="M97.0371 60.1392H95.3625C95.0972 60.1392 94.8769 60.3405 94.8532 60.6034L94.2279 67.4488C94.2042 67.7117 93.984 67.913 93.7187 67.913H91.5751C91.2719 67.913 91.0374 67.6525 91.0659 67.3516L93.9011 38.9992C93.9271 38.7386 94.1474 38.5397 94.4103 38.5397H98.2261C98.4867 38.5397 98.7069 38.7363 98.733 38.9968L101.751 67.3493C101.784 67.6501 101.547 67.9154 101.244 67.9154H98.7235C98.4606 67.9154 98.2403 67.7164 98.2143 67.4535L97.5463 60.6011C97.5203 60.3381 97.3 60.1392 97.0371 60.1392ZM95.6965 57.7019H96.7007C97.0039 57.7019 97.2384 57.4413 97.21 57.1405L96.2697 47.6162H96.1275L95.1872 57.1405C95.1588 57.4413 95.3933 57.7019 95.6965 57.7019Z" fill="#F6C90E"/>
<path d="M108.11 39.0489V64.9238C108.11 65.2057 108.34 65.4354 108.622 65.4354H111.533C111.815 65.4354 112.044 65.6652 112.044 65.947V67.4037C112.044 67.6856 111.815 67.9154 111.533 67.9154H104.93C104.648 67.9154 104.418 67.6856 104.418 67.4037V39.0513C104.418 38.7694 104.648 38.5397 104.93 38.5397H107.604C107.883 38.5397 108.11 38.7671 108.11 39.0489Z" fill="#F6C90E"/>
<path d="M118.39 41.8228V51.4749C118.39 51.7567 118.62 51.9865 118.902 51.9865H121.102C121.384 51.9865 121.614 52.2163 121.614 52.4981V53.9548C121.614 54.2367 121.384 54.4664 121.102 54.4664H118.902C118.62 54.4664 118.39 54.6962 118.39 54.9781V64.6302C118.39 64.9121 118.62 65.1418 118.902 65.1418H122.287C122.569 65.1418 122.798 65.3716 122.798 65.6534V67.4062C122.798 67.6881 122.569 67.9178 122.287 67.9178H115.209C114.927 67.9178 114.697 67.6881 114.697 67.4062V39.0539C114.697 38.772 114.927 38.5422 115.209 38.5422H122.003C122.284 38.5422 122.514 38.772 122.514 39.0539V40.8066C122.514 41.0885 122.284 41.3183 122.003 41.3183H118.904C118.618 41.3135 118.39 41.5409 118.39 41.8228Z" fill="#F6C90E"/>
<path d="M75.5727 10.3818C79.6989 6.98997 91.9612 4.53608 96.6321 6.76022C96.7411 6.81233 96.7103 6.97339 96.5895 6.98523C94.7751 7.13209 87.3874 7.95874 82.8894 11.893L75.5727 10.3818Z" fill="#3282B8"/>
<path d="M82.5412 12.4734C71.738 15.086 67.2684 17.6417 63.0854 18.4518C59.3311 19.1837 55.8114 19.0226 51.7682 18.6034C53.907 15.7421 61.5363 10.6898 70.1107 9.79918C76.442 9.14307 81.2314 9.68312 85.0614 11.9073C84.2537 12.0754 83.4129 12.2626 82.5412 12.4734Z" fill="white"/>
<path d="M51.9671 18.8994C52.9809 17.9235 54.0681 17.0803 55.2027 16.2844C56.3372 15.4981 57.5192 14.778 58.739 14.1337C59.9588 13.4895 61.2189 12.921 62.5051 12.4283C63.7936 11.9404 65.1129 11.5354 66.4488 11.2038C67.7847 10.865 69.142 10.6258 70.5087 10.4648C71.873 10.2918 73.2515 10.2326 74.6253 10.2587C76.0015 10.2705 77.3705 10.4245 78.723 10.6519L79.7344 10.8461C80.0708 10.9172 80.4 11.0119 80.734 11.0948L81.2338 11.2227C81.3996 11.2701 81.5606 11.3269 81.7241 11.3767L82.7023 11.6917L81.7193 11.3932C81.5559 11.3459 81.3924 11.2914 81.2266 11.2464L80.7269 11.128C80.3929 11.0522 80.0613 10.9622 79.7249 10.8982L78.7135 10.7206C77.3611 10.5192 75.9944 10.3866 74.6253 10.3984C73.2586 10.3961 71.8896 10.479 70.5371 10.6708C69.1822 10.8556 67.8392 11.1138 66.5199 11.4738C65.2006 11.8267 63.9002 12.2483 62.633 12.7528C61.3658 13.2621 60.1318 13.8448 58.938 14.5009C57.7442 15.157 56.5883 15.8865 55.4845 16.68C54.3855 17.4759 53.3149 18.3404 52.3674 19.2831L51.9671 18.8994Z" fill="#B5B5B6"/>
<path d="M52.4503 19.719C53.4286 18.8332 54.4589 18.0492 55.5295 17.3078C56.5978 16.5688 57.7039 15.8843 58.8408 15.2589C61.1171 14.013 63.5165 12.9874 66.0106 12.2721C68.5024 11.5544 71.0819 11.1423 73.6708 11.102C73.9953 11.0878 74.3174 11.0949 74.6419 11.1044C74.964 11.1162 75.2885 11.1139 75.6107 11.1352C76.2549 11.1897 76.9015 11.2181 77.5411 11.3176C78.8272 11.4621 80.0873 11.7534 81.338 12.0684C80.0802 11.7747 78.8178 11.5071 77.5316 11.3863C76.8921 11.2986 76.2478 11.282 75.6035 11.2394C75.2814 11.2228 74.9593 11.2323 74.6372 11.2276C74.315 11.2228 73.9929 11.2205 73.6708 11.2418C71.0961 11.327 68.5427 11.7818 66.0864 12.5398C63.6278 13.293 61.2711 14.3518 59.0422 15.6261C57.9289 16.2656 56.8488 16.962 55.8067 17.7104C54.7692 18.4566 53.7531 19.2619 52.834 20.1241L52.4503 19.719Z" fill="#B5B5B6"/>
<path d="M53.1941 20.4011C55.0108 18.8141 56.9863 17.4735 59.0541 16.2821C61.1266 15.1025 63.301 14.0959 65.5678 13.3521C66.6977 12.9755 67.8488 12.6605 69.0189 12.4307C69.5992 12.3004 70.1914 12.2223 70.7788 12.1275C71.371 12.0612 71.9608 11.9807 72.5553 11.9523C74.9287 11.7746 77.3234 11.9925 79.6352 12.516C77.3115 12.0352 74.924 11.867 72.5648 12.0896C71.975 12.1275 71.3899 12.2199 70.8025 12.2981C70.2198 12.4047 69.6348 12.4923 69.0616 12.6344C67.9057 12.8855 66.7711 13.2218 65.6578 13.615C63.4266 14.3943 61.2924 15.4341 59.2649 16.6421C57.2468 17.8548 55.3022 19.2381 53.5754 20.8085L53.1941 20.4011Z" fill="#B5B5B6"/>
<path d="M55.0984 20.1571C55.4798 19.7473 55.8848 19.437 56.2993 19.1244C56.7138 18.8141 57.1378 18.5227 57.5689 18.2409C58.4311 17.6795 59.3169 17.1608 60.2194 16.6752C62.0266 15.7088 63.9097 14.8798 65.8448 14.2119C67.7847 13.5581 69.7791 13.0465 71.8114 12.8097C73.8413 12.5562 75.9091 12.587 77.9153 12.9589C75.8996 12.6344 73.8413 12.651 71.8303 12.9494C69.8147 13.2313 67.8463 13.7832 65.9372 14.4748C64.0329 15.183 62.1877 16.0452 60.4207 17.0424C59.5372 17.5421 58.675 18.0751 57.8389 18.6459C57.422 18.9325 57.0123 19.2262 56.6167 19.5389C56.2259 19.8468 55.828 20.176 55.5224 20.5218L55.0984 20.1571Z" fill="#B5B5B6"/>
<path d="M56.991 19.9912C58.3624 18.9419 59.8048 17.985 61.316 17.1584C62.8248 16.327 64.3975 15.6117 66.02 15.0361C67.6401 14.4605 69.3124 14.0223 71.013 13.7736C72.7113 13.5202 74.4309 13.4373 76.1433 13.5178C74.4309 13.4823 72.7184 13.6126 71.0367 13.911C69.3526 14.2023 67.7064 14.6832 66.1171 15.2966C64.5254 15.9101 62.9906 16.6586 61.5244 17.5208C60.0535 18.3782 58.6585 19.3588 57.3391 20.4271L56.991 19.9912Z" fill="#B5B5B6"/>
<path d="M58.5211 20.3868C59.6557 19.5009 60.8352 18.6648 62.0859 17.9495C63.3341 17.2294 64.6392 16.6136 65.9846 16.1067C67.33 15.5998 68.7109 15.2019 70.1131 14.9011C71.5153 14.6097 72.9365 14.4179 74.36 14.2924C72.9412 14.4653 71.5319 14.7021 70.1439 15.0385C68.7606 15.3819 67.401 15.8225 66.0888 16.3672C64.7742 16.912 63.5094 17.561 62.3038 18.3095C61.0958 19.0532 59.9636 19.9107 58.874 20.8202L58.5211 20.3868Z" fill="#B5B5B6"/>
<path d="M94.1877 33.1608C94.0314 33.1726 93.8727 33.1774 93.7069 33.1774C90.9001 33.1774 89.3723 31.4672 89.3723 31.4672C89.3723 31.4672 89.3131 31.5312 89.2018 31.6354C85.9568 22.6726 79.4928 21.223 79.6373 20.5456C79.7202 20.15 83.9032 17.5019 88.6972 15.4933C88.8417 15.4318 88.991 15.3702 89.1378 15.3086C90.0521 16.3508 90.9095 17.5517 91.7172 18.9184C94.4009 23.4542 94.5525 29.1271 94.1877 33.1608Z" fill="white"/>
<path d="M99.0505 11.9947C97.7311 12.3548 93.2853 13.6125 89.1378 15.3084C88.991 15.37 88.8417 15.4316 88.6972 15.4932C83.9032 17.5018 79.7202 20.1475 79.6373 20.5455C79.4928 21.2229 85.9544 22.6749 89.2018 31.6353C88.7328 32.0641 87.2998 33.1773 85.0354 33.1773C84.8198 33.1773 84.6138 33.1655 84.4172 33.1465C82.6241 27.3505 74.4571 21.8837 65.1485 22.0543C55.6527 22.2296 52.1708 21.9951 51.24 20.1973C51.0623 19.8491 51.2589 19.2901 51.7705 18.6056C55.8114 19.0272 59.3335 19.1859 63.0878 18.454C67.2684 17.6415 71.7403 15.0882 82.5436 12.4732C83.4129 12.2648 84.2561 12.0776 85.0662 11.9095C92.8968 10.313 97.8591 10.7583 99.1239 11.4831C99.3371 11.6039 99.2921 11.9308 99.0505 11.9947Z" fill="#3282B8"/>
</svg>
